# Blender v2.74 (sub 5) OBJ File: 'Walls.blend'
# www.blender.org
o Deco_column_Cube.027
v -0.100000 -0.500000 0.100000
v -0.100000 -0.100000 0.100000
v -0.100000 -0.500000 0.500000
v -0.100000 -0.100000 0.500000
v -0.500000 -0.500000 0.100000
v -0.500000 -0.100000 0.100000
v -0.500000 -0.500000 0.500000
v -0.500000 -0.100000 0.500000
v -0.180000 -0.050000 0.180000
v -0.180000 -0.050000 0.420000
v -0.420000 -0.050000 0.420000
v -0.420000 -0.050000 0.180000
v -0.180000 -0.000000 0.180000
v -0.180000 -0.000000 0.420000
v -0.420000 -0.000000 0.420000
v -0.420000 -0.000000 0.180000
vt 0.850960 0.849202
vt 0.146966 0.849202
vt 0.303069 0.691939
vt 0.692022 0.691939
vt 0.848123 0.145482
vt 0.692022 0.302744
vt 0.144133 0.145482
vt 0.303069 0.302744
vt 0.691970 0.304614
vt 0.691970 0.692257
vt 0.304327 0.692257
vt 0.304327 0.304614
vt 0.490835 0.490836
vt 0.000000 0.490836
vt 0.000000 0.000000
vt 0.490835 0.000000
vt 1.000000 1.000000
vt 0.507353 1.000000
vt 0.507353 0.507353
vt 1.000000 0.507353
vt 0.014706 1.000000
vt 0.014706 0.507353
vt 0.981671 0.490836
vt 0.981671 0.000000
vt 0.255281 0.505435
vt 0.010520 0.505435
vt 0.010520 0.454443
vt 0.255281 0.454443
vt 0.744803 0.505435
vt 0.500042 0.505435
vt 0.500042 0.454443
vt 0.744803 0.454443
vt 0.989564 0.505435
vt 0.989564 0.454443
vn 0.000000 0.848000 0.530000
vn -0.530000 0.848000 0.000000
vn 0.530000 0.848000 0.000000
vn 0.000000 0.848000 -0.530000
vn 0.000000 1.000000 0.000000
vn 1.000000 0.000000 0.000000
vn 0.000000 0.000000 1.000000
vn -1.000000 0.000000 0.000000
vn 0.000000 0.000000 -1.000000
g Deco_column_Cube.027_Split
s off
f 8/1/1 4/2/1 10/3/1 11/4/1
f 6/5/2 8/1/2 11/4/2 12/6/2
f 4/2/3 2/7/3 9/8/3 10/3/3
f 2/7/4 6/5/4 12/6/4 9/8/4
f 16/9/5 15/10/5 14/11/5 13/12/5
g Deco_column_Cube.027_Smooth
f 2/13/6 4/14/6 3/15/6 1/16/6
f 4/17/7 8/18/7 7/19/7 3/20/7
f 8/18/8 6/21/8 5/22/8 7/19/8
f 6/23/9 2/13/9 1/16/9 5/24/9
f 9/25/9 12/26/9 16/27/9 13/28/9
f 11/29/7 10/30/7 14/31/7 15/32/7
f 12/33/8 11/29/8 15/32/8 16/34/8
f 10/30/6 9/25/6 13/28/6 14/31/6
