# Blender v2.76 (sub 1) OBJ File: 'Adaridge_walls.blend'
# www.blender.org
o Adaridge_C_M_T_Plane.002
v -0.500000 -0.500000 -0.300000
v -0.100000 0.100000 -0.200000
v -0.500000 -0.100000 -0.300000
v -0.300000 0.100000 -0.200000
v -0.300000 -0.100000 -0.300000
v -0.500000 -0.100000 -0.300000
v -0.300000 -0.500000 -0.300000
v -0.500000 -0.500000 -0.300000
v -0.100000 -0.300000 -0.200000
v 0.500000 -0.500000 -0.300000
v -0.300000 -0.300000 -0.200000
v 0.500000 -0.100000 -0.300000
v 0.500000 -0.100000 -0.300000
v 0.300000 -0.100000 -0.300000
v 0.500000 -0.500000 -0.300000
v 0.300000 -0.500000 -0.300000
v -0.100000 -0.300000 -0.200000
v 0.300000 -0.300000 -0.200000
v -0.100000 0.100000 -0.200000
v 0.300000 0.100000 -0.200000
v 0.100000 0.100000 -0.300000
v 0.300000 0.100000 -0.300000
v 0.100000 0.500000 -0.300000
v 0.300000 0.500000 -0.300000
v -0.500000 -0.100000 -0.300000
v -0.300000 -0.100000 -0.300000
v -0.500000 0.100000 -0.300000
v -0.300000 0.100000 -0.300000
v 0.300000 -0.100000 -0.300000
v 0.500000 -0.100000 -0.300000
v 0.300000 0.100000 -0.300000
v 0.500000 0.100000 -0.300000
v 0.300000 0.100000 -0.300000
v 0.500000 0.100000 -0.300000
v 0.300000 0.500000 -0.300000
v 0.500000 0.500000 -0.300000
v -0.500000 0.100000 -0.300000
v -0.300000 0.100000 -0.300000
v -0.500000 0.500000 -0.300000
v -0.300000 0.500000 -0.300000
v 0.300000 -0.300000 -0.300000
v 0.100000 -0.300000 -0.300000
v 0.300000 -0.500000 -0.300000
v 0.100000 -0.500000 -0.300000
v -0.300000 0.100000 -0.200000
v -0.300000 -0.100000 -0.200000
v 0.300000 0.100000 -0.200000
v 0.100000 0.100000 -0.200000
v 0.300000 -0.500000 -0.200000
v 0.300000 -0.100000 -0.200000
v -0.300000 -0.500000 -0.200000
v -0.300000 -0.100000 -0.200000
v -0.500000 -0.500000 -0.100000
v -0.500000 -0.100000 -0.100000
v 0.500000 -0.500000 -0.100000
v 0.500000 -0.100000 -0.100000
v -0.500000 -0.100000 -0.100000
v -0.500000 0.100000 -0.100000
v 0.500000 -0.100000 -0.100000
v 0.500000 0.100000 -0.100000
v 0.500000 0.100000 0.100000
v 0.500000 0.500000 0.100000
v -0.500000 0.100000 0.100000
v -0.500000 0.500000 0.100000
v -0.300000 0.100000 -0.200000
v 0.100000 0.100000 -0.200000
v -0.300000 -0.300000 -0.200000
v 0.100000 -0.300000 -0.200000
v 0.100000 -0.300000 -0.200000
v 0.300000 -0.300000 -0.200000
v 0.300000 0.100000 -0.200000
v 0.300000 -0.100000 -0.200000
v 0.500000 -0.300000 -0.100000
v 0.500000 0.100000 -0.100000
v -0.500000 -0.300000 -0.100000
v -0.500000 0.100000 -0.100000
v 0.500000 -0.300000 0.300000
v 0.500000 0.100000 0.300000
v -0.500000 -0.300000 0.300000
v -0.500000 0.100000 0.300000
v -0.500000 -0.300000 -0.100000
v -0.500000 -0.300000 0.300000
v 0.500000 -0.300000 -0.100000
v 0.500000 -0.300000 0.300000
v -0.500000 -0.500000 -0.100000
v -0.500000 -0.500000 0.300000
v 0.500000 -0.500000 -0.100000
v 0.500000 -0.500000 0.300000
v -0.500000 0.500000 0.300000
v -0.500000 0.100000 0.300000
v 0.500000 0.500000 0.300000
v 0.500000 0.100000 0.300000
v -0.500000 0.500000 0.100000
v -0.500000 0.100000 0.100000
v 0.500000 0.500000 0.100000
v 0.500000 0.100000 0.100000
v -0.500000 -0.100000 0.500000
v -0.500000 -0.500000 0.500000
v 0.500000 -0.100000 0.500000
v 0.500000 -0.500000 0.500000
v -0.500000 -0.100000 0.300000
v -0.500000 -0.500000 0.300000
v 0.500000 -0.100000 0.300000
v 0.500000 -0.500000 0.300000
v -0.500000 0.300000 0.500000
v -0.500000 -0.100000 0.500000
v 0.500000 0.300000 0.500000
v 0.500000 -0.100000 0.500000
v -0.500000 0.300000 0.300000
v -0.500000 -0.100000 0.300000
v 0.500000 0.300000 0.300000
v 0.500000 -0.100000 0.300000
v -0.500000 0.300000 0.300000
v -0.500000 0.500000 0.300000
v 0.500000 0.300000 0.300000
v 0.500000 0.500000 0.300000
v -0.500000 0.300000 0.500000
v -0.500000 0.500000 0.500000
v 0.500000 0.300000 0.500000
v 0.500000 0.500000 0.500000
v -0.100000 -0.500000 0.500000
v 0.300000 -0.500000 0.500000
v -0.100000 -0.100000 0.500000
v 0.300000 -0.100000 0.500000
v 0.300000 -0.500000 0.500000
v 0.500000 -0.500000 0.500000
v 0.300000 -0.100000 0.500000
v 0.500000 -0.100000 0.500000
v 0.300000 0.300000 0.500000
v 0.500000 0.300000 0.500000
v 0.300000 0.500000 0.500000
v 0.500000 0.500000 0.500000
v -0.500000 -0.500000 0.500000
v -0.100000 -0.500000 0.500000
v -0.500000 -0.100000 0.500000
v -0.100000 -0.100000 0.500000
v -0.100000 0.500000 0.500000
v -0.100000 0.300000 0.500000
v 0.300000 0.500000 0.500000
v 0.300000 0.300000 0.500000
v 0.100000 -0.100000 0.500000
v 0.500000 -0.100000 0.500000
v 0.100000 0.300000 0.500000
v 0.500000 0.300000 0.500000
v -0.300000 -0.100000 0.500000
v 0.100000 -0.100000 0.500000
v -0.300000 0.300000 0.500000
v 0.100000 0.300000 0.500000
v -0.500000 -0.100000 0.500000
v -0.300000 -0.100000 0.500000
v -0.500000 0.300000 0.500000
v -0.300000 0.300000 0.500000
v -0.500000 0.500000 0.500000
v -0.500000 0.300000 0.500000
v -0.100000 0.500000 0.500000
v -0.100000 0.300000 0.500000
v 0.100000 -0.500000 -0.300000
v 0.100000 -0.300000 -0.300000
v -0.300000 -0.500000 -0.300000
v -0.300000 -0.300000 -0.300000
v 0.100000 0.500000 -0.300000
v -0.300000 0.500000 -0.300000
v 0.100000 0.100000 -0.300000
v -0.300000 0.100000 -0.300000
v -0.502252 0.500000 0.513315
v -0.502252 0.600000 0.513315
v -0.502252 0.500000 -0.370548
v -0.502252 0.600000 -0.370548
v 0.500000 0.500000 0.513315
v 0.500000 0.600000 0.513315
v 0.500000 0.500000 -0.370548
v 0.500000 0.600000 -0.370548
v -0.502252 0.500000 0.513315
v -0.502252 0.500000 -0.370548
v 0.500000 0.500000 0.513315
v 0.500000 0.500000 -0.370548
vt 0.333333 0.857143
vt 0.166667 0.857143
vt 0.166667 0.785714
vt 0.333333 0.785714
vt 0.333333 0.571429
vt -0.000000 0.571429
vt -0.000000 0.714286
vt 0.333333 0.714286
vt 0.333333 0.428571
vt -0.000000 0.428571
vt 0.666667 0.446429
vt 0.666667 0.732143
vt 1.000000 0.732143
vt 1.000000 0.446429
vt -0.000000 0.857143
vt 0.166667 0.714286
vt -0.000000 1.000000
vt 0.166667 1.000000
vt 0.666667 0.714286
vt 0.666667 0.571429
vt 0.666667 0.428571
vt 0.666667 0.500000
vt 0.333333 0.500000
vt 0.333333 0.642857
vt 0.666667 0.642857
vt 1.000000 0.428571
vt 1.000000 0.714286
vt 0.083333 0.857143
vt 0.083333 0.714286
vt 0.666456 0.714015
vt 0.666456 0.143308
vt 0.832913 0.143308
vt 0.832912 0.714015
vt 0.166667 0.875000
vt 0.250000 0.714286
vt 0.250000 0.875000
vt 0.666667 1.000000
vt 0.333333 1.000000
vt 1.000000 1.000000
vt 0.833333 0.071429
vt 0.000000 0.071429
vt -0.000000 0.000000
vt 0.833333 0.000000
vt 0.833333 0.142857
vt 0.000000 0.142857
vt 0.916667 0.142857
vt 0.916667 0.428571
vt 0.083333 0.428571
vt 0.083333 0.142857
vn 0.000000 1.000000 0.000000
vn 0.000000 -0.000000 -1.000000
vn 1.000000 0.000000 0.000000
vn -1.000000 0.000000 0.000000
vn 0.000000 -1.000000 0.000000
vn 0.000000 0.000000 1.000000
g Adaridge_C_M_T_Plane.002_None
s off
f 41/1/1 42/2/1 69/3/1 70/4/1
f 8/5/2 6/6/2 5/7/2 7/8/2
f 11/9/2 4/10/2 2/6/2 9/5/2
f 16/5/2 14/6/2 13/7/2 15/8/2
f 17/11/2 19/12/2 20/13/2 18/14/2
f 21/6/2 23/5/2 24/9/2 22/10/2
f 25/7/2 27/15/2 28/2/2 26/16/2
f 29/17/2 31/18/2 32/2/2 30/15/2
f 33/8/2 35/19/2 36/20/2 34/5/2
f 37/5/2 39/6/2 40/7/2 38/8/2
f 44/16/2 42/2/2 41/1/2 43/8/2
f 7/9/3 5/21/3 52/22/3 51/23/3
f 158/19/1 160/8/1 67/24/1 68/25/1
f 37/26/3 39/27/3 64/19/3 63/21/3
f 32/2/3 60/16/3 59/7/3 30/15/3
f 12/8/3 56/5/3 55/6/3 10/7/3
f 1/9/3 3/21/3 54/20/3 53/5/3
f 36/27/3 62/26/3 61/21/3 34/19/3
f 25/16/3 27/2/3 58/15/3 57/7/3
f 26/16/3 28/2/3 45/28/3 46/29/3
f 14/30/4 16/31/4 49/32/4 50/33/4
f 31/34/4 29/16/4 72/35/4 71/36/4
f 164/9/5 163/21/5 66/22/5 65/23/5
f 21/16/5 22/8/5 47/4/5 48/3/5
f 75/8/3 76/19/3 80/37/3 79/38/3
f 74/37/3 78/19/3 77/8/3 73/38/3
f 84/19/3 88/20/3 87/5/3 83/8/3
f 81/6/3 82/5/3 86/8/3 85/7/3
f 92/5/3 96/8/3 95/19/3 91/20/3
f 89/5/3 90/20/3 94/19/3 93/8/3
f 100/5/3 104/9/3 103/10/3 99/6/3
f 97/21/3 98/9/3 102/5/3 101/20/3
f 108/20/3 112/21/3 111/9/3 107/5/3
f 105/20/3 106/5/3 110/9/3 109/21/3
f 116/1/3 120/8/3 119/16/3 115/2/3
f 113/8/3 114/1/3 118/2/3 117/16/3
f 121/8/2 123/38/2 124/37/2 122/19/2
f 125/6/2 127/5/2 128/9/2 126/10/2
f 129/2/2 131/18/2 132/38/2 130/1/2
f 133/37/2 135/39/2 136/27/2 134/19/2
f 137/8/2 139/19/2 140/20/2 138/5/2
f 141/19/2 143/37/2 144/39/2 142/27/2
f 145/11/2 147/12/2 148/13/2 146/14/2
f 149/7/2 151/8/2 152/5/2 150/6/2
f 153/5/2 155/20/2 156/21/2 154/9/2
f 160/8/2 158/19/2 157/20/2 159/5/2
f 164/26/2 162/21/2 161/19/2 163/27/2
f 166/40/4 168/41/4 167/42/4 165/43/4
f 168/42/2 172/43/2 171/40/2 167/41/2
f 172/41/3 170/40/3 169/44/3 171/45/3
f 170/44/6 166/45/6 165/41/6 169/40/6
f 170/46/1 172/47/1 168/48/1 166/49/1
f 175/46/1 176/47/1 174/48/1 173/49/1
