# Blender v2.76 (sub 1) OBJ File: 'Adaridge_walls.blend'
# www.blender.org
o Adaridge_C_IC_T_Plane.008
v -0.500000 0.600000 0.500000
v 0.500000 0.600000 0.500000
v -0.500000 0.600000 -0.500000
v 0.500000 0.600000 -0.500000
v -0.500000 0.500000 -0.500000
v -0.500000 0.500000 0.500000
v 0.500000 0.500000 0.500000
v 0.500000 0.500000 -0.500000
v 0.500000 0.500000 -0.500000
v 0.100000 0.500000 -0.500000
v 0.500000 0.100000 -0.500000
v 0.100000 0.100000 -0.500000
v 0.100000 0.300000 -0.500000
v 0.100000 0.500000 -0.500000
v -0.300000 0.300000 -0.500000
v -0.300000 0.500000 -0.500000
v -0.300000 0.100000 -0.500000
v -0.500000 0.100000 -0.500000
v -0.300000 -0.100000 -0.500000
v -0.500000 -0.100000 -0.500000
v -0.100000 -0.100000 -0.500000
v -0.500000 -0.100000 -0.500000
v -0.100000 -0.500000 -0.500000
v -0.500000 -0.500000 -0.500000
v -0.100000 -0.100000 -0.500000
v 0.100000 -0.100000 -0.500000
v -0.100000 0.300000 -0.500000
v 0.100000 0.300000 -0.500000
v 0.500000 -0.100000 -0.500000
v 0.500000 0.100000 -0.500000
v 0.100000 -0.100000 -0.500000
v 0.100000 0.100000 -0.500000
v 0.300000 -0.500000 -0.500000
v 0.500000 -0.500000 -0.500000
v 0.300000 -0.100000 -0.500000
v 0.500000 -0.100000 -0.500000
v 0.300000 -0.100000 -0.500000
v -0.100000 -0.100000 -0.500000
v 0.300000 -0.500000 -0.500000
v -0.100000 -0.500000 -0.500000
v -0.300000 -0.100000 -0.500000
v -0.100000 -0.100000 -0.500000
v -0.300000 0.300000 -0.500000
v -0.100000 0.300000 -0.500000
v -0.500000 0.100000 -0.500000
v -0.300000 0.100000 -0.500000
v -0.500000 0.500000 -0.500000
v -0.300000 0.500000 -0.500000
v 0.500000 0.500000 0.500000
v 0.500000 0.500000 0.100000
v 0.500000 0.100000 0.500000
v 0.500000 0.100000 0.100000
v 0.500000 -0.100000 -0.100000
v 0.500000 0.100000 -0.100000
v 0.500000 -0.100000 -0.500000
v 0.500000 0.100000 -0.500000
v 0.500000 0.500000 0.100000
v 0.500000 0.500000 -0.100000
v 0.500000 0.300000 0.100000
v 0.500000 0.300000 -0.100000
v 0.500000 -0.100000 -0.100000
v 0.500000 -0.100000 -0.500000
v 0.500000 -0.500000 -0.100000
v 0.500000 -0.500000 -0.500000
v 0.500000 -0.100000 -0.100000
v 0.500000 -0.100000 0.100000
v 0.500000 0.300000 -0.100000
v 0.500000 0.300000 0.100000
v 0.500000 -0.100000 0.500000
v 0.500000 0.100000 0.500000
v 0.500000 -0.100000 0.100000
v 0.500000 0.100000 0.100000
v 0.500000 -0.500000 0.300000
v 0.500000 -0.500000 0.500000
v 0.500000 -0.100000 0.300000
v 0.500000 -0.100000 0.500000
v 0.500000 -0.100000 0.300000
v 0.500000 -0.100000 -0.100000
v 0.500000 -0.500000 0.300000
v 0.500000 -0.500000 -0.100000
v 0.500000 0.100000 -0.300000
v 0.500000 0.100000 -0.100000
v 0.500000 0.500000 -0.300000
v 0.500000 0.500000 -0.100000
v 0.500000 0.100000 -0.500000
v 0.500000 0.100000 -0.300000
v 0.500000 0.500000 -0.500000
v 0.500000 0.500000 -0.300000
v -0.500000 0.300000 0.500000
v -0.100000 0.300000 0.500000
v -0.500000 -0.100000 0.500000
v -0.100000 -0.100000 0.500000
v 0.100000 -0.100000 0.500000
v 0.100000 0.100000 0.500000
v 0.500000 -0.100000 0.500000
v 0.500000 0.100000 0.500000
v -0.100000 0.500000 0.500000
v 0.100000 0.500000 0.500000
v -0.100000 0.300000 0.500000
v 0.100000 0.300000 0.500000
v 0.100000 0.500000 0.500000
v 0.500000 0.500000 0.500000
v 0.100000 0.100000 0.500000
v 0.500000 0.100000 0.500000
v 0.100000 -0.100000 0.500000
v -0.100000 -0.100000 0.500000
v 0.100000 0.300000 0.500000
v -0.100000 0.300000 0.500000
v -0.500000 0.300000 0.500000
v -0.500000 0.500000 0.500000
v -0.100000 0.300000 0.500000
v -0.100000 0.500000 0.500000
v -0.300000 -0.500000 0.500000
v -0.500000 -0.500000 0.500000
v -0.300000 -0.100000 0.500000
v -0.500000 -0.100000 0.500000
v -0.300000 -0.100000 0.500000
v 0.100000 -0.100000 0.500000
v -0.300000 -0.500000 0.500000
v 0.100000 -0.500000 0.500000
v 0.300000 -0.500000 0.500000
v 0.100000 -0.500000 0.500000
v 0.300000 -0.100000 0.500000
v 0.100000 -0.100000 0.500000
v 0.500000 -0.500000 0.500000
v 0.300000 -0.500000 0.500000
v 0.500000 -0.100000 0.500000
v 0.300000 -0.100000 0.500000
v -0.500000 0.500000 -0.500000
v -0.500000 0.500000 -0.100000
v -0.500000 0.100000 -0.500000
v -0.500000 0.100000 -0.100000
v -0.500000 0.300000 -0.100000
v -0.500000 0.500000 -0.100000
v -0.500000 0.300000 0.300000
v -0.500000 0.500000 0.300000
v -0.500000 0.500000 0.300000
v -0.500000 0.500000 0.500000
v -0.500000 0.300000 0.300000
v -0.500000 0.300000 0.500000
v -0.500000 0.300000 0.100000
v -0.500000 0.300000 0.500000
v -0.500000 -0.100000 0.100000
v -0.500000 -0.100000 0.500000
v -0.500000 -0.100000 0.100000
v -0.500000 -0.100000 -0.100000
v -0.500000 0.300000 0.100000
v -0.500000 0.300000 -0.100000
v -0.500000 -0.100000 -0.500000
v -0.500000 0.100000 -0.500000
v -0.500000 -0.100000 -0.100000
v -0.500000 0.100000 -0.100000
v -0.500000 -0.500000 -0.300000
v -0.500000 -0.500000 -0.500000
v -0.500000 -0.100000 -0.300000
v -0.500000 -0.100000 -0.500000
v -0.500000 -0.100000 -0.300000
v -0.500000 -0.100000 0.100000
v -0.500000 -0.500000 -0.300000
v -0.500000 -0.500000 0.100000
v -0.500000 -0.500000 0.300000
v -0.500000 -0.500000 0.100000
v -0.500000 -0.100000 0.300000
v -0.500000 -0.100000 0.100000
v -0.500000 -0.500000 0.500000
v -0.500000 -0.500000 0.300000
v -0.500000 -0.100000 0.500000
v -0.500000 -0.100000 0.300000
vt 0.083333 0.428571
vt 0.916667 0.428571
vt 0.916667 0.142857
vt 0.083333 0.142857
vt 0.833333 0.071429
vt 0.833333 0.142857
vt -0.000000 0.142857
vt -0.000000 0.071429
vt 0.833333 0.000000
vt 0.000000 0.000000
vt 0.333333 0.714286
vt 0.333333 1.000000
vt 0.666667 1.000000
vt 0.666667 0.714286
vt 0.333333 0.571429
vt 0.666667 0.571429
vt 0.666667 0.428571
vt 0.333333 0.428571
vt -0.000000 0.857143
vt 0.166667 0.857143
vt 0.166667 0.714286
vt -0.000000 0.714286
vt 1.000000 1.000000
vt 1.000000 0.714286
vt 0.000000 0.571429
vt 0.000000 0.428571
vt 1.000000 0.428571
vt 0.333333 0.857143
vt -0.000000 1.000000
vt 0.166667 1.000000
vn 0.000000 1.000000 0.000000
vn 0.000000 0.000000 -1.000000
vn 1.000000 0.000000 0.000000
vn 0.000000 -0.000000 1.000000
vn -1.000000 0.000000 0.000000
g Adaridge_C_IC_T_Plane.008_None
s off
f 1/1/1 2/2/1 4/3/1 3/4/1
f 4/5/2 8/6/2 5/7/2 3/8/2
f 1/8/2 2/5/2 7/9/2 6/10/2
f 2/8/3 7/10/3 8/9/3 4/5/3
f 3/5/3 1/8/3 6/7/3 5/6/3
f 9/11/2 11/12/2 12/13/2 10/14/2
f 13/15/2 15/16/2 16/17/2 14/18/2
f 17/19/2 19/20/2 20/21/2 18/22/2
f 21/14/2 23/13/2 24/23/2 22/24/2
f 25/25/2 27/15/2 28/18/2 26/26/2
f 29/11/2 31/14/2 32/16/2 30/15/2
f 33/15/2 35/16/2 36/17/2 34/18/2
f 37/17/2 39/14/2 40/24/2 38/27/2
f 41/22/2 43/11/2 44/15/2 42/25/2
f 45/11/2 47/14/2 48/16/2 46/15/2
f 49/17/3 51/14/3 52/24/3 50/27/3
f 53/11/3 55/14/3 56/16/3 54/15/3
f 57/20/3 59/28/3 60/11/3 58/21/3
f 61/11/3 63/12/3 64/13/3 62/14/3
f 65/11/3 67/14/3 68/16/3 66/15/3
f 69/15/3 71/16/3 72/17/3 70/18/3
f 73/11/3 75/14/3 76/16/3 74/15/3
f 77/14/3 79/13/3 80/23/3 78/24/3
f 81/25/3 83/15/3 84/18/3 82/26/3
f 85/11/3 87/14/3 88/16/3 86/15/3
f 89/11/4 91/12/4 92/13/4 90/14/4
f 93/15/4 95/25/4 96/22/4 94/11/4
f 97/29/4 99/30/4 100/20/4 98/19/4
f 101/14/4 103/13/4 104/23/4 102/24/4
f 105/17/4 107/18/4 108/15/4 106/16/4
f 109/25/4 111/15/4 112/18/4 110/26/4
f 113/22/4 115/11/4 116/15/4 114/25/4
f 117/17/4 119/14/4 120/24/4 118/27/4
f 121/15/4 123/16/4 124/17/4 122/18/4
f 125/11/4 127/14/4 128/16/4 126/15/4
f 129/11/5 131/12/5 132/13/5 130/14/5
f 133/11/5 135/14/5 136/16/5 134/15/5
f 137/30/5 139/12/5 140/28/5 138/20/5
f 141/17/5 143/14/5 144/24/5 142/27/5
f 145/15/5 147/16/5 148/17/5 146/18/5
f 149/22/5 151/11/5 152/15/5 150/25/5
f 153/16/5 155/15/5 156/11/5 154/14/5
f 157/14/5 159/13/5 160/23/5 158/24/5
f 161/25/5 163/15/5 164/18/5 162/26/5
f 165/15/5 167/16/5 168/17/5 166/18/5
g Adaridge_C_IC_T_Plane.008_None_NONE
f 6/10/1 7/10/1 8/10/1 5/10/1
