# Blender v2.74 (sub 0) OBJ File: 'Walls.blend'
# www.blender.org
o Block1_M_T_Cube.021
v 0.495239 0.499740 0.048449
v 0.495239 0.499740 0.513806
v -0.498806 0.499740 0.513806
v -0.498806 0.499740 0.048449
v 0.495239 0.600283 0.048449
v 0.495239 0.600283 0.513806
v -0.498806 0.600283 0.513806
v -0.498806 0.600283 0.048449
v 1.001194 0.000000 0.190548
v 1.001194 0.000000 0.498638
v 0.001194 0.000000 0.498638
v 0.001194 0.000000 0.190548
v 1.001194 0.500000 0.190548
v 1.001194 0.500000 0.498638
v 0.001194 0.500000 0.498638
v 0.001194 0.500000 0.190548
v 0.817861 0.500000 0.498638
v 0.184527 0.500000 0.498638
v 0.184527 0.000000 0.498638
v 0.817861 0.000000 0.498638
v 0.184527 0.500000 0.090548
v 0.817860 0.500000 0.090548
v 0.817860 0.000000 0.090548
v 0.184527 0.000000 0.090548
v 0.501194 -0.500000 0.093245
v 0.501194 -0.500000 0.401335
v -0.498806 -0.500000 0.401335
v -0.498806 -0.500000 0.093245
v 0.501194 0.000000 0.093245
v 0.501194 0.000000 0.401335
v -0.498806 0.000000 0.401335
v -0.498806 0.000000 0.093245
v 0.317861 0.000000 0.401335
v -0.315473 0.000000 0.401335
v -0.315473 -0.500000 0.401335
v 0.317861 -0.500000 0.401335
v -0.315473 0.000000 -0.006755
v 0.317861 0.000000 -0.006755
v 0.317861 -0.500000 -0.006755
v -0.315473 -0.500000 -0.006755
vt 0.307895 0.520103
vt 0.307895 0.062841
vt 0.404094 0.062841
vt 0.404094 0.520103
vt 0.658276 0.025493
vt 0.658276 0.975907
vt 0.562077 0.975907
vt 0.562077 0.025493
vt 0.431920 0.882196
vt 0.431920 0.424934
vt 0.528119 0.424934
vt 0.528119 0.882196
vt 0.583580 0.018024
vt 0.583580 0.968438
vt 0.487381 0.968438
vt 0.487381 0.018024
vt 0.698606 0.968438
vt 0.241014 0.968438
vt 0.241014 0.018024
vt 0.698606 0.018024
vt 0.248483 0.034739
vt 0.706076 0.034739
vt 0.706076 0.985153
vt 0.248484 0.985153
vt 0.048495 0.478886
vt 0.351445 0.478886
vt 0.351445 0.956940
vt 0.048495 0.956940
vt 0.043270 0.207440
vt 0.043270 0.032153
vt 0.521668 0.032153
vt 0.521668 0.207440
vt 0.481831 0.723785
vt 0.178881 0.723785
vt 0.178881 0.245731
vt 0.481831 0.245731
vt 0.531430 0.790565
vt 0.932712 0.790565
vt 0.932712 0.965852
vt 0.629762 0.965852
vt 0.970060 0.207440
vt 0.568778 0.207440
vt 0.568778 0.032153
vt 0.871728 0.032153
vt 0.043270 0.988261
vt 0.043270 0.812974
vt 0.521669 0.812974
vt 0.521669 0.988261
vt 0.629762 0.009744
vt 0.932712 0.009744
vt 0.932712 0.185031
vt 0.531430 0.185031
vt 0.871728 0.988261
vt 0.568778 0.988261
vt 0.568778 0.812974
vt 0.970060 0.812974
vt 0.686345 0.999282
vt 0.989294 0.999282
vt 0.989295 1.477336
vt 0.686345 1.477336
vt 0.543732 0.805505
vt 0.543732 0.980791
vt 0.065333 0.980791
vt 0.065333 0.805505
vt 0.771058 0.821345
vt 0.468108 0.821345
vt 0.468108 0.343291
vt 0.771058 0.343291
vt 0.960298 0.199970
vt 0.559017 0.199970
vt 0.559017 0.024684
vt 0.861966 0.024684
vt 0.945014 0.805505
vt 0.945014 0.980791
vt 0.642064 0.980791
vt 0.543732 0.024684
vt 0.543732 0.199970
vt 0.065333 0.199970
vt 0.065333 0.024684
vt 0.861966 0.980791
vt 0.559017 0.980791
vt 0.559017 0.805505
vt 0.960298 0.805505
vt 0.642064 0.024684
vt 0.945013 0.024684
vt 0.945014 0.199970
vt 0.984949 0.805553
vt 0.984949 0.984262
vt 0.497211 0.984262
vt 0.497211 0.805553
vt 0.984949 0.009488
vt 0.984949 0.188197
vt 0.497211 0.188197
vt 0.497211 0.009489
vt 0.690722 0.805553
vt 0.690722 0.984261
vt 0.202984 0.984262
vt 0.202984 0.805553
vt 0.690722 0.009488
vt 0.690722 0.188197
vt 0.202984 0.188197
vt 0.202984 0.009489
vn 1.000000 0.000000 -0.000000
vn 0.000000 0.000000 1.000000
vn -1.000000 0.000000 0.000000
vn -0.000000 0.000000 -1.000000
vn 0.000000 -1.000000 0.000000
vn 0.000000 1.000000 -0.000000
vn 0.478900 0.000000 -0.877900
vn -0.478900 0.000000 -0.877900
g Block1_M_T_Cube.021_Top
s off
f 5/1/1 6/2/1 2/3/1 1/4/1
f 6/5/2 7/6/2 3/7/2 2/8/2
f 7/9/3 8/10/3 4/11/3 3/12/3
f 8/13/4 5/14/4 1/15/4 4/16/4
f 1/17/5 2/18/5 3/19/5 4/20/5
f 8/21/6 7/22/6 6/23/6 5/24/6
f 13/25/1 14/26/1 10/27/1 9/28/1
f 18/29/2 15/30/2 11/31/2 19/32/2
f 15/33/3 16/34/3 12/35/3 11/36/3
f 24/37/5 19/38/5 11/39/5 12/40/5
f 22/41/6 17/42/6 14/43/6 13/44/6
f 14/45/2 17/46/2 20/47/2 10/48/2
f 17/46/2 18/29/2 19/32/2 20/47/2
f 9/49/5 10/50/5 20/51/5 23/52/5
f 23/52/5 20/51/5 19/38/5 24/37/5
f 16/53/6 15/54/6 18/55/6 21/56/6
f 21/56/6 18/55/6 17/42/6 22/41/6
f 29/57/1 30/58/1 26/59/1 25/60/1
f 34/61/2 31/62/2 27/63/2 35/64/2
f 31/65/3 32/66/3 28/67/3 27/68/3
f 40/69/5 35/70/5 27/71/5 28/72/5
f 38/61/6 33/73/6 30/74/6 29/75/6
f 30/76/2 33/77/2 36/78/2 26/79/2
f 33/77/2 34/61/2 35/64/2 36/78/2
f 25/80/5 26/81/5 36/82/5 39/83/5
f 39/83/5 36/82/5 35/70/5 40/69/5
f 32/84/6 31/85/6 34/86/6 37/77/6
f 37/77/6 34/86/6 33/73/6 38/61/6
g Block1_M_T_Cube.021_Face
f 22/87/7 13/88/7 9/89/7 23/90/7
f 16/91/8 21/92/8 24/93/8 12/94/8
f 21/92/4 22/87/4 23/90/4 24/93/4
f 38/95/7 29/96/7 25/97/7 39/98/7
f 32/99/8 37/100/8 40/101/8 28/102/8
f 37/100/4 38/95/4 39/98/4 40/101/4
