# Blender v2.74 (sub 0) OBJ File: 'Walls.blend'
# www.blender.org
o Block1_F_T_Cube.009
v 0.492888 0.500749 0.043985
v 0.492888 0.500749 0.509342
v -0.501157 0.500749 0.509342
v -0.501157 0.500749 0.043986
v 0.492888 0.600202 0.043985
v 0.492888 0.600202 0.509342
v -0.501157 0.600202 0.509342
v -0.501157 0.600202 0.043986
v -0.501157 -0.000000 0.086084
v -0.501157 0.500000 0.086084
v -0.501157 -0.000000 0.494174
v -0.501157 0.500000 0.494174
v -0.001157 -0.000000 0.494174
v -0.001157 -0.000000 0.186084
v -0.001157 0.500000 0.494174
v -0.001157 0.500000 0.186084
v 0.182176 0.500000 0.494174
v 0.182176 -0.000000 0.494174
v 0.182176 0.500000 0.086084
v 0.182176 -0.000000 0.086084
v 0.498843 -0.500000 0.088781
v 0.498843 -0.500000 0.396871
v -0.501157 -0.500000 0.396871
v -0.501157 -0.500000 0.088781
v 0.498843 -0.000000 0.088781
v 0.498843 -0.000000 0.396871
v -0.501157 -0.000000 0.396871
v -0.501157 -0.000000 0.088781
v 0.315509 -0.000000 0.396871
v -0.317824 -0.000000 0.396871
v -0.317824 -0.500000 0.396871
v 0.315509 -0.500000 0.396871
v -0.317824 -0.000000 -0.011219
v 0.315509 -0.000000 -0.011219
v 0.315509 -0.500000 -0.011219
v -0.317824 -0.500000 -0.011219
v -0.001157 -0.000000 0.186084
v -0.001157 -0.000000 0.494174
v -0.001157 0.500000 0.186084
v -0.001157 0.500000 0.494174
v -0.184491 0.500000 0.494174
v -0.184491 -0.000000 0.494174
v -0.184491 0.500000 0.086084
v -0.184491 -0.000000 0.086084
v 0.498843 0.500000 0.494174
v 0.498843 -0.000000 0.494174
v 0.498843 0.500000 0.086084
v 0.498843 -0.000000 0.086084
vt 0.640066 0.556974
vt 0.640066 0.185360
vt 0.717926 0.185360
vt 0.717926 0.556974
vt 0.641384 0.775150
vt 0.641383 0.002754
vt 0.719244 0.002754
vt 0.719244 0.775150
vt 0.639198 0.575142
vt 0.639198 0.203528
vt 0.717059 0.203528
vt 0.717059 0.575142
vt 0.721617 -0.000023
vt 0.721617 0.772373
vt 0.643756 0.772373
vt 0.643756 -0.000023
vt 0.479781 0.979226
vt 0.014465 0.979226
vt 0.014464 0.019315
vt 0.479781 0.019315
vt 0.493523 0.979226
vt 0.028206 0.979226
vt 0.028206 0.019315
vt 0.493523 0.019315
vt 0.552652 0.211458
vt 0.947632 0.211458
vt 0.947632 0.507451
vt 0.552652 0.507451
vt 0.024349 0.317073
vt 0.024349 0.011281
vt 0.510823 0.011281
vt 0.510824 0.317073
vt 0.949855 0.488268
vt 0.554876 0.488268
vt 0.554876 0.020910
vt 0.949855 0.020910
vt 0.510823 0.799904
vt 0.510823 0.976942
vt 0.024349 0.976942
vt 0.024349 0.799904
vt 0.950170 0.676589
vt 0.555190 0.676589
vt 0.555190 0.505225
vt 0.853382 0.505225
vt 0.510823 0.494111
vt 0.024349 0.494111
vt 0.950170 0.972583
vt 0.555190 0.972583
vt 0.683517 0.526827
vt 0.979001 0.526827
vt 0.979001 0.989940
vt 0.683517 0.989940
vt 0.499118 0.199836
vt 0.499118 0.028471
vt 0.970003 0.028471
vt 0.970004 0.199836
vt 0.689845 0.526826
vt 0.985329 0.526826
vt 0.985329 0.989940
vt 0.689845 0.989940
vt 0.546636 0.800105
vt 0.941616 0.800105
vt 0.941616 0.971470
vt 0.643424 0.971470
vt 0.547905 0.807390
vt 0.942885 0.807390
vt 0.942885 0.978755
vt 0.644693 0.978755
vt 0.499118 0.963188
vt 0.499118 0.791823
vt 0.970004 0.791823
vt 0.970004 0.963188
vt 0.643423 0.036753
vt 0.941616 0.036753
vt 0.941616 0.208118
vt 0.546636 0.208118
vt 0.644692 0.044038
vt 0.942885 0.044038
vt 0.942885 0.215403
vt 0.547905 0.215403
vt 0.649439 0.040093
vt 0.947632 0.040093
vt 0.224882 0.507068
vt 0.224882 0.326398
vt 0.721339 0.326398
vt 0.721339 0.507068
vt 0.724768 0.815143
vt 0.724768 0.995814
vt 0.228311 0.995814
vt 0.228311 0.815143
vt 0.724768 0.010338
vt 0.724768 0.191008
vt 0.228311 0.191008
vt 0.228311 0.010338
vt 0.224882 0.681643
vt 0.224882 0.500972
vt 0.721339 0.500972
vt 0.721339 0.681643
vt 0.224882 0.993710
vt 0.721339 0.993710
vt 0.224882 0.014331
vt 0.721339 0.014331
vt 0.257739 0.157252
vt 0.860063 0.157252
vt 0.860063 0.869950
vt 0.257739 0.869950
vn 1.000000 0.000000 -0.000000
vn 0.000000 0.000000 1.000000
vn -1.000000 0.000000 0.000000
vn -0.000000 0.000000 -1.000000
vn 0.000000 -1.000000 -0.000000
vn 0.000000 1.000000 -0.000000
vn -0.478900 0.000000 -0.877900
vn 0.478900 0.000000 -0.877900
g Block1_F_T_Cube.009_Top
s off
f 5/1/1 6/2/1 2/3/1 1/4/1
f 6/5/2 7/6/2 3/7/2 2/8/2
f 7/9/3 8/10/3 4/11/3 3/12/3
f 8/13/4 5/14/4 1/15/4 4/16/4
f 1/17/5 2/18/5 3/19/5 4/20/5
f 8/21/6 7/22/6 6/23/6 5/24/6
f 44/25/5 42/26/5 11/27/5 9/28/5
f 41/29/2 12/30/2 11/31/2 42/32/2
f 9/33/3 11/34/3 12/35/3 10/36/3
f 17/37/2 15/38/2 13/39/2 18/40/2
f 20/41/5 18/42/5 13/43/5 14/44/5
f 45/45/2 17/37/2 18/40/2 46/46/2
f 48/47/5 46/48/5 18/42/5 20/41/5
f 25/49/1 26/50/1 22/51/1 21/52/1
f 30/53/2 27/54/2 23/55/2 31/56/2
f 27/57/3 28/58/3 24/59/3 23/60/3
f 36/61/5 31/62/5 23/63/5 24/64/5
f 34/65/6 29/66/6 26/67/6 25/68/6
f 26/69/2 29/70/2 32/71/2 22/72/2
f 29/70/2 30/53/2 31/56/2 32/71/2
f 21/73/5 22/74/5 32/75/5 35/76/5
f 35/76/5 32/75/5 31/62/5 36/61/5
f 28/77/6 27/78/6 30/79/6 33/80/6
f 33/80/6 30/79/6 29/66/6 34/65/6
f 40/46/2 41/29/2 42/32/2 38/45/2
f 37/81/5 38/82/5 42/26/5 44/25/5
g Block1_F_T_Cube.009_Top_mylandscaping_block_face.png
f 16/83/7 19/84/7 20/85/7 14/86/7
f 34/87/8 25/88/8 21/89/8 35/90/8
f 28/91/7 33/92/7 36/93/7 24/94/7
f 33/92/4 34/87/4 35/90/4 36/93/4
f 43/95/8 39/96/8 37/97/8 44/98/8
f 10/99/4 43/95/4 44/98/4 9/100/4
f 19/84/4 47/101/4 48/102/4 20/85/4
g Block1_F_T_Cube.009_Top_mylandscaping_block_top_1.png
f 47/103/1 45/104/1 46/105/1 48/106/1
