# Blender v2.74 (sub 0) OBJ File: 'Walls.blend'
# www.blender.org
o Block1_F_B_Cube.010
v -0.501157 -0.000000 -0.113916
v -0.501157 0.500000 -0.113916
v -0.501157 -0.000000 0.294174
v -0.501157 0.500000 0.294174
v -0.001157 -0.000000 0.294174
v -0.001157 -0.000000 -0.013916
v -0.001157 0.500000 0.294174
v -0.001157 0.500000 -0.013916
v 0.182176 0.500000 0.294174
v 0.182176 -0.000000 0.294174
v 0.182176 0.500000 -0.113916
v 0.182176 -0.000000 -0.113916
v 0.498843 -0.500000 -0.111219
v 0.498843 -0.500000 0.196871
v -0.501157 -0.500000 0.196871
v -0.501157 -0.500000 -0.111219
v 0.498843 -0.000000 -0.111219
v 0.498843 -0.000000 0.196871
v -0.501157 -0.000000 0.196871
v -0.501157 -0.000000 -0.111219
v 0.315509 -0.000000 0.196871
v -0.317824 -0.000000 0.196871
v -0.317824 -0.500000 0.196871
v 0.315509 -0.500000 0.196871
v -0.317824 -0.000000 -0.211219
v 0.315509 -0.000000 -0.211219
v 0.315509 -0.500000 -0.211219
v -0.317824 -0.500000 -0.211219
v -0.001157 -0.000000 -0.013916
v -0.001157 -0.000000 0.294174
v -0.001157 0.500000 -0.013916
v -0.001157 0.500000 0.294174
v -0.184491 0.500000 0.294174
v -0.184491 -0.000000 0.294174
v -0.184491 0.500000 -0.113916
v -0.184491 -0.000000 -0.113916
v 0.498843 0.500000 0.294174
v 0.498843 -0.000000 0.294174
v 0.498843 0.500000 -0.113916
v 0.498843 -0.000000 -0.113916
vt 0.715648 0.812354
vt 0.354304 0.812354
vt 0.354304 0.504300
vt 0.715648 0.504300
vt 0.015340 0.806864
vt 0.015340 0.494611
vt 0.451998 0.494611
vt 0.451998 0.806864
vt 0.443319 0.153976
vt 0.874457 0.153976
vt 0.874457 0.734326
vt 0.443319 0.734326
vt 0.012708 0.191132
vt 0.012708 0.010353
vt 0.449367 0.010353
vt 0.449367 0.191132
vt 0.716817 0.212561
vt 0.355472 0.212561
vt 0.355472 0.034214
vt 0.628271 0.034214
vt 0.012708 0.503385
vt 0.449367 0.503385
vt 0.716817 0.520616
vt 0.355472 0.520616
vt 0.629569 0.969407
vt 0.356770 0.969407
vt 0.356770 0.791060
vt 0.718114 0.791060
vt 0.560876 0.247289
vt 0.886366 0.247289
vt 0.886366 0.827638
vt 0.560876 0.827638
vt 0.017600 0.188258
vt 0.017599 0.007480
vt 0.454258 0.007480
vt 0.454258 0.188258
vt 0.555118 0.246101
vt 0.880608 0.246101
vt 0.880608 0.826450
vt 0.555118 0.826450
vt 0.325934 0.817179
vt 0.687278 0.817180
vt 0.687278 0.995527
vt 0.414479 0.995527
vt 0.321692 0.817179
vt 0.683037 0.817179
vt 0.683037 0.995527
vt 0.410238 0.995527
vt 0.017600 0.993543
vt 0.017600 0.812765
vt 0.454258 0.812765
vt 0.454258 0.993543
vt 0.414479 0.022724
vt 0.687278 0.022724
vt 0.687278 0.201071
vt 0.325934 0.201071
vt 0.410238 0.022724
vt 0.683037 0.022724
vt 0.683037 0.201071
vt 0.321692 0.201071
vt 0.715648 0.196245
vt 0.354304 0.196245
vt 0.354304 0.017898
vt 0.627103 0.017898
vt 0.015340 0.987643
vt 0.451998 0.987643
vt 0.627103 0.990701
vt 0.354304 0.990701
vt 0.356770 0.483006
vt 0.718114 0.483006
vt 0.291577 0.995103
vt 0.291577 0.814914
vt 0.726812 0.814914
vt 0.726812 0.995103
vt 0.287630 0.187567
vt 0.287630 0.007378
vt 0.722865 0.007378
vt 0.722866 0.187567
vt 0.287630 0.990227
vt 0.287630 0.810038
vt 0.722866 0.810038
vt 0.722866 0.990227
vt 0.290265 0.190431
vt 0.290265 0.010242
vt 0.725501 0.010242
vt 0.725501 0.190431
vt 0.290265 0.501666
vt 0.725501 0.501666
vt 0.291577 0.503678
vt 0.726812 0.503678
vt 0.397799 0.103228
vt 0.914657 0.103228
vt 0.914657 0.798965
vt 0.397799 0.798965
vn 0.000000 -1.000000 0.000000
vn 0.000000 0.000000 1.000000
vn -1.000000 0.000000 0.000000
vn 0.000000 1.000000 -0.000000
vn 1.000000 0.000000 -0.000000
vn -0.478900 0.000000 -0.877900
vn 0.478900 0.000000 -0.877900
vn -0.000000 0.000000 -1.000000
g Block1_F_B_Cube.010_Material.001
s off
f 36/1/1 34/2/1 3/3/1 1/4/1
f 33/5/2 4/6/2 3/7/2 34/8/2
f 1/9/3 3/10/3 4/11/3 2/12/3
f 9/13/2 7/14/2 5/15/2 10/16/2
f 12/17/1 10/18/1 5/19/1 6/20/1
f 37/21/2 9/13/2 10/16/2 38/22/2
f 40/23/1 38/24/1 10/18/1 12/17/1
f 8/25/4 7/26/4 9/27/4 11/28/4
f 17/29/5 18/30/5 14/31/5 13/32/5
f 22/33/2 19/34/2 15/35/2 23/36/2
f 19/37/3 20/38/3 16/39/3 15/40/3
f 28/41/1 23/42/1 15/43/1 16/44/1
f 26/45/4 21/46/4 18/47/4 17/48/4
f 18/49/2 21/50/2 24/51/2 14/52/2
f 21/50/2 22/33/2 23/36/2 24/51/2
f 13/53/1 14/54/1 24/55/1 27/56/1
f 27/56/1 24/55/1 23/42/1 28/41/1
f 20/57/4 19/58/4 22/59/4 25/60/4
f 25/60/4 22/59/4 21/46/4 26/45/4
f 35/61/4 33/62/4 32/63/4 31/64/4
f 32/65/2 33/5/2 34/8/2 30/66/2
f 29/67/1 30/68/1 34/2/1 36/1/1
f 2/4/4 4/3/4 33/62/4 35/61/4
f 11/28/4 9/27/4 37/69/4 39/70/4
g Block1_F_B_Cube.010_Material.001_mylandscaping_block_face.png
f 8/71/6 11/72/6 12/73/6 6/74/6
f 26/75/7 17/76/7 13/77/7 27/78/7
f 20/79/6 25/80/6 28/81/6 16/82/6
f 25/80/8 26/75/8 27/78/8 28/81/8
f 35/83/7 31/84/7 29/85/7 36/86/7
f 2/87/8 35/83/8 36/86/8 1/88/8
f 11/72/8 39/89/8 40/90/8 12/73/8
g Block1_F_B_Cube.010_Material.001_mylandscaping_block_top_1.png
f 39/91/5 37/92/5 38/93/5 40/94/5
