# Blender v2.74 (sub 0) OBJ File: 'Walls.blend'
# www.blender.org
o Block1_M_B_Cube.025
v 1.001194 0.000000 -0.009452
v 1.001194 0.000000 0.298638
v 0.001194 0.000000 0.298638
v 0.001194 0.000000 -0.009452
v 1.001194 0.500000 -0.009452
v 1.001194 0.500000 0.298638
v 0.001194 0.500000 0.298638
v 0.001194 0.500000 -0.009452
v 0.817861 0.500000 0.298638
v 0.184527 0.500000 0.298638
v 0.184527 0.000000 0.298638
v 0.817861 0.000000 0.298638
v 0.184527 0.500000 -0.109452
v 0.817860 0.500000 -0.109452
v 0.817860 0.000000 -0.109452
v 0.184527 0.000000 -0.109452
v 0.501194 -0.500000 -0.106755
v 0.501194 -0.500000 0.201335
v -0.498806 -0.500000 0.201335
v -0.498806 -0.500000 -0.106755
v 0.501194 0.000000 -0.106755
v 0.501194 0.000000 0.201335
v -0.498806 0.000000 0.201335
v -0.498806 0.000000 -0.106755
v 0.317861 0.000000 0.201335
v -0.315473 0.000000 0.201335
v -0.315473 -0.500000 0.201335
v 0.317861 -0.500000 0.201335
v -0.315473 0.000000 -0.206755
v 0.317861 0.000000 -0.206755
v 0.317861 -0.500000 -0.206755
v -0.315473 -0.500000 -0.206755
vt 0.243205 0.005854
vt 0.519640 0.005854
vt 0.519640 0.493899
vt 0.243205 0.493899
vt 0.584034 0.802995
vt 0.584034 0.981945
vt 0.147505 0.981945
vt 0.147505 0.802995
vt 0.560434 0.005854
vt 0.836869 0.005854
vt 0.836869 0.493899
vt 0.560435 0.493899
vt 0.816658 0.197005
vt 0.450498 0.197005
vt 0.450498 0.018055
vt 0.726933 0.018055
vt 0.300696 0.802995
vt 0.666856 0.802995
vt 0.666856 0.981945
vt 0.390421 0.981945
vt 0.584034 0.005854
vt 0.584034 0.184804
vt 0.147505 0.184804
vt 0.147505 0.005854
vt 0.726933 0.994146
vt 0.450498 0.994146
vt 0.450498 0.815196
vt 0.816658 0.815196
vt 0.390421 0.005854
vt 0.666856 0.005854
vt 0.666856 0.184804
vt 0.300696 0.184804
vt 0.836869 0.981945
vt 0.560434 0.981945
vt 0.156994 0.184804
vt 0.156994 0.005854
vt 0.593523 0.005854
vt 0.593523 0.184804
vt 0.519640 0.981945
vt 0.243205 0.981945
vt 0.816658 0.190905
vt 0.450498 0.190905
vt 0.450498 0.011955
vt 0.726933 0.011955
vt 0.303408 0.809095
vt 0.669568 0.809095
vt 0.669568 0.988045
vt 0.393133 0.988045
vt 0.156995 0.981945
vt 0.156994 0.802995
vt 0.593523 0.802995
vt 0.593523 0.981945
vt 0.726933 0.988045
vt 0.450498 0.988045
vt 0.450498 0.809095
vt 0.816658 0.809095
vt 0.393133 0.011955
vt 0.669568 0.011955
vt 0.669568 0.190905
vt 0.303408 0.190905
vt 0.982303 0.808078
vt 0.982303 0.987579
vt 0.544431 0.987579
vt 0.544431 0.808078
vt 0.982303 0.008484
vt 0.982303 0.187985
vt 0.544431 0.187985
vt 0.544431 0.008484
vt 0.458763 0.808078
vt 0.458763 0.987579
vt 0.020892 0.987579
vt 0.020891 0.808078
vt 0.458763 0.008484
vt 0.458763 0.187985
vt 0.020891 0.187985
vt 0.020891 0.008484
vn 1.000000 0.000000 0.000000
vn 0.000000 0.000000 1.000000
vn -1.000000 0.000000 0.000000
vn 0.000000 -1.000000 0.000000
vn 0.000000 1.000000 0.000000
vn 0.478900 0.000000 -0.877900
vn -0.478900 0.000000 -0.877900
vn -0.000000 0.000000 -1.000000
g Block1_M_B_Cube.025_Top
s off
f 5/1/1 6/2/1 2/3/1 1/4/1
f 10/5/2 7/6/2 3/7/2 11/8/2
f 7/9/3 8/10/3 4/11/3 3/12/3
f 16/13/4 11/14/4 3/15/4 4/16/4
f 14/17/5 9/18/5 6/19/5 5/20/5
f 6/21/2 9/22/2 12/23/2 2/24/2
f 9/22/2 10/5/2 11/8/2 12/23/2
f 1/25/4 2/26/4 12/27/4 15/28/4
f 15/28/4 12/27/4 11/14/4 16/13/4
f 8/29/5 7/30/5 10/31/5 13/32/5
f 13/32/5 10/31/5 9/18/5 14/17/5
f 21/12/1 22/11/1 18/33/1 17/34/1
f 26/35/2 23/36/2 19/37/2 27/38/2
f 23/39/3 24/40/3 20/4/3 19/3/3
f 32/41/4 27/42/4 19/43/4 20/44/4
f 30/45/5 25/46/5 22/47/5 21/48/5
f 22/49/2 25/50/2 28/51/2 18/52/2
f 25/50/2 26/35/2 27/38/2 28/51/2
f 17/53/4 18/54/4 28/55/4 31/56/4
f 31/56/4 28/55/4 27/42/4 32/41/4
f 24/57/5 23/58/5 26/59/5 29/60/5
f 29/60/5 26/59/5 25/46/5 30/45/5
g Block1_M_B_Cube.025_Face
f 14/61/6 5/62/6 1/63/6 15/64/6
f 8/65/7 13/66/7 16/67/7 4/68/7
f 13/66/8 14/61/8 15/64/8 16/67/8
f 30/69/6 21/70/6 17/71/6 31/72/6
f 24/73/7 29/74/7 32/75/7 20/76/7
f 29/74/8 30/69/8 31/72/8 32/75/8
