# Blender v2.76 (sub 2) OBJ File: 'Adaridge_walls.blend'
# www.blender.org
o Adaridge_C_M_B_Plane.001
v -0.500000 -0.500000 -0.300000
v -0.100000 -0.500000 -0.300000
v -0.500000 -0.100000 -0.300000
v -0.100000 -0.100000 -0.300000
v -0.100000 -0.300000 -0.300000
v 0.100000 -0.300000 -0.300000
v -0.100000 0.100000 -0.300000
v 0.100000 0.100000 -0.300000
v 0.100000 -0.500000 -0.300000
v 0.500000 -0.500000 -0.300000
v 0.100000 -0.100000 -0.300000
v 0.500000 -0.100000 -0.300000
v -0.100000 -0.500000 -0.300000
v 0.100000 -0.500000 -0.300000
v -0.100000 -0.300000 -0.300000
v 0.100000 -0.300000 -0.300000
v -0.300000 -0.100000 -0.200000
v -0.100000 -0.100000 -0.200000
v -0.300000 0.300000 -0.200000
v -0.100000 0.300000 -0.200000
v 0.100000 -0.100000 -0.200000
v 0.300000 -0.100000 -0.200000
v 0.100000 0.300000 -0.200000
v 0.300000 0.300000 -0.200000
v -0.500000 -0.100000 -0.300000
v -0.300000 -0.100000 -0.300000
v -0.500000 0.100000 -0.300000
v -0.300000 0.100000 -0.300000
v 0.300000 -0.100000 -0.300000
v 0.500000 -0.100000 -0.300000
v 0.300000 0.100000 -0.300000
v 0.500000 0.100000 -0.300000
v 0.300000 0.100000 -0.300000
v 0.500000 0.100000 -0.300000
v 0.300000 0.500000 -0.300000
v 0.500000 0.500000 -0.300000
v -0.500000 0.100000 -0.300000
v -0.300000 0.100000 -0.300000
v -0.500000 0.500000 -0.300000
v -0.300000 0.500000 -0.300000
v -0.100000 0.100000 -0.300000
v 0.100000 0.100000 -0.300000
v -0.100000 0.500000 -0.300000
v 0.100000 0.500000 -0.300000
v -0.300000 0.300000 -0.300000
v -0.100000 0.300000 -0.300000
v -0.300000 0.500000 -0.300000
v -0.100000 0.500000 -0.300000
v 0.100000 0.300000 -0.300000
v 0.300000 0.300000 -0.300000
v 0.100000 0.500000 -0.300000
v 0.300000 0.500000 -0.300000
v -0.500000 -0.500000 -0.100000
v 0.500000 -0.100000 -0.200000
v -0.500000 -0.100000 -0.100000
v -0.500000 -0.100000 -0.200000
v 0.500000 -0.500000 -0.100000
v 0.500000 -0.100000 -0.100000
v 0.100000 -0.100000 -0.200000
v -0.100000 -0.100000 -0.200000
v -0.500000 -0.100000 -0.100000
v -0.500000 0.100000 -0.100000
v 0.500000 -0.100000 -0.100000
v 0.500000 0.100000 -0.100000
v 0.500000 0.100000 0.100000
v 0.500000 0.500000 0.100000
v -0.500000 0.100000 0.100000
v -0.500000 0.500000 0.100000
v -0.100000 -0.300000 -0.200000
v 0.100000 -0.300000 -0.200000
v -0.100000 0.100000 -0.200000
v 0.100000 0.100000 -0.200000
v -0.300000 -0.100000 -0.200000
v -0.300000 0.100000 -0.200000
v 0.300000 -0.100000 -0.200000
v 0.300000 0.100000 -0.200000
v 0.300000 0.100000 -0.200000
v 0.300000 0.500000 -0.200000
v -0.300000 0.100000 -0.200000
v -0.300000 0.500000 -0.200000
v -0.100000 0.100000 -0.200000
v 0.100000 0.100000 -0.200000
v -0.100000 0.500000 -0.200000
v 0.100000 0.500000 -0.200000
v -0.300000 0.300000 -0.200000
v -0.100000 0.300000 -0.200000
v 0.100000 0.300000 -0.200000
v 0.300000 0.300000 -0.200000
v 0.500000 -0.300000 -0.100000
v 0.500000 0.100000 -0.100000
v -0.500000 -0.300000 -0.100000
v -0.500000 0.100000 -0.100000
v 0.500000 -0.300000 0.300000
v 0.500000 0.100000 0.300000
v -0.500000 -0.300000 0.300000
v -0.500000 0.100000 0.300000
v -0.500000 -0.300000 -0.100000
v -0.500000 -0.300000 0.300000
v 0.500000 -0.300000 -0.100000
v 0.500000 -0.300000 0.300000
v -0.500000 -0.500000 -0.100000
v -0.500000 -0.500000 0.300000
v 0.500000 -0.500000 -0.100000
v 0.500000 -0.500000 0.300000
v -0.500000 0.500000 0.300000
v -0.500000 0.100000 0.300000
v 0.500000 0.500000 0.300000
v 0.500000 0.100000 0.300000
v -0.500000 0.500000 0.100000
v -0.500000 0.100000 0.100000
v 0.500000 0.500000 0.100000
v 0.500000 0.100000 0.100000
v -0.500000 -0.100000 0.500000
v -0.500000 -0.500000 0.500000
v 0.500000 -0.100000 0.500000
v 0.500000 -0.500000 0.500000
v -0.500000 -0.100000 0.300000
v -0.500000 -0.500000 0.300000
v 0.500000 -0.100000 0.300000
v 0.500000 -0.500000 0.300000
v -0.500000 0.300000 0.500000
v -0.500000 -0.100000 0.500000
v 0.500000 0.300000 0.500000
v 0.500000 -0.100000 0.500000
v -0.500000 0.300000 0.300000
v -0.500000 -0.100000 0.300000
v 0.500000 0.300000 0.300000
v 0.500000 -0.100000 0.300000
v -0.500000 0.300000 0.300000
v -0.500000 0.500000 0.300000
v 0.500000 0.300000 0.300000
v 0.500000 0.500000 0.300000
v -0.500000 0.300000 0.500000
v -0.500000 0.500000 0.500000
v 0.500000 0.300000 0.500000
v 0.500000 0.500000 0.500000
v -0.100000 -0.500000 0.500000
v 0.300000 -0.500000 0.500000
v -0.100000 -0.100000 0.500000
v 0.300000 -0.100000 0.500000
v 0.300000 -0.500000 0.500000
v 0.500000 -0.500000 0.500000
v 0.300000 -0.100000 0.500000
v 0.500000 -0.100000 0.500000
v 0.300000 0.300000 0.500000
v 0.500000 0.300000 0.500000
v 0.300000 0.500000 0.500000
v 0.500000 0.500000 0.500000
v -0.500000 -0.500000 0.500000
v -0.100000 -0.500000 0.500000
v -0.500000 -0.100000 0.500000
v -0.100000 -0.100000 0.500000
v -0.100000 0.500000 0.500000
v -0.100000 0.300000 0.500000
v 0.300000 0.500000 0.500000
v 0.300000 0.300000 0.500000
v 0.100000 -0.100000 0.500000
v 0.500000 -0.100000 0.500000
v 0.100000 0.300000 0.500000
v 0.500000 0.300000 0.500000
v -0.300000 -0.100000 0.500000
v 0.100000 -0.100000 0.500000
v -0.300000 0.300000 0.500000
v 0.100000 0.300000 0.500000
v -0.500000 -0.100000 0.500000
v -0.300000 -0.100000 0.500000
v -0.500000 0.300000 0.500000
v -0.300000 0.300000 0.500000
v -0.500000 0.500000 0.500000
v -0.500000 0.300000 0.500000
v -0.100000 0.500000 0.500000
v -0.100000 0.300000 0.500000
v -0.500000 -0.500000 -0.300000
v 0.500000 -0.500000 -0.300000
v -0.500000 -0.500000 0.500000
v 0.500000 -0.500000 0.500000
vt 0.333333 0.714286
vt 0.333333 1.000000
vt 0.666667 1.000000
vt 0.666667 0.714286
vt -0.000000 0.571429
vt 0.333333 0.571429
vt 0.333333 0.428571
vt 0.000000 0.428571
vt 1.000000 1.000000
vt 1.000000 0.714286
vt 0.166667 0.714286
vt 0.166667 0.857143
vt 0.333333 0.857143
vt 0.666667 0.571429
vt 0.000000 0.714286
vt -0.000000 0.857143
vt -0.000000 1.000000
vt 0.166667 1.000000
vt 0.666667 0.428571
vt 0.250000 0.857143
vt 0.250000 0.714286
vt 1.000000 0.428571
vt 0.666667 0.500000
vt 0.833333 0.500000
vt 0.833333 0.428571
vt 1.000000 0.500000
vt 0.333333 0.785714
vt 0.666667 0.785714
vt 1.000000 0.785714
vt 0.333333 0.642857
vt 0.666667 0.642857
vt -0.000000 0.785714
vt 0.166667 0.785714
vt 0.666667 0.446429
vt 0.666667 0.732143
vt 1.000000 0.732143
vt 1.000000 0.446429
vt 0.833333 -0.000000
vt 0.999911 0.000089
vt 1.000000 0.142857
vt 0.833333 0.142857
vn 0.000000 -0.000000 -1.000000
vn 1.000000 0.000000 0.000000
vn 0.000000 1.000000 0.000000
vn -1.000000 0.000000 0.000000
vn 0.000000 -1.000000 0.000000
g Adaridge_C_M_B_Plane.001_None
s off
f 1/1/1 3/2/1 4/3/1 2/4/1
f 5/5/1 7/6/1 8/7/1 6/8/1
f 9/4/1 11/3/1 12/9/1 10/10/1
f 13/11/1 15/12/1 16/13/1 14/1/1
f 17/14/1 19/6/1 20/1/1 18/4/1
f 21/5/1 23/6/1 24/7/1 22/8/1
f 25/15/1 27/16/1 28/12/1 26/11/1
f 29/17/1 31/18/1 32/12/1 30/16/1
f 33/15/1 35/1/1 36/6/1 34/5/1
f 37/6/1 39/5/1 40/15/1 38/1/1
f 41/6/1 43/14/1 44/19/1 42/7/1
f 45/12/1 47/18/1 48/2/1 46/13/1
f 49/11/1 51/12/1 52/13/1 50/1/1
f 28/12/2 74/20/2 73/21/2 26/11/2
f 37/22/2 39/10/2 68/4/2 67/19/2
f 11/19/3 59/23/3 54/24/3 12/25/3
f 3/25/3 56/24/3 60/26/3 4/22/3
f 32/12/2 64/11/2 63/15/2 30/16/2
f 12/1/2 58/6/2 57/5/2 10/15/2
f 1/7/2 3/19/2 55/14/2 53/6/2
f 36/10/2 66/22/2 65/19/2 34/4/2
f 25/11/2 27/12/2 62/16/2 61/15/2
f 41/1/4 81/27/4 83/28/4 43/4/4
f 8/4/2 72/28/2 70/29/2 6/10/2
f 40/6/2 80/30/2 79/31/2 38/14/2
f 5/6/4 69/30/4 71/31/4 7/14/4
f 46/12/3 45/16/3 85/32/3 86/33/3
f 29/11/4 75/33/4 76/27/4 31/1/4
f 44/19/2 84/23/2 82/26/2 42/22/2
f 50/13/3 49/12/3 87/33/3 88/27/3
f 33/6/4 77/30/4 78/31/4 35/14/4
f 91/1/2 92/4/2 96/3/2 95/2/2
f 90/3/2 94/4/2 93/1/2 89/2/2
f 100/4/2 104/14/2 103/6/2 99/1/2
f 97/5/2 98/6/2 102/1/2 101/15/2
f 108/6/2 112/1/2 111/4/2 107/14/2
f 105/6/2 106/14/2 110/4/2 109/1/2
f 116/6/2 120/7/2 119/8/2 115/5/2
f 113/19/2 114/7/2 118/6/2 117/14/2
f 124/14/2 128/19/2 127/7/2 123/6/2
f 121/14/2 122/6/2 126/7/2 125/19/2
f 132/13/2 136/1/2 135/11/2 131/12/2
f 129/1/2 130/13/2 134/12/2 133/11/2
f 137/1/1 139/2/1 140/3/1 138/4/1
f 141/5/1 143/6/1 144/7/1 142/8/1
f 145/12/1 147/18/1 148/2/1 146/13/1
f 149/3/1 151/9/1 152/10/1 150/4/1
f 153/1/1 155/4/1 156/14/1 154/6/1
f 157/4/1 159/3/1 160/9/1 158/10/1
f 161/34/1 163/35/1 164/36/1 162/37/1
f 165/15/1 167/1/1 168/6/1 166/5/1
f 169/6/1 171/14/1 172/19/1 170/7/1
f 173/38/5 174/39/5 176/40/5 175/41/5
