# Blender v2.74 (sub 5) OBJ File: 'Walls.blend'
# www.blender.org
o Column_OC_T_Cube.040
v 0.300000 0.500019 0.500000
v -0.500000 0.500019 0.500000
v -0.500000 0.500019 -0.300000
v 0.300000 0.500019 -0.300000
v 0.300000 0.600020 0.500000
v -0.500000 0.600020 0.500000
v -0.500000 0.600020 -0.300000
v 0.300000 0.600020 -0.300000
v -0.100000 0.708522 0.100000
v 0.200000 -0.500000 0.500000
v -0.500000 -0.500000 0.500000
v -0.500000 -0.500000 -0.200000
v 0.200000 -0.500000 -0.200000
v 0.200000 0.500000 0.500000
v -0.500000 0.500000 0.500000
v -0.500000 0.500000 -0.200000
v 0.200000 0.500000 -0.200000
v -0.500000 0.500000 0.290000
v -0.500000 0.500000 0.010000
v -0.500000 -0.500000 0.010000
v -0.500000 -0.500000 0.290000
v 0.200000 0.500000 0.010000
v 0.200000 0.500000 0.290000
v 0.200000 -0.500000 0.290000
v 0.200000 -0.500000 0.010000
v -0.010000 0.500000 0.500000
v -0.290000 0.500000 0.500000
v -0.290000 -0.500000 0.500000
v -0.010000 -0.500000 0.500000
v -0.290000 0.500000 -0.200000
v -0.010000 0.500000 -0.200000
v -0.010000 -0.500000 -0.200000
v -0.290000 -0.500000 -0.200000
v -0.290000 -0.500000 0.290000
v -0.010000 -0.500000 0.290000
v -0.290000 -0.500000 0.010000
v -0.010000 -0.500000 0.010000
v -0.290000 0.500000 0.010000
v -0.010000 0.500000 0.010000
v -0.290000 0.500000 0.290000
v -0.010000 0.500000 0.290000
v 0.200000 -0.374161 0.500000
v 0.200000 0.374971 0.500000
v -0.500000 0.374971 0.500000
v -0.500000 -0.374161 0.500000
v -0.500000 0.374971 -0.200000
v -0.500000 -0.374161 -0.200000
v 0.200000 0.374971 -0.200000
v 0.200000 -0.374161 -0.200000
v -0.500000 0.374971 0.290000
v -0.500000 -0.374161 0.290000
v -0.500000 0.374971 0.010000
v -0.500000 -0.374161 0.010000
v 0.200000 0.374971 0.010000
v 0.200000 -0.374161 0.010000
v 0.200000 0.374971 0.290000
v 0.200000 -0.374161 0.290000
v -0.010000 0.374971 0.500000
v -0.010000 -0.374161 0.500000
v -0.290000 0.374971 0.500000
v -0.290000 -0.374161 0.500000
v -0.290000 0.374971 -0.200000
v -0.290000 -0.374161 -0.200000
v -0.010000 0.374971 -0.200000
v -0.010000 -0.374161 -0.200000
v -0.290000 0.374971 0.010000
v -0.290000 -0.374161 0.010000
v -0.010000 0.374971 0.010000
v -0.010000 -0.374161 0.010000
v -0.010000 0.374971 0.010000
v -0.010000 -0.374161 0.010000
v -0.010000 0.374971 0.290000
v -0.010000 -0.374161 0.290000
vt 0.531410 0.981977
vt 0.531410 0.039874
vt 0.645374 0.039874
vt 0.645374 0.981977
vt 0.798689 0.048442
vt 0.798689 0.989154
vt 0.684893 0.989154
vt 0.684893 0.048442
vt 0.912485 0.048442
vt 0.912485 0.989154
vt 0.209659 0.020144
vt 0.209660 0.985961
vt 0.092827 0.985961
vt 0.092827 0.020144
vt 0.959081 0.966258
vt 0.052954 0.966258
vt 0.052954 0.029926
vt 0.959081 0.029926
vt 0.974502 0.005098
vt 0.496976 0.498543
vt 0.019449 0.005098
vt 0.974502 0.991987
vt 0.019449 0.991987
vt 0.627208 0.833815
vt 0.809065 0.833815
vt 0.809065 0.946422
vt 0.627208 0.946422
vt 0.360912 0.746403
vt 0.497942 0.746403
vt 0.497942 0.831253
vt 0.360912 0.831253
vt 0.817679 0.746403
vt 0.954709 0.746403
vt 0.954709 0.831253
vt 0.817679 0.831253
vt 0.776389 0.498507
vt 0.889345 0.498507
vt 0.889345 0.568451
vt 0.776389 0.568451
vt 0.249259 0.685172
vt 0.136302 0.685172
vt 0.136302 0.568451
vt 0.249259 0.568451
vt 0.379105 0.650776
vt 0.379105 0.905288
vt 0.132803 0.905288
vt 0.132803 0.650776
vt 0.041175 0.746403
vt 0.178205 0.746403
vt 0.178205 0.831253
vt 0.041175 0.831253
vt 0.512824 0.498507
vt 0.625780 0.498507
vt 0.625780 0.568451
vt 0.512824 0.568451
vt 0.249259 0.957523
vt 0.136302 0.957523
vt 0.136302 0.840801
vt 0.249259 0.840801
vt 0.953809 0.650776
vt 0.953809 0.905288
vt 0.707507 0.905288
vt 0.707507 0.650776
vt 0.202875 0.833815
vt 0.384732 0.833815
vt 0.384732 0.946422
vt 0.202875 0.946422
vt 0.634972 0.746403
vt 0.634972 0.831253
vt 0.512824 0.685172
vt 0.399867 0.685172
vt 0.399867 0.568451
vt 0.379105 0.056914
vt 0.379105 0.311427
vt 0.132803 0.311427
vt 0.132803 0.056914
vt 0.512824 0.957523
vt 0.399867 0.957523
vt 0.399867 0.840801
vt 0.512824 0.840801
vt 0.953809 0.056914
vt 0.953809 0.311426
vt 0.707507 0.311426
vt 0.707507 0.056914
vt 0.627208 0.051570
vt 0.809065 0.051570
vt 0.809065 0.163452
vt 0.627208 0.163452
vt 0.360911 0.156978
vt 0.497942 0.156978
vt 0.497942 0.241282
vt 0.360912 0.241282
vt 0.817679 0.156978
vt 0.954709 0.156978
vt 0.954709 0.241282
vt 0.817679 0.241282
vt 0.776389 0.012633
vt 0.889345 0.012633
vt 0.889345 0.082127
vt 0.776389 0.082127
vt 0.041175 0.156978
vt 0.178205 0.156978
vt 0.178205 0.241282
vt 0.041175 0.241282
vt 0.512824 0.012633
vt 0.625780 0.012633
vt 0.625780 0.082127
vt 0.512824 0.082127
vt 0.424936 0.544372
vt 0.424936 0.881465
vt 0.180271 0.881465
vt 0.180271 0.544372
vt 0.202875 0.051570
vt 0.384732 0.051570
vt 0.384732 0.163452
vt 0.202875 0.163453
vt 0.634972 0.156978
vt 0.634972 0.241282
vt 0.424936 0.207279
vt 0.669600 0.207279
vt 0.669600 0.544372
vt 0.157443 0.034212
vt 0.493630 0.034212
vt 0.493630 0.963650
vt 0.157443 0.963650
vt 0.180271 0.207280
vt 0.925642 0.011806
vt 0.925642 0.958019
vt 0.668952 0.958019
vt 0.668952 0.011806
vt 0.652137 0.975352
vt 0.652137 0.048177
vt 0.903663 0.048177
vt 0.903663 0.975352
vt 0.303356 0.050212
vt 0.635769 0.050212
vt 0.635769 0.969219
vt 0.303356 0.969219
vt 0.914264 0.207279
vt 0.914264 0.544372
vt 0.271758 0.038545
vt 0.271758 0.919632
vt 0.032736 0.919632
vt 0.032736 0.038545
vt 0.440763 0.933480
vt 0.440763 0.080128
vt 0.672261 0.080128
vt 0.672261 0.933480
vn 0.000000 0.000000 1.000000
vn -1.000000 0.000000 0.000000
vn 0.000000 0.000000 -1.000000
vn 1.000000 0.000000 0.000000
vn 0.000000 -1.000000 0.000000
vn 0.261800 0.965100 0.000000
vn 0.000000 0.965100 -0.261800
vn -0.261800 0.965100 0.000000
vn 0.000000 0.965100 0.261800
vn 0.000000 1.000000 0.000000
s off
f 5/1/1 6/2/1 2/3/1 1/4/1
f 6/5/2 7/6/2 3/7/2 2/8/2
f 7/6/3 8/5/3 4/9/3 3/10/3
f 8/11/4 5/12/4 1/13/4 4/14/4
f 1/15/5 2/16/5 3/17/5 4/18/5
f 8/19/6 9/20/6 5/21/6
f 8/19/7 7/22/7 9/20/7
f 7/22/8 6/23/8 9/20/8
f 6/23/9 5/21/9 9/20/9
f 61/24/1 45/25/1 11/26/1 28/27/1
f 53/28/2 47/29/2 12/30/2 20/31/2
f 65/32/3 49/33/3 13/34/3 32/35/3
f 57/36/4 42/37/4 10/38/4 24/39/4
f 36/40/5 20/41/5 12/42/5 33/43/5
f 40/44/10 18/45/10 15/46/10 27/47/10
f 45/48/2 51/49/2 21/50/2 11/51/2
f 51/49/2 53/28/2 20/31/2 21/50/2
f 49/52/4 55/53/4 25/54/4 13/55/4
f 55/53/4 57/36/4 24/39/4 25/54/4
f 28/56/5 11/57/5 21/58/5 34/59/5
f 34/59/5 21/58/5 20/41/5 36/40/5
f 30/60/10 16/61/10 19/62/10 38/63/10
f 38/63/10 19/62/10 18/45/10 40/44/10
f 42/64/1 59/65/1 29/66/1 10/67/1
f 59/65/1 61/24/1 28/27/1 29/66/1
f 47/29/3 63/68/3 33/69/3 12/30/3
f 63/68/3 65/32/3 32/35/3 33/69/3
f 25/70/5 37/71/5 32/72/5 13/55/5
f 37/71/5 36/40/5 33/43/5 32/72/5
f 23/73/10 41/74/10 26/75/10 14/76/10
f 41/74/10 40/44/10 27/47/10 26/75/10
f 10/77/5 29/78/5 35/79/5 24/80/5
f 29/78/5 28/56/5 34/59/5 35/79/5
f 24/80/5 35/79/5 37/71/5 25/70/5
f 35/79/5 34/59/5 36/40/5 37/71/5
f 17/81/10 31/82/10 39/83/10 22/84/10
f 31/82/10 30/60/10 38/63/10 39/83/10
f 22/84/10 39/83/10 41/74/10 23/73/10
f 39/83/10 38/63/10 40/44/10 41/74/10
f 27/85/1 15/86/1 44/87/1 60/88/1
f 60/88/1 44/87/1 45/25/1 61/24/1
f 19/89/2 16/90/2 46/91/2 52/92/2
f 52/92/2 46/91/2 47/29/2 53/28/2
f 31/93/3 17/94/3 48/95/3 64/96/3
f 64/96/3 48/95/3 49/33/3 65/32/3
f 23/97/4 14/98/4 43/99/4 56/100/4
f 56/100/4 43/99/4 42/37/4 57/36/4
f 15/101/2 18/102/2 50/103/2 44/104/2
f 44/104/2 50/103/2 51/49/2 45/48/2
f 18/102/2 19/89/2 52/92/2 50/103/2
f 50/103/2 52/92/2 53/28/2 51/49/2
f 17/105/4 22/106/4 54/107/4 48/108/4
f 48/108/4 54/107/4 55/53/4 49/52/4
f 22/106/4 23/97/4 56/100/4 54/107/4
f 57/109/10 55/110/10 71/111/10 73/112/10
f 14/113/1 26/114/1 58/115/1 43/116/1
f 43/116/1 58/115/1 59/65/1 42/64/1
f 26/114/1 27/85/1 60/88/1 58/115/1
f 58/115/1 60/88/1 61/24/1 59/65/1
f 16/90/3 30/117/3 62/118/3 46/91/3
f 46/91/3 62/118/3 63/68/3 47/29/3
f 30/117/3 31/93/3 64/96/3 62/118/3
f 65/109/10 63/119/10 67/120/10 69/121/10
f 66/122/3 68/123/3 69/124/3 67/125/3
f 62/119/5 64/109/5 68/112/5 66/126/5
f 64/127/2 65/128/2 69/129/2 68/130/2
f 63/131/4 62/132/4 66/133/4 67/134/4
f 70/135/4 72/136/4 73/137/4 71/138/4
f 54/121/5 56/120/5 72/139/5 70/140/5
f 56/141/3 57/142/3 73/143/3 72/144/3
f 55/145/1 54/146/1 70/147/1 71/148/1
