# Blender v2.75 (sub 4) OBJ File: 'Retaining_wall.blend'
# www.blender.org
o Adaridge_L_B_Cube.002
v 0.300000 0.300000 -0.148631
v 0.300000 -0.100000 -0.148631
v 0.500000 -0.100000 -0.148631
v 0.500000 0.500000 -0.048631
v 0.500000 0.500000 -0.148631
v 0.300000 0.500000 -0.148631
v 0.500000 0.300000 -0.148631
v 0.500000 -0.100000 -0.048631
v 0.300000 -0.100000 -0.048631
v 0.500000 0.300000 -0.048631
v 0.300000 0.500000 -0.048631
v 0.300000 0.300000 -0.048631
v 0.500000 0.500000 0.251369
v 0.300000 0.500000 0.251369
v 0.300000 -0.300000 -0.248631
v 0.500000 -0.500000 -0.248631
v 0.300000 -0.500000 -0.248631
v 0.500000 -0.100000 -0.248631
v 0.500000 -0.300000 -0.248631
v -0.100000 -0.500000 -0.248631
v 0.300000 -0.100000 -0.248631
v -0.300000 -0.500000 -0.248631
v -0.300000 -0.100000 -0.248631
v -0.100000 -0.100000 -0.248631
v -0.100000 0.300000 -0.048631
v 0.300000 0.500000 -0.148631
v -0.100000 0.500000 -0.148631
v 0.300000 0.300000 -0.148631
v -0.100000 0.300000 -0.148631
v -0.700000 0.300000 -0.148631
v -0.700000 -0.100000 -0.148631
v -0.500000 -0.100000 -0.148631
v -0.500000 0.500000 -0.048631
v -0.500000 0.100000 -0.048631
v -0.100000 0.500000 -0.048631
v -0.100000 0.100000 -0.148631
v -0.500000 0.100000 -0.148631
v -0.100000 -0.100000 -0.148631
v -0.500000 0.500000 -0.148631
v -0.700000 0.500000 -0.148631
v -0.500000 0.300000 -0.148631
v 0.500000 -0.100000 -0.048631
v 0.300000 -0.100000 -0.048631
v -0.300000 -0.100000 -0.048631
v -0.500000 -0.100000 -0.048631
v -0.100000 0.100000 -0.048631
v -0.100000 -0.100000 -0.048631
v -0.700000 -0.100000 -0.048631
v -0.500000 0.300000 -0.048631
v 0.300000 0.300000 -0.048631
v -0.700000 0.500000 -0.048631
v -0.300000 -0.500000 -0.048631
v 0.500000 -0.500000 -0.048631
v 0.500000 -0.300000 -0.048631
v 0.300000 0.500000 -0.048631
v -0.700000 0.300000 -0.048631
v -0.500000 0.500000 0.251369
v -0.100000 0.500000 0.251369
v 0.500000 -0.100000 0.251369
v 0.500000 -0.100000 0.251369
v -0.700000 -0.100000 0.251369
v -0.700000 0.500000 0.251369
v -0.300000 -0.500000 0.251369
v -0.300000 -0.100000 0.251369
v -0.500000 -0.100000 0.251369
v -0.100000 -0.100000 0.251369
v 0.500000 -0.500000 0.251369
v 0.500000 -0.300000 0.251369
v 0.500000 0.500000 0.251369
v 0.500000 0.300000 0.251369
v -0.700000 0.300000 0.251369
v 0.500000 -0.500000 -0.248631
v 0.500000 -0.100000 0.251369
v 0.500000 -0.300000 -0.248631
v 0.500000 -0.100000 -0.248631
v 0.500000 -0.100000 -0.048631
v 0.200000 -0.100000 0.251369
v 0.200000 -0.500000 0.251369
vt -0.000000 0.571429
vt 0.333333 0.571429
vt 0.333333 0.500000
vt -0.000000 0.500000
vt 0.666667 0.428571
vt 0.666667 0.571429
vt 0.583333 0.571429
vt 0.583333 0.428571
vt 0.166667 0.857143
vt -0.000000 0.857143
vt -0.000000 0.785714
vt 0.166667 0.785714
vt 0.333333 0.714286
vt 0.583333 0.714286
vt 0.333333 0.428571
vt -0.000000 0.428571
vt 0.166667 0.714286
vt 0.333333 0.857143
vt 0.666667 0.714286
vt 0.666667 1.000000
vt 0.583333 1.000000
vt 0.854167 0.071429
vt 1.000000 0.071429
vt 1.000000 0.000000
vt 0.854167 0.000000
vt 0.333333 1.000000
vt 0.250000 0.857143
vt 0.250000 1.000000
vt 0.606510 0.428339
vt 0.606510 0.571661
vt 0.534849 0.571661
vt 0.534849 0.428339
vt 0.250000 0.428571
vt 0.250000 0.571429
vt 0.666667 0.500000
vt 0.000000 0.714286
vt -0.000000 0.642857
vt 0.333333 0.642857
vt 0.250000 0.714286
vt 1.000000 0.714286
vt 1.000000 0.500000
vt 1.000000 0.428571
vt 0.750000 0.428571
vt 0.750000 0.714286
vt 0.166667 0.571429
vt 0.166667 0.428571
vt 1.000000 1.000000
vt 0.500000 0.571429
vt 0.500000 0.428571
vt 0.666667 0.642857
vt 0.333333 0.625000
vt 0.666667 0.625000
vt 0.833333 0.071429
vt 0.833333 0.000000
vt 0.166667 1.000000
vt -0.000000 1.000000
vt 0.083333 0.571429
vt 0.083333 0.428571
vt 0.416667 0.714286
vt 0.416667 0.571429
vt 0.854167 0.142857
vt 1.000000 0.142857
vt 0.833333 0.142857
vt 0.833333 1.000000
vt 0.666667 0.785714
vt 0.833333 0.785714
vt 0.750000 1.000000
vt 0.916667 0.000000
vt 0.916667 0.142857
vt 1.000000 0.107143
vt 0.833333 0.107143
vt 0.666667 0.767857
vt 1.000000 0.767857
vt 0.083333 0.142857
vt 0.916667 0.267857
vt 0.916667 0.446429
vt 0.083333 0.446429
vt 0.083333 0.267857
vn -1.000000 0.000000 0.000000
vn 1.000000 -0.000000 0.000000
vn -0.000000 1.000000 -0.000000
vn -0.000000 0.000000 -1.000000
vn -0.000000 -1.000000 0.000000
vn 0.000000 0.000000 1.000000
g Adaridge_L_B_Cube.002_Face1
s off
f 1/1/1 2/2/1 9/3/1 12/4/1
f 7/5/2 5/6/2 4/7/2 10/8/2
f 5/9/3 6/10/3 11/11/3 4/12/3
f 4/13/3 11/2/3 14/7/3 13/14/3
f 4/7/2 69/2/2 70/15/2 10/8/2
f 1/15/4 7/2/4 3/1/4 2/16/4
f 5/9/4 7/17/4 1/13/4 6/18/4
f 3/19/2 7/20/2 10/21/2 8/14/2
f 2/22/5 3/23/5 8/24/5 9/25/5
f 6/26/1 1/18/1 12/27/1 11/28/1
f 60/13/2 8/14/2 10/21/2 70/26/2
f 26/5/4 28/6/4 29/2/4 27/15/4
f 30/1/1 31/2/1 48/3/1 56/4/1
f 38/29/2 36/30/2 46/31/2 47/32/2
f 27/2/1 29/15/1 25/33/1 35/34/1
f 29/2/5 28/6/5 50/35/5 25/3/5
f 41/6/2 39/19/2 33/14/2 49/7/2
f 26/13/3 27/36/3 35/37/3 55/38/3
f 39/9/3 40/10/3 51/11/3 33/12/3
f 33/39/3 51/36/3 62/1/3 57/34/3
f 35/40/3 33/19/3 57/35/3 58/41/3
f 56/40/1 48/42/1 61/43/1 71/44/1
f 74/45/4 72/46/4 17/15/4 15/2/4
f 75/17/4 74/45/4 15/2/4 21/13/4
f 24/47/4 21/20/4 17/19/4 20/40/4
f 23/5/4 24/6/4 20/2/4 22/15/4
f 25/40/4 50/19/4 43/5/4 47/42/4
f 30/15/4 41/2/4 32/1/4 31/16/4
f 33/20/4 35/26/4 46/13/4 34/19/4
f 36/13/4 38/2/4 32/6/4 37/19/4
f 39/9/4 41/17/4 30/13/4 40/18/4
f 24/18/3 23/9/3 44/17/3 47/13/3
f 21/19/3 24/13/3 47/2/3 43/6/3
f 75/48/3 21/2/3 43/15/3 76/49/3
f 32/19/2 41/13/2 49/38/2 45/50/2
f 36/19/3 37/13/3 34/51/3 46/52/3
f 23/6/1 22/2/1 52/13/1 44/19/1
f 32/53/5 38/23/5 47/24/5 45/54/5
f 31/22/5 32/23/5 45/24/5 48/25/5
f 19/13/2 18/18/2 42/9/2 54/17/2
f 16/9/2 19/55/2 54/56/2 53/10/2
f 28/2/2 26/13/2 55/39/2 50/34/2
f 40/26/1 30/18/1 56/27/1 51/28/1
f 53/15/2 54/2/2 68/57/2 67/58/2
f 54/6/2 42/19/2 59/59/2 68/60/2
f 48/61/5 45/62/5 65/24/5 61/25/5
f 45/63/5 47/62/5 66/24/5 65/54/5
f 51/19/1 56/6/1 71/60/1 62/59/1
f 76/64/3 43/20/3 60/65/3 73/66/3
f 44/47/1 52/40/1 63/44/1 64/67/1
f 64/63/6 63/54/6 78/68/6 67/24/6 68/23/6 59/62/6 77/69/6
f 61/54/6 60/24/6 70/70/6 71/71/6
f 70/70/6 69/62/6 62/63/6 71/71/6
f 11/47/3 35/20/3 58/72/3 14/73/3
f 22/74/5 16/69/5 53/75/5 67/76/5 63/77/5 52/78/5
l 58 69
