# Blender v2.74 (sub 0) OBJ File: 'Walls.blend'
# www.blender.org
o Block1_C_B_Cube.007
v 0.502738 -0.500000 -0.106682
v 0.502738 -0.500000 0.201409
v 0.502738 -0.000000 -0.106682
v 0.502738 -0.000000 0.201409
v 0.319405 -0.000000 0.201409
v 0.210744 -0.000000 0.201409
v 0.210744 -0.500000 0.201409
v 0.319405 -0.500000 0.201409
v 0.210744 -0.000000 -0.206682
v 0.319405 -0.000000 -0.206682
v 0.319405 -0.500000 -0.206682
v 0.210744 -0.500000 -0.206682
v -0.198120 -0.500000 -0.506763
v 0.109970 -0.500000 -0.506763
v -0.198120 -0.000000 -0.506763
v 0.109970 -0.000000 -0.506763
v -0.198120 -0.000000 0.200586
v -0.198120 -0.000000 -0.323430
v -0.198120 -0.500000 -0.323430
v -0.198120 -0.500000 0.200586
v 0.209970 -0.000000 -0.323430
v 0.209970 -0.000000 0.200586
v 0.209970 -0.500000 0.200586
v 0.209970 -0.500000 -0.323430
v 1.002738 0.000000 -0.006682
v 1.002738 0.000000 0.301409
v 0.002738 0.000000 0.301409
v 0.002738 0.000000 -0.006682
v 1.002738 0.500000 -0.006682
v 1.002738 0.500000 0.301409
v 0.002738 0.500000 0.301409
v 0.002738 0.500000 -0.006682
v 0.819405 0.500000 0.301409
v 0.186072 0.500000 0.301409
v 0.186072 0.000000 0.301409
v 0.819405 0.000000 0.301409
v 0.186072 0.500000 -0.106682
v 0.819405 0.500000 -0.106682
v 0.819405 0.000000 -0.106682
v 0.186072 0.000000 -0.106682
vt 0.565630 0.417706
vt 0.937279 0.417706
vt 0.937279 0.961175
vt 0.565630 0.961175
vt 0.318889 0.200942
vt 0.318889 0.601960
vt 0.128213 0.601960
vt 0.128213 0.299209
vt 0.914603 0.964578
vt 0.697849 0.964578
vt 0.697849 0.421109
vt 0.914603 0.421109
vt 0.569381 0.964578
vt 0.569380 0.421109
vt 0.111185 0.563547
vt 0.111185 0.260796
vt 0.301861 0.260796
vt 0.301861 0.661814
vt 0.414874 0.260796
vt 0.414874 0.661814
vt 0.431902 0.200942
vt 0.431902 0.601960
vt 0.006740 0.389858
vt 0.006740 0.205539
vt 0.538781 0.205539
vt 0.538781 0.389858
vt 0.940480 0.972796
vt 0.577600 0.972796
vt 0.577600 0.429327
vt 0.940480 0.429327
vt 0.023955 0.779030
vt 0.448390 0.779030
vt 0.448390 0.959186
vt 0.127960 0.959186
vt 0.006740 0.916690
vt 0.538781 0.916690
vt 0.023955 0.264096
vt 0.448390 0.264096
vt 0.378441 0.749538
vt 0.058011 0.749538
vt 0.058011 0.569382
vt 0.482446 0.569382
vt 0.058011 0.054448
vt 0.482446 0.054448
vt 0.945497 0.954042
vt 0.573848 0.954042
vt 0.573848 0.410574
vt 0.945497 0.410574
vt 0.546178 0.810196
vt 0.546178 0.989544
vt 0.014136 0.989544
vt 0.014136 0.810196
vt 0.579976 0.412745
vt 0.954323 0.412745
vt 0.954323 0.956213
vt 0.579976 0.956213
vt 0.033656 0.799938
vt 0.469855 0.799938
vt 0.469855 0.975236
vt 0.140544 0.975236
vt 0.489070 0.198919
vt 0.052872 0.198919
vt 0.052872 0.023621
vt 0.382182 0.023621
vt 0.546178 0.011282
vt 0.546178 0.190630
vt 0.014136 0.190630
vt 0.014136 0.011282
vt 0.140544 0.019067
vt 0.469855 0.019067
vt 0.469855 0.194364
vt 0.033656 0.194364
vt 0.382182 0.979790
vt 0.052872 0.979790
vt 0.052872 0.804493
vt 0.489070 0.804493
vt 0.906881 0.532532
vt 0.482446 0.532532
vt 0.906881 0.054448
vt 0.387741 0.820929
vt 0.387741 0.603201
vt 0.910219 0.603201
vt 0.910219 0.820929
vt 0.387741 0.943971
vt 0.910219 0.943971
vt 0.912944 0.031407
vt 0.912944 0.224097
vt 0.386434 0.224097
vt 0.386434 0.031406
vt 0.912944 0.741693
vt 0.386434 0.741693
vt 0.386434 0.196606
vt 0.386434 0.011163
vt 0.912944 0.011162
vt 0.912944 0.196606
vt 0.386434 0.975606
vt 0.386434 0.807420
vt 0.912944 0.807420
vt 0.912944 0.975606
vn 1.000000 0.000000 -0.000000
vn 0.000000 1.000000 0.000000
vn 0.000000 0.000000 1.000000
vn 0.000000 -1.000000 0.000000
vn -1.000000 0.000000 0.000000
vn -0.000000 0.000000 -1.000000
vn 0.478900 0.000000 -0.877900
vn 0.877900 0.000000 -0.478900
vn -0.478900 0.000000 -0.877900
g Block1_C_B_Cube.007_Top
s off
f 3/1/1 4/2/1 2/3/1 1/4/1
f 10/5/2 5/6/2 4/7/2 3/8/2
f 4/9/3 5/10/3 8/11/3 2/12/3
f 5/10/3 6/13/3 7/14/3 8/11/3
f 1/15/4 2/16/4 8/17/4 11/18/4
f 11/18/4 8/17/4 7/19/4 12/20/4
f 9/21/2 6/22/2 5/6/2 10/5/2
f 18/23/5 15/24/5 13/25/5 19/26/5
f 15/27/6 16/28/6 14/29/6 13/30/6
f 24/31/4 19/32/4 13/33/4 14/34/4
f 17/35/5 18/23/5 19/26/5 20/36/5
f 23/37/4 20/38/4 19/32/4 24/31/4
f 16/39/2 15/40/2 18/41/2 21/42/2
f 21/42/2 18/41/2 17/43/2 22/44/2
f 29/45/1 30/46/1 26/47/1 25/48/1
f 34/49/3 31/50/3 27/51/3 35/52/3
f 31/53/5 32/54/5 28/55/5 27/56/5
f 40/57/4 35/58/4 27/59/4 28/60/4
f 38/61/2 33/62/2 30/63/2 29/64/2
f 30/65/3 33/66/3 36/67/3 26/68/3
f 33/66/3 34/49/3 35/52/3 36/67/3
f 25/69/4 26/70/4 36/71/4 39/72/4
f 39/72/4 36/71/4 35/58/4 40/57/4
f 32/73/2 31/74/2 34/75/2 37/76/2
f 37/76/2 34/75/2 33/62/2 38/61/2
f 20/77/3 23/78/3 22/44/3 17/79/3
g Block1_C_B_Cube.007_Face
f 10/80/7 3/81/7 1/82/7 11/83/7
f 9/84/6 10/80/6 11/83/6 12/85/6
f 16/86/8 21/87/8 24/88/8 14/89/8
f 21/87/1 22/90/1 23/91/1 24/88/1
f 38/92/7 29/93/7 25/94/7 39/95/7
f 32/96/9 37/97/9 40/98/9 28/99/9
f 37/97/6 38/92/6 39/95/6 40/98/6
