# Blender v2.77 (sub 1) OBJ File: 'Madison_walls.blend'
# www.blender.org
o Madison_OC_B_Cube.030
v 0.050000 0.500000 -0.050000
v 0.050000 0.000000 -0.050000
v -0.400000 0.500000 -0.050000
v -0.400000 0.000000 -0.050000
v -0.400000 0.000000 0.150000
v -0.500000 -0.500000 0.500000
v -0.500000 0.500000 0.500000
v -0.500000 -0.500000 -0.150000
v -0.500000 0.500000 -0.150000
v -0.400000 -0.500000 0.500000
v -0.400000 0.500000 0.150000
v -0.400000 -0.500000 -0.150000
v -0.400000 0.500000 -0.150000
v -0.400000 -0.500000 0.100000
v -0.400000 0.000000 0.100000
v -0.400000 -0.500000 -0.100000
v -0.400000 0.000000 -0.100000
v -0.150000 0.500000 0.400000
v 0.100000 -0.500000 -0.100000
v 0.100000 0.000000 -0.100000
v -0.400000 -0.500000 0.400000
v -0.400000 0.500000 0.500000
v 0.150000 -0.500000 0.400000
v 0.150000 0.500000 0.400000
v -0.400000 -0.500000 0.500000
v -0.400000 0.500000 0.500000
v 0.150000 -0.500000 0.500000
v 0.150000 0.500000 0.500000
v 0.050000 0.500000 0.400000
v 0.050000 0.000000 0.400000
v -0.400000 0.500000 0.400000
v -0.150000 0.000000 0.400000
v 0.050000 0.500000 0.150000
v 0.050000 0.000000 0.150000
v -0.150000 0.500000 0.150000
v -0.150000 0.000000 0.150000
v -0.100000 -0.500000 0.100000
v -0.100000 0.000000 0.100000
v 0.100000 -0.500000 0.100000
v 0.100000 0.000000 0.100000
v -0.100000 -0.500000 0.400000
v -0.100000 0.000000 0.400000
v 0.100000 -0.500000 0.400000
v 0.100000 0.000000 0.400000
v -0.100000 0.000000 -0.100000
v -0.100000 -0.500000 -0.100000
v -0.150000 0.500000 -0.050000
v -0.150000 0.000000 -0.050000
vt 0.5167 0.3202
vt 0.5167 0.9999
vt 0.0681 0.9999
vt 0.0681 0.3202
vt 0.0001 0.9999
vt 0.0001 0.3202
vt -0.4485 0.9999
vt -0.4485 0.3202
vt 0.9999 0.0001
vt 0.9999 0.3400
vt 0.9659 0.3400
vt 0.9659 0.0001
vt 0.0001 -0.1284
vt 0.0681 -0.1284
vt 0.0681 1.4485
vt 0.0001 1.4485
vt 0.5846 0.3202
vt 0.5846 0.9999
vt 0.1360 0.9999
vt 0.1360 0.3202
vt 0.0680 0.9999
vt 0.0680 0.3202
vt -0.3805 0.9999
vt -0.3805 0.3202
vt 0.9999 0.3403
vt 0.9999 0.6801
vt 0.9659 0.6801
vt 0.9659 0.3403
vt 0.0680 -0.1284
vt 0.1360 -0.1284
vt 0.1360 1.4485
vt 0.0680 1.4485
vt 0.4264 0.0865
vt 0.6012 0.0000
vt 0.7047 0.1578
vt 0.5059 0.3178
vt 0.7083 0.1184
vt 0.7083 0.6554
vt 0.4935 0.6554
vt 0.4935 0.1184
vt 0.4321 0.9116
vt 0.1477 0.8908
vt 0.1914 0.3503
vt 0.9767 0.6554
vt 0.9767 0.8702
vt 0.7083 0.8702
vt 0.2787 0.6554
vt 0.2787 0.1184
vt 0.1256 0.3136
vt 0.6138 0.3136
vt 0.6138 0.5088
vt 0.1256 0.5088
vt 0.6138 0.7041
vt 0.1256 0.7041
vt 0.4712 0.8391
vt 0.4712 0.1049
vt 0.9117 0.1049
vt 0.9117 0.8391
vt 0.5881 0.3128
vt 0.7610 0.4857
vt 0.5881 0.6585
vt 0.4152 0.4857
vt 0.6138 0.0207
vt 0.8091 0.0207
vt 0.8091 0.3136
vt 0.9035 0.3092
vt 0.7937 0.4614
vt 0.0102 0.6554
vt 0.0102 0.1184
vt 0.3288 0.0535
vt 0.1559 0.2264
vt 0.6647 0.9532
vt 0.2787 0.8702
vt 0.0102 0.8702
vt 0.8091 0.5088
vt 0.6138 0.9970
vt 0.1256 0.9970
vt 0.0306 0.8391
vt 0.0306 0.1049
vt 0.3288 0.9178
vt 0.1559 0.7450
vt 0.8091 0.7041
vt 0.8091 0.9970
vt 0.4935 0.8702
vt 0.9767 0.1184
vt 0.1477 0.1384
vt 0.1256 0.0207
vn -1.0000 0.0000 0.0000
vn 0.0000 0.0000 -1.0000
vn 1.0000 0.0000 0.0000
vn 0.0000 0.0000 1.0000
vn 0.0000 -1.0000 0.0000
vn 0.0000 1.0000 0.0000
g Madison_OC_B_Cube.030_Wood
s off
f 6/1/1 7/2/1 9/3/1 8/4/1
f 8/4/2 9/3/2 13/5/2 12/6/2
f 12/6/3 13/5/3 22/7/3 10/8/3
f 10/9/4 22/10/4 7/11/4 6/12/4
f 8/4/5 12/6/5 10/13/5 6/14/5
f 13/5/6 9/3/6 7/15/6 22/16/6
f 21/17/2 31/18/2 24/19/2 23/20/2
f 23/20/3 24/19/3 28/21/3 27/22/3
f 27/22/4 28/21/4 26/23/4 25/24/4
f 25/25/1 26/26/1 31/27/1 21/28/1
f 23/20/5 27/22/5 25/29/5 21/30/5
f 28/21/6 24/19/6 31/31/6 26/32/6
g Madison_OC_B_Cube.030_Stone
f 48/33/5 2/34/5 34/35/5 36/36/5
f 48/37/2 47/38/2 1/39/2 2/40/2
f 36/36/4 35/41/4 11/42/4 5/43/4
f 47/38/6 3/44/6 11/45/6 35/46/6
f 2/40/3 1/39/3 33/47/3 34/48/3
f 46/49/2 45/50/2 20/51/2 19/52/2
f 19/52/3 20/51/3 40/53/3 39/54/3
f 37/55/4 38/56/4 15/57/4 14/58/4
f 46/59/5 19/60/5 39/61/5 37/62/5
f 45/50/6 17/63/6 15/64/6 38/65/6
f 34/35/5 30/66/5 32/67/5 36/36/5
f 34/48/3 33/47/3 29/68/3 30/69/3
f 16/70/5 46/59/5 37/62/5 14/71/5
f 32/67/1 18/72/1 35/41/1 36/36/1
f 29/68/6 33/47/6 35/73/6 18/74/6
f 20/51/6 45/50/6 38/65/6 40/75/6
f 39/54/3 40/53/3 44/76/3 43/77/3
f 41/78/1 42/79/1 38/56/1 37/55/1
f 39/61/5 43/80/5 41/81/5 37/62/5
f 44/76/6 40/53/6 38/82/6 42/83/6
f 1/39/6 47/38/6 35/46/6 33/84/6
f 4/85/2 3/44/2 47/38/2 48/37/2
f 4/86/5 48/33/5 36/36/5 5/43/5
f 16/87/2 17/63/2 45/50/2 46/49/2
