# Blender v2.76 (sub 2) OBJ File: 'Adaridge_walls.blend'
# www.blender.org
o Adaridge_C_OC_B_Plane.004
v -0.500000 -0.100000 -0.300000
v -0.100000 -0.100000 -0.300000
v -0.500000 -0.500000 -0.300000
v -0.100000 -0.500000 -0.300000
v 0.100000 -0.100000 -0.300000
v 0.300000 -0.100000 -0.300000
v 0.100000 -0.500000 -0.300000
v 0.300000 -0.500000 -0.300000
v -0.100000 -0.300000 -0.300000
v 0.100000 -0.300000 -0.300000
v -0.100000 -0.500000 -0.300000
v 0.100000 -0.500000 -0.300000
v -0.100000 0.100000 -0.300000
v 0.100000 0.100000 -0.300000
v -0.100000 -0.300000 -0.300000
v 0.100000 -0.300000 -0.300000
v 0.100000 0.100000 -0.300000
v 0.300000 0.100000 -0.300000
v 0.100000 -0.100000 -0.300000
v 0.300000 -0.100000 -0.300000
v -0.500000 -0.100000 -0.300000
v -0.500000 0.100000 -0.300000
v -0.100000 -0.100000 -0.300000
v -0.100000 0.100000 -0.300000
v -0.100000 0.500000 -0.300000
v 0.300000 0.500000 -0.300000
v -0.100000 0.100000 -0.300000
v 0.300000 0.100000 -0.300000
v -0.300000 0.500000 -0.300000
v -0.100000 0.500000 -0.300000
v -0.300000 0.100000 -0.300000
v -0.100000 0.100000 -0.300000
v -0.500000 0.500000 -0.300000
v -0.300000 0.500000 -0.300000
v -0.500000 0.100000 -0.300000
v -0.300000 0.100000 -0.300000
v 0.300000 0.100000 0.500000
v 0.300000 0.100000 0.100000
v 0.300000 0.500000 0.500000
v 0.300000 0.500000 0.100000
v 0.300000 0.100000 -0.100000
v 0.300000 0.100000 -0.300000
v 0.300000 0.500000 -0.100000
v 0.300000 0.500000 -0.300000
v 0.300000 0.300000 0.100000
v 0.300000 0.300000 -0.100000
v 0.300000 0.500000 0.100000
v 0.300000 0.500000 -0.100000
v 0.300000 -0.100000 0.100000
v 0.300000 -0.100000 -0.100000
v 0.300000 0.300000 0.100000
v 0.300000 0.300000 -0.100000
v 0.300000 -0.100000 -0.100000
v 0.300000 -0.100000 -0.300000
v 0.300000 0.100000 -0.100000
v 0.300000 0.100000 -0.300000
v 0.300000 0.100000 0.500000
v 0.300000 -0.100000 0.500000
v 0.300000 0.100000 0.100000
v 0.300000 -0.100000 0.100000
v 0.300000 -0.500000 0.300000
v 0.300000 -0.500000 -0.100000
v 0.300000 -0.100000 0.300000
v 0.300000 -0.100000 -0.100000
v 0.300000 -0.500000 -0.100000
v 0.300000 -0.500000 -0.300000
v 0.300000 -0.100000 -0.100000
v 0.300000 -0.100000 -0.300000
v 0.300000 -0.500000 0.500000
v 0.300000 -0.500000 0.300000
v 0.300000 -0.100000 0.500000
v 0.300000 -0.100000 0.300000
v 0.300000 -0.100000 0.500000
v -0.100000 -0.100000 0.500000
v 0.300000 -0.500000 0.500000
v -0.100000 -0.500000 0.500000
v -0.300000 -0.100000 0.500000
v -0.500000 -0.100000 0.500000
v -0.300000 -0.500000 0.500000
v -0.500000 -0.500000 0.500000
v -0.100000 -0.300000 0.500000
v -0.300000 -0.300000 0.500000
v -0.100000 -0.500000 0.500000
v -0.300000 -0.500000 0.500000
v -0.100000 0.100000 0.500000
v -0.300000 0.100000 0.500000
v -0.100000 -0.300000 0.500000
v -0.300000 -0.300000 0.500000
v -0.300000 0.100000 0.500000
v -0.500000 0.100000 0.500000
v -0.300000 -0.100000 0.500000
v -0.500000 -0.100000 0.500000
v 0.300000 -0.100000 0.500000
v 0.300000 0.100000 0.500000
v -0.100000 -0.100000 0.500000
v -0.100000 0.100000 0.500000
v -0.100000 0.500000 0.500000
v -0.500000 0.500000 0.500000
v -0.100000 0.100000 0.500000
v -0.500000 0.100000 0.500000
v 0.100000 0.500000 0.500000
v -0.100000 0.500000 0.500000
v 0.100000 0.100000 0.500000
v -0.100000 0.100000 0.500000
v 0.300000 0.500000 0.500000
v 0.100000 0.500000 0.500000
v 0.300000 0.100000 0.500000
v 0.100000 0.100000 0.500000
v -0.500000 -0.100000 0.500000
v -0.500000 -0.100000 0.100000
v -0.500000 -0.500000 0.500000
v -0.500000 -0.500000 0.100000
v -0.500000 -0.100000 -0.100000
v -0.500000 -0.100000 -0.300000
v -0.500000 -0.500000 -0.100000
v -0.500000 -0.500000 -0.300000
v -0.500000 -0.300000 0.100000
v -0.500000 -0.300000 -0.100000
v -0.500000 -0.500000 0.100000
v -0.500000 -0.500000 -0.100000
v -0.500000 0.100000 0.100000
v -0.500000 0.100000 -0.100000
v -0.500000 -0.300000 0.100000
v -0.500000 -0.300000 -0.100000
v -0.500000 0.100000 -0.100000
v -0.500000 0.100000 -0.300000
v -0.500000 -0.100000 -0.100000
v -0.500000 -0.100000 -0.300000
v -0.500000 -0.100000 0.500000
v -0.500000 0.100000 0.500000
v -0.500000 -0.100000 0.100000
v -0.500000 0.100000 0.100000
v -0.500000 0.500000 0.100000
v -0.500000 0.500000 -0.300000
v -0.500000 0.100000 0.100000
v -0.500000 0.100000 -0.300000
v -0.500000 0.500000 0.300000
v -0.500000 0.500000 0.100000
v -0.500000 0.100000 0.300000
v -0.500000 0.100000 0.100000
v -0.500000 0.500000 0.500000
v -0.500000 0.500000 0.300000
v -0.500000 0.100000 0.500000
v -0.500000 0.100000 0.300000
v -0.500000 -0.500000 -0.300000
v 0.300000 -0.500000 -0.300000
v -0.500000 -0.500000 0.500000
v 0.300000 -0.500000 0.500000
vt 0.666667 0.714286
vt 1.000000 0.714286
vt 1.000000 1.000000
vt 0.666667 1.000000
vt 0.333333 0.714286
vt 0.333333 0.571429
vt 0.666667 0.571429
vt -0.000000 1.000000
vt -0.000000 0.857143
vt 0.166667 0.857143
vt 0.166667 1.000000
vt 0.000000 0.571429
vt 0.000000 0.428571
vt 0.333333 0.428571
vt 0.333333 0.857143
vt 0.333333 1.000000
vt 0.666667 0.428571
vt 1.000000 0.428571
vt 0.000000 0.714286
vt 0.000000 0.696429
vt 0.000000 0.553571
vt 0.333333 0.553571
vt 0.333333 0.696429
vt 0.354167 0.714286
vt 0.687500 0.714286
vt 0.687500 1.000000
vt 0.354167 1.000000
vt 0.833333 0.000000
vt 1.000000 0.000000
vt 1.000000 0.142857
vt 0.833333 0.142857
vn 0.000000 0.000000 -1.000000
vn 1.000000 -0.000000 0.000000
vn 0.000000 0.000000 1.000000
vn -1.000000 0.000000 0.000000
vn 0.000000 -1.000000 0.000000
g Adaridge_C_OC_B_Plane.004_None
s off
f 1/1/1 2/2/1 4/3/1 3/4/1
f 5/5/1 6/6/1 8/7/1 7/1/1
f 9/8/1 10/9/1 12/10/1 11/11/1
f 13/12/1 14/13/1 16/14/1 15/6/1
f 17/11/1 18/10/1 20/15/1 19/16/1
f 21/5/1 22/6/1 24/7/1 23/1/1
f 25/17/1 26/18/1 28/2/1 27/1/1
f 29/17/1 30/7/1 32/6/1 31/14/1
f 33/19/1 34/12/1 36/6/1 35/5/1
f 37/1/2 38/2/2 40/3/2 39/4/2
f 41/5/2 42/6/2 44/7/2 43/1/2
f 45/11/2 46/10/2 48/15/2 47/16/2
f 49/5/2 50/6/2 52/7/2 51/1/2
f 53/8/2 54/9/2 56/10/2 55/11/2
f 57/12/2 58/13/2 60/14/2 59/6/2
f 61/2/2 62/1/2 64/17/2 63/18/2
f 65/20/2 66/21/2 68/22/2 67/23/2
f 69/6/2 70/14/2 72/17/2 71/7/2
f 73/17/3 74/18/3 76/2/3 75/1/3
f 77/5/3 78/6/3 80/7/3 79/1/3
f 81/11/3 82/10/3 84/15/3 83/16/3
f 85/5/3 86/6/3 88/7/3 87/1/3
f 89/8/3 90/9/3 92/10/3 91/11/3
f 93/12/3 94/13/3 96/14/3 95/6/3
f 97/24/3 98/25/3 100/26/3 99/27/3
f 101/12/3 102/13/3 104/14/3 103/6/3
f 105/5/3 106/6/3 108/7/3 107/1/3
f 109/17/4 110/18/4 112/2/4 111/1/4
f 113/7/4 114/1/4 116/5/4 115/6/4
f 117/8/4 118/9/4 120/10/4 119/11/4
f 121/14/4 122/6/4 124/12/4 123/13/4
f 125/11/4 126/10/4 128/15/4 127/16/4
f 129/19/4 130/12/4 132/6/4 131/5/4
f 133/1/4 134/2/4 136/3/4 135/4/4
f 137/5/4 138/6/4 140/7/4 139/1/4
f 141/6/4 142/14/4 144/17/4 143/7/4
f 145/28/5 146/29/5 148/30/5 147/31/5
