# Blender v2.74 (sub 0) OBJ File: 'Walls.blend'
# www.blender.org
o Block1_L_T_Cube.023
v 0.495239 0.499916 0.048449
v 0.495239 0.499916 0.513806
v -0.498806 0.499916 0.513806
v -0.498806 0.499916 0.048449
v 0.495239 0.601002 0.048449
v 0.495239 0.601002 0.513806
v -0.498806 0.601002 0.513806
v -0.498806 0.601002 0.048449
v 0.001194 0.000000 0.498638
v 0.001194 0.000000 0.190548
v 0.001194 0.500000 0.498638
v 0.001194 0.500000 0.190548
v 0.184527 0.500000 0.498638
v 0.184527 0.000000 0.498638
v 0.184527 0.500000 0.090548
v 0.184527 0.000000 0.090548
v 0.501194 -0.500000 0.093244
v 0.501194 -0.500000 0.401335
v -0.498806 -0.500000 0.401335
v -0.498806 -0.500000 0.093245
v 0.501194 0.000000 0.093244
v 0.501194 0.000000 0.401335
v -0.498806 0.000000 0.401335
v -0.498806 0.000000 0.093245
v 0.317861 0.000000 0.401335
v -0.315473 0.000000 0.401335
v -0.315473 -0.500000 0.401335
v 0.317861 -0.500000 0.401335
v -0.315473 0.000000 -0.006756
v 0.317861 0.000000 -0.006756
v 0.317861 -0.500000 -0.006756
v -0.315473 -0.500000 -0.006756
v 0.501194 0.000000 0.090548
v 0.501194 0.500000 0.090548
v 0.501194 0.000000 0.498638
v 0.501194 0.500000 0.498638
vt 0.737841 0.685557
vt 0.737841 0.252560
vt 0.818358 0.252560
vt 0.818358 0.685557
vt 0.809494 0.036626
vt 0.809494 0.961548
vt 0.728976 0.961548
vt 0.728976 0.036626
vt 0.686444 0.726327
vt 0.686444 0.293330
vt 0.766962 0.293330
vt 0.766962 0.726327
vt 0.646455 0.947725
vt 0.646454 0.026127
vt 0.726972 0.026127
vt 0.726972 0.947725
vt 0.938979 0.968522
vt 0.568309 0.968522
vt 0.568309 0.043600
vt 0.938979 0.043600
vt 0.931067 0.962697
vt 0.560397 0.962697
vt 0.560397 0.037776
vt 0.931067 0.037776
vt 0.043289 0.378343
vt 0.043289 0.199481
vt 0.460878 0.199481
vt 0.460878 0.378342
vt 0.635006 0.100694
vt 0.880409 0.100694
vt 0.880409 0.565925
vt 0.635006 0.565925
vt 0.926102 0.395456
vt 0.601046 0.395456
vt 0.601046 0.224871
vt 0.846449 0.224871
vt 0.043289 0.687286
vt 0.460878 0.687286
vt 0.587188 0.926035
vt 0.587188 0.460804
vt 0.912244 0.460804
vt 0.912244 0.926035
vt 0.926102 0.690102
vt 0.601046 0.690102
vt 0.623357 0.466912
vt 0.868760 0.466912
vt 0.868760 0.932143
vt 0.623357 0.932143
vt 0.037182 0.184422
vt 0.037182 0.005560
vt 0.454771 0.005560
vt 0.454771 0.184422
vt 0.850306 0.753454
vt 0.604903 0.753454
vt 0.604904 0.288222
vt 0.850306 0.288222
vt 0.915106 0.214237
vt 0.590050 0.214237
vt 0.590050 0.043652
vt 0.835453 0.043652
vt 0.579958 0.808153
vt 0.905013 0.808152
vt 0.905013 0.978737
vt 0.659611 0.978737
vt 0.037182 0.981171
vt 0.037182 0.802309
vt 0.454771 0.802309
vt 0.454771 0.981171
vt 0.835453 0.974115
vt 0.590050 0.974115
vt 0.590050 0.803530
vt 0.915106 0.803530
vt 0.659611 0.048275
vt 0.905013 0.048275
vt 0.905013 0.218860
vt 0.579957 0.218860
vt 0.251839 0.891590
vt 0.251839 0.703647
vt 0.672700 0.703647
vt 0.672700 0.891590
vt 0.672700 0.815338
vt 0.672700 0.986627
vt 0.251839 0.986627
vt 0.251839 0.815338
vt 0.672700 0.006905
vt 0.672700 0.194848
vt 0.251839 0.194848
vt 0.251839 0.006905
vt 0.251839 0.393402
vt 0.672700 0.393402
vn 1.000000 0.000000 -0.000000
vn 0.000000 0.000000 1.000000
vn -1.000000 0.000000 0.000000
vn -0.000000 0.000000 -1.000000
vn 0.000000 -1.000000 0.000000
vn 0.000000 1.000000 -0.000000
vn -0.478900 0.000000 -0.877900
vn 0.478900 0.000000 -0.877900
g Block1_L_T_Cube.023_Top
s off
f 5/1/1 6/2/1 2/3/1 1/4/1
f 6/5/2 7/6/2 3/7/2 2/8/2
f 7/9/3 8/10/3 4/11/3 3/12/3
f 8/13/4 5/14/4 1/15/4 4/16/4
f 1/17/5 2/18/5 3/19/5 4/20/5
f 8/21/6 7/22/6 6/23/6 5/24/6
f 13/25/2 11/26/2 9/27/2 14/28/2
f 11/29/3 12/30/3 10/31/3 9/32/3
f 16/33/5 14/34/5 9/35/5 10/36/5
f 36/37/2 13/25/2 14/28/2 35/38/2
f 33/39/1 34/40/1 36/41/1 35/42/1
f 33/43/5 35/44/5 14/34/5 16/33/5
f 21/45/1 22/46/1 18/47/1 17/48/1
f 26/49/2 23/50/2 19/51/2 27/52/2
f 23/53/3 24/54/3 20/55/3 19/56/3
f 32/57/5 27/58/5 19/59/5 20/60/5
f 30/61/6 25/62/6 22/63/6 21/64/6
f 22/65/2 25/66/2 28/67/2 18/68/2
f 25/66/2 26/49/2 27/52/2 28/67/2
f 17/69/5 18/70/5 28/71/5 31/72/5
f 31/72/5 28/71/5 27/58/5 32/57/5
f 24/73/6 23/74/6 26/75/6 29/76/6
f 29/76/6 26/75/6 25/62/6 30/61/6
g Block1_L_T_Cube.023_Face
f 12/77/7 15/78/7 16/79/7 10/80/7
f 30/81/8 21/82/8 17/83/8 31/84/8
f 24/85/7 29/86/7 32/87/7 20/88/7
f 29/86/4 30/81/4 31/84/4 32/87/4
f 15/78/4 34/89/4 33/90/4 16/79/4
