# Blender v2.77 (sub 1) OBJ File: 'Madison_walls.blend'
# www.blender.org
o Madison_IC_T_Cube.001
v -0.050000 0.500000 0.050000
v -0.050000 0.000000 0.050000
v -0.250000 0.500000 0.050000
v -0.250000 0.000000 0.050000
v -0.050000 0.500000 -0.400000
v -0.050000 0.000000 -0.400000
v -0.250000 0.500000 -0.400000
v -0.250000 0.000000 -0.400000
v -0.510000 -0.500000 -0.500000
v -0.510000 0.600000 -0.500000
v 0.150000 -0.500000 -0.500000
v 0.150000 0.600000 -0.500000
v -0.510000 -0.500000 -0.400000
v -0.510000 0.600000 -0.400000
v 0.150000 -0.500000 -0.400000
v 0.150000 0.600000 -0.400000
v -0.200000 -0.500000 -0.400000
v -0.200000 0.000000 -0.400000
v 0.000000 -0.500000 -0.400000
v 0.000000 0.000000 -0.400000
v -0.200000 -0.500000 0.000000
v -0.200000 0.000000 0.000000
v 0.000000 -0.500000 0.000000
v 0.000000 0.000000 0.000000
v 0.400000 -0.500000 0.510000
v 0.400000 0.600000 0.510000
v 0.400000 -0.500000 -0.150000
v 0.400000 0.600000 -0.150000
v 0.500000 -0.500000 0.510000
v 0.500000 0.600000 0.510000
v 0.500000 -0.500000 -0.150000
v 0.500000 0.600000 -0.150000
v 0.400000 0.500000 0.050000
v 0.400000 0.000000 0.050000
v 0.400000 0.500000 0.250000
v 0.400000 0.000000 0.250000
v -0.250000 0.500000 0.250000
v -0.250000 0.000000 0.250000
v -0.200000 -0.500000 0.200000
v -0.200000 0.000000 0.200000
v 0.400000 -0.500000 0.200000
v 0.400000 0.000000 0.200000
v 0.400000 -0.500000 -0.000000
v 0.400000 0.000000 -0.000000
v -0.050000 0.500000 0.250000
v -0.050000 0.000000 0.250000
v 0.000000 -0.500000 0.200000
v 0.000000 0.000000 0.200000
v 0.000000 0.600000 0.510000
v 0.000000 0.600000 0.000000
v 0.400000 0.600000 0.510000
v 0.400000 0.600000 0.000000
v -0.510000 0.600000 0.510000
v -0.510000 0.600000 0.000000
v 0.000000 0.600000 -0.400000
v -0.510000 0.600000 -0.400000
v 0.000000 0.500000 0.510000
v 0.000000 0.500000 0.000000
v 0.400000 0.500000 0.000000
v 0.400000 0.500000 0.510000
v -0.510000 0.500000 0.510000
v -0.510000 0.500000 0.000000
v 0.000000 0.500000 -0.400000
v -0.510000 0.500000 -0.400000
vt 0.5156 0.0002
vt 0.5156 0.7477
vt 0.0671 0.7477
vt 0.0671 0.0002
vt -0.0009 0.7477
vt -0.0009 0.0002
vt -0.4494 0.7477
vt -0.4494 0.0002
vt 0.9999 0.3742
vt 0.9999 0.7480
vt 0.9659 0.7480
vt 0.9659 0.3742
vt -0.0009 -0.4483
vt 0.0671 -0.4483
vt 0.0671 1.1963
vt -0.0009 1.1963
vt 0.5834 0.0004
vt 0.5832 0.7479
vt 0.1346 0.7478
vt 0.1349 0.0002
vt 0.0667 0.7477
vt 0.0669 0.0002
vt -0.3818 0.7476
vt -0.3816 0.0001
vt 0.9999 0.0001
vt 0.9999 0.3739
vt 0.9659 0.3739
vt 0.9659 0.0001
vt 0.0671 -0.4483
vt 0.1351 -0.4483
vt 0.1345 1.1963
vt 0.0665 1.1963
vt 0.5314 0.0002
vt 0.8302 0.0003
vt 0.8301 0.1331
vt 0.5314 0.1330
vt 0.6162 0.3439
vt 0.6162 0.8908
vt 0.1336 0.8908
vt 0.1336 0.3439
vt 0.8300 0.4650
vt 0.5312 0.4649
vt 0.8300 0.5978
vt 0.5312 0.5977
vt 0.9631 0.5982
vt 0.9631 0.9301
vt 0.8303 0.9301
vt 0.8303 0.5982
vt 0.7454 0.0490
vt 0.7454 0.6913
vt 0.2315 0.6913
vt 0.2315 0.0490
vt 0.8571 0.0002
vt 0.8571 0.3569
vt 0.7144 0.3569
vt 0.7144 0.0002
vt 0.8567 0.5000
vt 0.8567 0.8567
vt 0.5713 0.8567
vt 0.5713 0.5000
vt 0.4287 0.8571
vt 0.7140 0.8571
vt 0.7140 0.9998
vt 0.4287 0.9998
vt 0.7454 0.9483
vt 0.2315 0.9483
vt 0.3190 0.2578
vt 0.6792 0.1909
vt 0.7029 0.3504
vt 0.3869 0.4007
vt 0.7242 0.1430
vt 0.7242 0.6899
vt 0.2416 0.6899
vt 0.2416 0.1430
vt 0.2937 0.4366
vt 0.2722 0.6254
vt 0.1722 0.7124
vt 0.1722 0.3693
vt 0.3825 0.6743
vt 0.3162 0.8079
vt 0.3336 0.4440
vt 0.3336 0.8007
vt 0.1909 0.8007
vt 0.1909 0.4440
vt 0.3231 0.9353
vt 0.3231 0.3085
vt 0.8245 0.3085
vt 0.8245 0.9353
vt 0.4763 0.4440
vt 0.4763 0.8007
vt 0.1429 0.8571
vt 0.4282 0.8571
vt 0.4282 0.9998
vt 0.1429 0.9998
vt 0.0724 0.3085
vt 0.0724 0.0578
vt 0.3231 0.0578
vt 0.6609 0.8914
vt 0.6980 0.7382
vt 0.8245 0.0578
vt 0.0002 0.8571
vt 0.0002 0.9998
vt 0.7616 0.4440
vt 0.7616 0.8007
vt 0.4361 0.9779
vt 0.4361 0.5590
vt 0.9691 0.5590
vt 0.9691 0.9779
vt 0.4361 0.0250
vt 0.9691 0.0250
vt 0.0181 0.5590
vt 0.0181 0.0250
vt 0.6800 0.1926
vt 0.8628 0.4348
vt 0.6704 0.5657
vt 0.4901 0.3360
vt 0.4784 0.6602
vt 0.2942 0.5469
vt 0.1332 0.4146
vt 0.3160 0.1926
vt 0.3316 0.9779
vt 0.3316 0.5590
vt 0.1005 0.4559
vt 0.2658 0.5867
vt 0.4732 0.7086
vt 0.4361 0.6638
vt 0.0181 0.6638
vt 0.6989 0.6167
vt 0.8962 0.4839
vn -0.0000 0.0000 -1.0000
vn 1.0000 0.0000 -0.0000
vn 0.0000 0.0000 1.0000
vn -1.0000 0.0000 0.0000
vn 0.0000 -1.0000 -0.0000
vn 0.0000 1.0000 -0.0000
g Madison_IC_T_Cube.001_Wood
s off
f 9/1/1 10/2/1 12/3/1 11/4/1
f 11/4/2 12/3/2 16/5/2 15/6/2
f 15/6/3 16/5/3 14/7/3 13/8/3
f 13/9/4 14/10/4 10/11/4 9/12/4
f 11/4/5 15/6/5 13/13/5 9/14/5
f 16/5/6 12/3/6 10/15/6 14/16/6
f 25/17/4 26/18/4 28/19/4 27/20/4
f 27/20/1 28/19/1 32/21/1 31/22/1
f 31/22/2 32/21/2 30/23/2 29/24/2
f 29/25/3 30/26/3 26/27/3 25/28/3
f 27/20/5 31/22/5 29/29/5 25/30/5
f 32/21/6 28/19/6 26/31/6 30/32/6
g Madison_IC_T_Cube.001_Stone
f 6/33/5 2/34/5 4/35/5 8/36/5
f 6/37/2 5/38/2 1/39/2 2/40/2
f 4/35/4 3/41/4 7/42/4 8/36/4
f 1/43/6 5/44/6 7/42/6 3/41/6
f 2/45/3 1/46/3 3/47/3 4/48/3
f 19/49/2 20/50/2 24/51/2 23/52/2
f 23/53/3 24/54/3 22/55/3 21/56/3
f 21/57/4 22/58/4 18/59/4 17/60/4
f 19/61/5 23/62/5 21/63/5 17/64/5
f 24/51/6 20/50/6 18/65/6 22/66/6
f 2/67/5 34/68/5 36/69/5 46/70/5
f 2/71/1 1/72/1 33/73/1 34/74/1
f 38/75/4 37/76/4 3/77/4 4/78/4
f 46/70/3 45/79/3 37/76/3 38/75/3
f 1/80/6 3/77/6 37/76/6 45/79/6
f 39/81/4 40/82/4 22/83/4 21/84/4
f 23/85/1 24/86/1 44/87/1 43/88/1
f 47/89/3 48/90/3 40/82/3 39/81/3
f 23/91/5 43/92/5 41/93/5 47/94/5
f 24/86/6 22/95/6 40/96/6 48/97/6
f 33/98/6 1/80/6 45/79/6 35/99/6
f 36/69/3 35/99/3 45/79/3 46/70/3
f 4/78/5 2/67/5 46/70/5 38/75/5
f 44/87/6 24/86/6 48/97/6 42/100/6
f 21/101/5 23/91/5 47/94/5 39/102/5
f 41/103/3 42/104/3 48/90/3 47/89/3
f 52/105/6 50/106/6 49/107/6 51/108/6
f 49/107/6 50/106/6 54/109/6 53/110/6
f 54/109/6 50/106/6 55/111/6 56/112/6
f 59/113/5 60/114/5 57/115/5 58/116/5
f 57/115/5 61/117/5 62/118/5 58/116/5
f 62/118/5 64/119/5 63/120/5 58/116/5
f 52/105/1 59/121/1 58/122/1 50/106/1
f 56/123/4 64/119/4 62/118/4 54/124/4
f 54/124/4 62/118/4 61/117/4 53/125/4
f 50/106/2 58/126/2 63/127/2 55/111/2
f 53/125/3 61/117/3 57/115/3 49/128/3
f 49/128/3 57/115/3 60/114/3 51/129/3
