# Blender v2.74 (sub 0) OBJ File: 'Walls.blend'
# www.blender.org
o Block1_L_B_Cube.024
v 0.001194 0.000000 0.298638
v 0.001194 0.000000 -0.009452
v 0.001194 0.500000 0.298638
v 0.001194 0.500000 -0.009452
v 0.184527 0.500000 0.298638
v 0.184527 0.000000 0.298638
v 0.184527 0.500000 -0.109452
v 0.184527 0.000000 -0.109452
v 0.501194 -0.500000 -0.106756
v 0.501194 -0.500000 0.201335
v -0.498806 -0.500000 0.201335
v -0.498806 -0.500000 -0.106755
v 0.501194 0.000000 -0.106756
v 0.501194 0.000000 0.201335
v -0.498806 0.000000 0.201335
v -0.498806 0.000000 -0.106755
v 0.317861 0.000000 0.201335
v -0.315473 0.000000 0.201335
v -0.315473 -0.500000 0.201335
v 0.317861 -0.500000 0.201335
v -0.315473 0.000000 -0.206756
v 0.317861 0.000000 -0.206756
v 0.317861 -0.500000 -0.206756
v -0.315473 -0.500000 -0.206756
v 0.501194 0.000000 -0.109452
v 0.501194 0.500000 -0.109452
v 0.501194 0.000000 0.298638
v 0.501194 0.500000 0.298638
vt 0.435772 0.193927
vt 0.435772 0.018069
vt 0.934259 0.018069
vt 0.934259 0.193927
vt 0.489082 0.338969
vt 0.489082 0.647620
vt 0.007139 0.647620
vt 0.007139 0.338969
vt 0.427113 0.782580
vt 0.833968 0.782580
vt 0.833968 0.958438
vt 0.526810 0.958438
vt 0.435773 0.497681
vt 0.934259 0.497680
vt 0.026084 0.308608
vt 0.508027 0.308608
vt 0.508027 0.717441
vt 0.026084 0.717441
vt 0.427113 0.478826
vt 0.833968 0.478827
vt 0.742930 0.977292
vt 0.435773 0.977292
vt 0.435773 0.801434
vt 0.842627 0.801434
vt 0.489082 0.336425
vt 0.489082 0.645076
vt 0.007139 0.645076
vt 0.007139 0.336425
vt 0.015293 0.188879
vt 0.015293 0.012166
vt 0.516203 0.012166
vt 0.516203 0.188879
vt 0.014729 0.657712
vt 0.014729 0.349061
vt 0.496672 0.349061
vt 0.496672 0.657712
vt 0.419560 0.786387
vt 0.826414 0.786387
vt 0.826414 0.962244
vt 0.519257 0.962244
vt 0.420589 0.793940
vt 0.827443 0.793940
vt 0.827443 0.969798
vt 0.520286 0.969798
vt 0.015293 0.976053
vt 0.015293 0.799340
vt 0.516203 0.799340
vt 0.516203 0.976053
vt 0.519257 0.003022
vt 0.826414 0.003022
vt 0.826414 0.178880
vt 0.419560 0.178880
vt 0.520286 0.010575
vt 0.827443 0.010575
vt 0.827443 0.186433
vt 0.420589 0.186433
vt 0.842627 0.497681
vt 0.681252 0.254856
vt 0.681252 0.445481
vt 0.167015 0.445481
vt 0.167014 0.254857
vt 0.167014 0.176812
vt 0.167014 0.006531
vt 0.681251 0.006531
vt 0.681251 0.176812
vt 0.167015 0.990820
vt 0.167015 0.800196
vt 0.681252 0.800196
vt 0.681252 0.990820
vt 0.681252 0.757173
vt 0.167015 0.757173
vn 0.000000 0.000000 1.000000
vn -1.000000 0.000000 0.000000
vn 0.000000 -1.000000 -0.000000
vn 1.000000 0.000000 -0.000000
vn 0.000000 1.000000 0.000000
vn -0.478900 0.000000 -0.877900
vn 0.478900 0.000000 -0.877900
vn -0.000000 0.000000 -1.000000
g Block1_L_B_Cube.024_Top
s off
f 5/1/1 3/2/1 1/3/1 6/4/1
f 3/5/2 4/6/2 2/7/2 1/8/2
f 8/9/3 6/10/3 1/11/3 2/12/3
f 28/13/1 5/1/1 6/4/1 27/14/1
f 25/15/4 26/16/4 28/17/4 27/18/4
f 25/19/3 27/20/3 6/10/3 8/9/3
f 4/21/5 3/22/5 5/23/5 7/24/5
f 13/25/4 14/26/4 10/27/4 9/28/4
f 18/29/1 15/30/1 11/31/1 19/32/1
f 15/33/2 16/34/2 12/35/2 11/36/2
f 24/37/3 19/38/3 11/39/3 12/40/3
f 22/41/5 17/42/5 14/43/5 13/44/5
f 14/45/1 17/46/1 20/47/1 10/48/1
f 17/46/1 18/29/1 19/32/1 20/47/1
f 9/49/3 10/50/3 20/51/3 23/52/3
f 23/52/3 20/51/3 19/38/3 24/37/3
f 16/53/5 15/54/5 18/55/5 21/56/5
f 21/56/5 18/55/5 17/42/5 22/41/5
f 7/24/5 5/23/5 28/13/5 26/57/5
g Block1_L_B_Cube.024_Face
f 4/58/6 7/59/6 8/60/6 2/61/6
f 22/62/7 13/63/7 9/64/7 23/65/7
f 16/66/6 21/67/6 24/68/6 12/69/6
f 21/67/8 22/62/8 23/65/8 24/68/8
f 7/59/8 26/70/8 25/71/8 8/60/8
