# Blender v2.76 (sub 2) OBJ File: 'Adaridge_walls.blend'
# www.blender.org
o Adaridge_C_IC_B_Plane.006
v -0.500000 -0.500000 0.500000
v -0.100000 -0.500000 0.500000
v -0.500000 -0.100000 0.500000
v -0.100000 -0.100000 0.500000
v -0.100000 -0.300000 0.500000
v -0.100000 -0.500000 0.500000
v 0.300000 -0.300000 0.500000
v 0.300000 -0.500000 0.500000
v 0.300000 -0.100000 0.500000
v 0.500000 -0.100000 0.500000
v 0.300000 0.100000 0.500000
v 0.500000 0.100000 0.500000
v 0.100000 0.100000 0.500000
v 0.500000 0.100000 0.500000
v 0.100000 0.500000 0.500000
v 0.500000 0.500000 0.500000
v 0.100000 0.100000 0.500000
v -0.100000 0.100000 0.500000
v 0.100000 -0.300000 0.500000
v -0.100000 -0.300000 0.500000
v -0.500000 0.100000 0.500000
v -0.500000 -0.100000 0.500000
v -0.100000 0.100000 0.500000
v -0.100000 -0.100000 0.500000
v -0.300000 0.500000 0.500000
v -0.500000 0.500000 0.500000
v -0.300000 0.100000 0.500000
v -0.500000 0.100000 0.500000
v -0.300000 0.100000 0.500000
v 0.100000 0.100000 0.500000
v -0.300000 0.500000 0.500000
v 0.100000 0.500000 0.500000
v 0.300000 0.100000 0.500000
v 0.100000 0.100000 0.500000
v 0.300000 -0.300000 0.500000
v 0.100000 -0.300000 0.500000
v 0.500000 -0.100000 0.500000
v 0.300000 -0.100000 0.500000
v 0.500000 -0.500000 0.500000
v 0.300000 -0.500000 0.500000
v -0.500000 -0.500000 -0.500000
v -0.500000 -0.500000 -0.100000
v -0.500000 -0.100000 -0.500000
v -0.500000 -0.100000 -0.100000
v -0.500000 0.100000 0.100000
v -0.500000 -0.100000 0.100000
v -0.500000 0.100000 0.500000
v -0.500000 -0.100000 0.500000
v -0.500000 -0.500000 -0.100000
v -0.500000 -0.500000 0.100000
v -0.500000 -0.300000 -0.100000
v -0.500000 -0.300000 0.100000
v -0.500000 0.100000 0.100000
v -0.500000 0.100000 0.500000
v -0.500000 0.500000 0.100000
v -0.500000 0.500000 0.500000
v -0.500000 0.100000 0.100000
v -0.500000 0.100000 -0.100000
v -0.500000 -0.300000 0.100000
v -0.500000 -0.300000 -0.100000
v -0.500000 0.100000 -0.500000
v -0.500000 -0.100000 -0.500000
v -0.500000 0.100000 -0.100000
v -0.500000 -0.100000 -0.100000
v -0.500000 0.500000 -0.300000
v -0.500000 0.500000 -0.500000
v -0.500000 0.100000 -0.300000
v -0.500000 0.100000 -0.500000
v -0.500000 0.100000 -0.300000
v -0.500000 0.100000 0.100000
v -0.500000 0.500000 -0.300000
v -0.500000 0.500000 0.100000
v -0.500000 -0.100000 0.300000
v -0.500000 -0.100000 0.100000
v -0.500000 -0.500000 0.300000
v -0.500000 -0.500000 0.100000
v -0.500000 -0.100000 0.500000
v -0.500000 -0.100000 0.300000
v -0.500000 -0.500000 0.500000
v -0.500000 -0.500000 0.300000
v 0.500000 -0.300000 -0.500000
v 0.100000 -0.300000 -0.500000
v 0.500000 0.100000 -0.500000
v 0.100000 0.100000 -0.500000
v -0.100000 0.100000 -0.500000
v -0.100000 -0.100000 -0.500000
v -0.500000 0.100000 -0.500000
v -0.500000 -0.100000 -0.500000
v 0.100000 -0.500000 -0.500000
v -0.100000 -0.500000 -0.500000
v 0.100000 -0.300000 -0.500000
v -0.100000 -0.300000 -0.500000
v -0.100000 -0.500000 -0.500000
v -0.500000 -0.500000 -0.500000
v -0.100000 -0.100000 -0.500000
v -0.500000 -0.100000 -0.500000
v -0.100000 0.100000 -0.500000
v 0.100000 0.100000 -0.500000
v -0.100000 -0.300000 -0.500000
v 0.100000 -0.300000 -0.500000
v 0.500000 -0.300000 -0.500000
v 0.500000 -0.500000 -0.500000
v 0.100000 -0.300000 -0.500000
v 0.100000 -0.500000 -0.500000
v 0.300000 0.500000 -0.500000
v 0.500000 0.500000 -0.500000
v 0.300000 0.100000 -0.500000
v 0.500000 0.100000 -0.500000
v 0.300000 0.100000 -0.500000
v -0.100000 0.100000 -0.500000
v 0.300000 0.500000 -0.500000
v -0.100000 0.500000 -0.500000
v -0.300000 0.500000 -0.500000
v -0.100000 0.500000 -0.500000
v -0.300000 0.100000 -0.500000
v -0.100000 0.100000 -0.500000
v -0.500000 0.500000 -0.500000
v -0.300000 0.500000 -0.500000
v -0.500000 0.100000 -0.500000
v -0.300000 0.100000 -0.500000
v 0.500000 -0.500000 0.500000
v 0.500000 -0.500000 0.100000
v 0.500000 -0.100000 0.500000
v 0.500000 -0.100000 0.100000
v 0.500000 -0.300000 0.100000
v 0.500000 -0.500000 0.100000
v 0.500000 -0.300000 -0.300000
v 0.500000 -0.500000 -0.300000
v 0.500000 -0.500000 -0.300000
v 0.500000 -0.500000 -0.500000
v 0.500000 -0.300000 -0.300000
v 0.500000 -0.300000 -0.500000
v 0.500000 -0.300000 -0.100000
v 0.500000 -0.300000 -0.500000
v 0.500000 0.100000 -0.100000
v 0.500000 0.100000 -0.500000
v 0.500000 0.100000 -0.100000
v 0.500000 0.100000 0.100000
v 0.500000 -0.300000 -0.100000
v 0.500000 -0.300000 0.100000
v 0.500000 0.100000 0.500000
v 0.500000 -0.100000 0.500000
v 0.500000 0.100000 0.100000
v 0.500000 -0.100000 0.100000
v 0.500000 0.500000 0.300000
v 0.500000 0.500000 0.500000
v 0.500000 0.100000 0.300000
v 0.500000 0.100000 0.500000
v 0.500000 0.100000 0.300000
v 0.500000 0.100000 -0.100000
v 0.500000 0.500000 0.300000
v 0.500000 0.500000 -0.100000
v 0.500000 0.500000 -0.300000
v 0.500000 0.500000 -0.100000
v 0.500000 0.100000 -0.300000
v 0.500000 0.100000 -0.100000
v 0.500000 0.500000 -0.500000
v 0.500000 0.500000 -0.300000
v 0.500000 0.100000 -0.500000
v 0.500000 0.100000 -0.300000
v -0.500000 -0.500000 -0.500000
v 0.500000 -0.500000 -0.500000
v -0.500000 -0.500000 0.500000
v 0.500000 -0.500000 0.500000
vt 0.333333 0.714286
vt 0.666667 0.714286
vt 0.666667 1.000000
vt 0.333333 1.000000
vt 0.333333 0.571429
vt 0.333333 0.428571
vt 0.666667 0.428571
vt 0.666667 0.571429
vt -0.000000 0.857143
vt -0.000000 0.714286
vt 0.166667 0.714286
vt 0.166667 0.857143
vt 1.000000 0.714286
vt 1.000000 1.000000
vt 0.000000 0.571429
vt 0.000000 0.428571
vt 1.000000 0.428571
vt 0.333333 0.857143
vt -0.000000 1.000000
vt 0.166667 1.000000
vt 0.833333 -0.000000
vt 1.000000 -0.000000
vt 1.000000 0.142857
vt 0.833333 0.142857
vn 0.000000 0.000000 1.000000
vn -1.000000 0.000000 0.000000
vn 0.000000 0.000000 -1.000000
vn 1.000000 0.000000 -0.000000
vn 0.000000 -1.000000 0.000000
g Adaridge_C_IC_B_Plane.006_None
s off
f 1/1/1 2/2/1 4/3/1 3/4/1
f 5/5/1 6/6/1 8/7/1 7/8/1
f 9/9/1 10/10/1 12/11/1 11/12/1
f 13/2/1 14/13/1 16/14/1 15/3/1
f 17/15/1 18/16/1 20/6/1 19/5/1
f 21/1/1 22/5/1 24/8/1 23/2/1
f 25/5/1 26/6/1 28/7/1 27/8/1
f 29/7/1 30/17/1 32/13/1 31/2/1
f 33/10/1 34/15/1 36/5/1 35/1/1
f 37/1/1 38/5/1 40/8/1 39/2/1
f 41/7/2 42/17/2 44/13/2 43/2/2
f 45/1/2 46/5/2 48/8/2 47/2/2
f 49/12/2 50/11/2 52/1/2 51/18/2
f 53/1/2 54/2/2 56/3/2 55/4/2
f 57/1/2 58/5/2 60/8/2 59/2/2
f 61/5/2 62/6/2 64/7/2 63/8/2
f 65/1/2 66/5/2 68/8/2 67/2/2
f 69/2/2 70/13/2 72/14/2 71/3/2
f 73/15/2 74/16/2 76/6/2 75/5/2
f 77/1/2 78/5/2 80/8/2 79/2/2
f 81/1/3 82/2/3 84/3/3 83/4/3
f 85/5/3 86/1/3 88/10/3 87/15/3
f 89/19/3 90/9/3 92/12/3 91/20/3
f 93/2/3 94/13/3 96/14/3 95/3/3
f 97/7/3 98/8/3 100/5/3 99/6/3
f 101/15/3 102/16/3 104/6/3 103/5/3
f 105/10/3 106/15/3 108/5/3 107/1/3
f 109/7/3 110/17/3 112/13/3 111/2/3
f 113/5/3 114/6/3 116/7/3 115/8/3
f 117/1/3 118/5/3 120/8/3 119/2/3
f 121/1/4 122/2/4 124/3/4 123/4/4
f 125/1/4 126/5/4 128/8/4 127/2/4
f 129/20/4 130/12/4 132/18/4 131/4/4
f 133/7/4 134/17/4 136/13/4 135/2/4
f 137/5/4 138/6/4 140/7/4 139/8/4
f 141/10/4 142/15/4 144/5/4 143/1/4
f 145/8/4 146/2/4 148/1/4 147/5/4
f 149/2/4 150/13/4 152/14/4 151/3/4
f 153/15/4 154/16/4 156/6/4 155/5/4
f 157/5/4 158/6/4 160/7/4 159/8/4
f 161/21/5 162/22/5 164/23/5 163/24/5
