# Blender v2.74 (sub 5) OBJ File: 'Walls.blend'
# www.blender.org
o Column_M_T_Cube.004
v 0.495239 0.499740 -0.351551
v 0.495239 0.499740 0.513806
v -0.498806 0.499740 0.513806
v -0.498806 0.499740 -0.351551
v 0.495239 0.600283 -0.351551
v 0.495239 0.600283 0.513806
v -0.498806 0.600283 0.513806
v -0.498806 0.600283 -0.351551
v 0.495239 0.600283 0.033948
v 0.495239 0.499740 0.033948
v -0.498806 0.600283 0.033948
v -0.498806 0.499740 0.033948
v 0.544185 0.499740 -0.351551
v 0.544185 0.600283 -0.351551
v 0.544185 0.499740 0.033948
v 0.544185 0.600283 0.033948
v -0.547752 0.600283 0.033948
v -0.547752 0.600283 -0.351551
v -0.547752 0.499740 -0.351551
v -0.547752 0.499740 0.033948
v -0.001783 0.600283 0.513806
v -0.001783 0.499740 0.513806
v -0.001784 0.600283 -0.351551
v -0.001783 0.499740 -0.351551
v -0.001783 0.713743 0.136952
v -0.500000 -0.500000 0.500000
v -0.500000 0.500000 0.500000
v -0.500000 -0.500000 -0.300000
v -0.500000 0.500000 -0.300000
v 0.500000 -0.500000 0.500000
v 0.500000 0.500000 0.500000
v 0.500000 -0.500000 -0.300000
v 0.500000 0.500000 -0.300000
v -0.210000 0.350000 -0.300000
v -0.210000 -0.350000 -0.300000
v 0.210000 0.350000 -0.300000
v 0.210000 -0.350000 -0.300000
v -0.210000 0.350000 -0.200000
v -0.210000 -0.350000 -0.200000
v 0.210000 0.350000 -0.200000
v 0.210000 -0.350000 -0.200000
vt 0.579596 0.219018
vt 0.579596 0.645392
vt 0.492388 0.645392
vt 0.492388 0.219018
vt 0.473238 0.502290
vt 0.473238 0.060664
vt 0.560446 0.060664
vt 0.560447 0.502290
vt 0.464154 0.934162
vt 0.551362 0.934162
vt 0.551362 0.977652
vt 0.464154 0.977652
vt 0.464154 0.492537
vt 0.464153 0.050911
vt 0.551362 0.050911
vt 0.551362 0.492537
vt 0.450984 0.489927
vt 0.132310 0.489927
vt 0.132310 0.059441
vt 0.538026 0.059441
vt 0.863963 0.489927
vt 0.863963 0.059441
vt 0.225251 0.592912
vt 0.225250 0.166539
vt 0.312459 0.166539
vt 0.312459 0.592912
vt 0.464153 0.007421
vt 0.551362 0.007421
vt 0.610904 0.289019
vt 0.610904 0.631551
vt 0.523696 0.631551
vt 0.523696 0.289019
vt 0.943367 0.248228
vt 0.943367 0.337564
vt 0.900914 0.337564
vt 0.900914 0.248228
vt 0.554852 0.166539
vt 0.554852 0.509071
vt 0.512398 0.509071
vt 0.512398 0.166539
vt 0.538026 0.017047
vt 0.863963 0.017047
vt 0.641589 0.590760
vt 0.641589 0.248228
vt 0.728797 0.248228
vt 0.728797 0.590760
vt 0.858459 0.337564
vt 0.858459 0.248228
vt 0.478637 0.703216
vt 0.478637 0.360684
vt 0.521091 0.360684
vt 0.521091 0.703216
vt 0.538026 0.920413
vt 0.863963 0.920413
vt 0.863963 0.962806
vt 0.538026 0.962806
vt 0.132310 0.920413
vt 0.473238 0.943915
vt 0.560446 0.943915
vt 0.098343 0.047414
vt 0.797971 0.047414
vt 0.797971 0.943294
vt 0.098344 0.943294
vt 0.037502 0.030911
vt 0.939162 0.030911
vt 0.803913 0.298774
vt 0.172751 0.298774
vt 0.892183 0.964246
vt 0.159831 0.964246
vt 0.159831 0.026462
vt 0.892183 0.026462
vt 0.019074 0.005154
vt 0.977432 0.005154
vt 0.977432 0.986902
vt 0.019074 0.986902
vt 0.817422 0.930372
vt 0.126152 0.930372
vt 0.126152 0.045195
vt 0.817422 0.045195
vt 0.138513 0.166539
vt 0.138513 0.788518
vt 0.051776 0.788518
vt 0.051776 0.166539
vt 0.939162 0.954577
vt 0.803913 0.686714
vt 0.037502 0.954578
vt 0.172751 0.686715
vt 0.796426 0.320381
vt 0.796426 0.676266
vt 0.188809 0.676266
vt 0.188809 0.320381
vt 0.225250 0.788518
vt 0.641589 0.621416
vt 0.554852 0.621416
vt 0.554852 0.248228
vt 0.399667 0.539726
vt 0.399667 0.166539
vt 0.486404 0.166539
vt 0.486404 0.539726
vn 1.000000 0.000000 -0.000000
vn 0.000000 0.000000 1.000000
vn 0.000000 0.000000 -1.000000
vn 0.125800 0.983500 0.130200
vn 0.099400 0.986800 -0.128100
vn -1.000000 0.000000 0.000000
vn 0.000000 -1.000000 -0.000000
vn 0.000000 1.000000 0.000000
vn -0.099400 0.986800 -0.128100
vn -0.125800 0.983500 0.130200
s off
f 9/1/1 6/2/1 2/3/1 10/4/1
f 21/5/2 7/6/2 3/7/2 22/8/2
f 8/9/3 4/10/3 19/11/3 18/12/3
f 23/13/3 5/14/3 1/15/3 24/16/3
f 25/17/4 21/18/4 6/19/4 9/20/4
f 23/21/5 25/17/5 9/20/5 5/22/5
f 7/23/6 11/24/6 12/25/6 3/26/6
f 1/15/3 5/14/3 14/27/3 13/28/3
f 14/29/1 16/30/1 15/31/1 13/32/1
f 9/33/2 10/34/2 15/35/2 16/36/2
f 10/37/7 1/38/7 13/39/7 15/40/7
f 5/22/8 9/20/8 16/41/8 14/42/8
f 17/43/6 18/44/6 19/45/6 20/46/6
f 12/47/2 11/48/2 17/36/2 20/35/2
f 4/49/7 12/50/7 20/51/7 19/52/7
f 11/53/8 8/54/8 18/55/8 17/56/8
f 8/54/9 11/53/9 25/17/9 23/21/9
f 11/53/10 7/57/10 21/18/10 25/17/10
f 8/9/3 23/13/3 24/16/3 4/10/3
f 6/58/2 21/5/2 22/8/2 2/59/2
f 27/60/6 29/61/6 28/62/6 26/63/6
f 33/64/3 32/65/3 37/66/3 36/67/3
f 33/68/1 31/69/1 30/70/1 32/71/1
f 31/72/2 27/73/2 26/74/2 30/75/2
f 26/76/7 28/77/7 32/78/7 30/79/7
f 36/80/6 37/81/6 41/82/6 40/83/6
f 32/65/3 28/84/3 35/85/3 37/66/3
f 29/86/3 33/64/3 36/67/3 34/87/3
f 28/84/3 29/86/3 34/87/3 35/85/3
f 38/88/3 40/89/3 41/90/3 39/91/3
f 35/81/1 34/80/1 38/24/1 39/92/1
f 37/44/8 35/93/8 39/94/8 41/95/8
f 34/96/7 36/97/7 40/98/7 38/99/7
