# Blender v2.77 (sub 1) OBJ File: 'Madison_walls.blend'
# www.blender.org
o Madison_C_T.002_Cube.019
v 0.400000 0.500000 0.050000
v 0.400000 -0.000000 0.050000
v 0.400000 0.500000 0.250000
v 0.400000 -0.000000 0.250000
v -0.400000 0.500000 0.050000
v -0.400000 -0.000000 0.050000
v -0.400000 0.500000 0.250000
v -0.400000 -0.000000 0.250000
v -0.500000 -0.500000 0.510000
v -0.500000 0.600000 0.510000
v -0.500000 -0.500000 -0.150000
v -0.500000 0.600000 -0.150000
v -0.400000 -0.500000 0.510000
v -0.400000 0.600000 0.510000
v -0.400000 -0.500000 -0.150000
v -0.400000 0.600000 -0.150000
v -0.400000 -0.500000 0.200000
v -0.400000 -0.000000 0.200000
v -0.400000 -0.500000 0.000000
v -0.400000 -0.000000 0.000000
v 0.400000 -0.500000 0.200000
v 0.400000 -0.000000 0.200000
v 0.400000 -0.500000 0.000000
v 0.400000 -0.000000 0.000000
v 0.400000 -0.500000 0.510000
v 0.400000 0.600000 0.510000
v 0.400000 -0.500000 -0.150000
v 0.400000 0.600000 -0.150000
v 0.500000 -0.500000 0.510000
v 0.500000 0.600000 0.510000
v 0.500000 -0.500000 -0.150000
v 0.500000 0.600000 -0.150000
v -0.400000 0.600000 0.510000
v -0.400000 0.600000 0.000000
v 0.400000 0.600000 0.510000
v 0.400000 0.600000 0.000000
v -0.400000 0.500000 0.510000
v -0.400000 0.500000 0.000000
v 0.400000 0.500000 0.510000
v 0.400000 0.500000 0.000000
vt 0.5150 0.0003
vt 0.5150 0.7479
vt 0.0664 0.7479
vt 0.0664 0.0003
vt -0.0016 0.7479
vt -0.0016 0.0003
vt -0.4502 0.7479
vt -0.4502 0.0003
vt 0.9999 0.0001
vt 0.9999 0.3740
vt 0.9659 0.3740
vt 0.9659 0.0001
vt -0.0016 -0.4483
vt 0.0664 -0.4483
vt 0.0664 1.1965
vt -0.0016 1.1965
vt 0.5826 0.0003
vt 0.5826 0.7479
vt 0.1340 0.7479
vt 0.1340 0.0003
vt 0.0660 0.7479
vt 0.0660 0.0003
vt -0.3825 0.7479
vt -0.3825 0.0003
vt 0.9999 0.3743
vt 0.9999 0.7481
vt 0.9659 0.7481
vt 0.9659 0.3743
vt 0.0660 -0.4483
vt 0.1340 -0.4483
vt 0.1340 1.1965
vt 0.0660 1.1965
vt 0.0685 0.0395
vt 0.5683 0.0395
vt 0.5683 0.1645
vt 0.0685 0.1645
vt 0.0685 0.9141
vt 0.0685 0.6017
vt 0.5683 0.6017
vt 0.5683 0.9141
vt 0.5683 0.4768
vt 0.0685 0.4768
vt 0.3094 0.9265
vt 0.3094 0.6142
vt 0.8092 0.6142
vt 0.8092 0.9265
vt 0.8092 0.1769
vt 0.8092 0.4892
vt 0.3094 0.4892
vt 0.3094 0.1769
vt 0.3094 0.0520
vt 0.8092 0.0520
vt 0.6557 0.5000
vt 0.0001 0.5000
vt 0.0001 0.0820
vt 0.6557 0.0820
vt 0.6557 0.5820
vt 0.6557 0.9999
vt 0.0001 0.9999
vt 0.0001 0.5820
vt 0.0001 0.0001
vt 0.6557 0.0001
vn -1.0000 0.0000 0.0000
vn 0.0000 0.0000 -1.0000
vn 1.0000 0.0000 0.0000
vn 0.0000 0.0000 1.0000
vn 0.0000 -1.0000 0.0000
vn 0.0000 1.0000 0.0000
g Madison_C_T.002_Cube.019_Wood
s off
f 9/1/1 10/2/1 12/3/1 11/4/1
f 11/4/2 12/3/2 16/5/2 15/6/2
f 15/6/3 16/5/3 14/7/3 13/8/3
f 13/9/4 14/10/4 10/11/4 9/12/4
f 11/4/5 15/6/5 13/13/5 9/14/5
f 16/5/6 12/3/6 10/15/6 14/16/6
f 25/17/1 26/18/1 28/19/1 27/20/1
f 27/20/2 28/19/2 32/21/2 31/22/2
f 31/22/3 32/21/3 30/23/3 29/24/3
f 29/25/4 30/26/4 26/27/4 25/28/4
f 27/20/5 31/22/5 29/29/5 25/30/5
f 32/21/6 28/19/6 26/31/6 30/32/6
g Madison_C_T.002_Cube.019_Stone
f 6/33/5 2/34/5 4/35/5 8/36/5
f 6/37/2 5/38/2 1/39/2 2/40/2
f 4/35/4 3/41/4 7/42/4 8/36/4
f 1/39/6 5/38/6 7/42/6 3/41/6
f 19/43/2 20/44/2 24/45/2 23/46/2
f 21/47/4 22/48/4 18/49/4 17/50/4
f 19/51/5 23/52/5 21/47/5 17/50/5
f 24/45/6 20/44/6 18/49/6 22/48/6
f 36/53/6 34/54/6 33/55/6 35/56/6
f 40/57/5 39/58/5 37/59/5 38/60/5
f 33/55/4 37/61/4 39/62/4 35/56/4
f 36/53/2 40/57/2 38/60/2 34/54/2
