# Blender v2.75 (sub 4) OBJ File: 'Retaining_wall.blend'
# www.blender.org
o Adaridge_R_B_Cube.007
v 0.300000 -0.300000 -0.248631
v 0.700000 -0.500000 -0.248631
v 0.300000 -0.500000 -0.248631
v 0.700000 -0.100000 -0.248631
v 0.700000 -0.300000 -0.248631
v -0.100000 -0.500000 -0.248631
v 0.300000 -0.100000 -0.248631
v -0.300000 -0.500000 -0.248631
v -0.300000 -0.100000 -0.248631
v -0.100000 -0.100000 -0.248631
v -0.100000 0.300000 -0.048631
v 0.300000 0.500000 -0.148631
v -0.100000 0.500000 -0.148631
v 0.300000 0.300000 -0.148631
v -0.100000 0.300000 -0.148631
v -0.500000 -0.100000 -0.148631
v -0.500000 0.500000 -0.048631
v -0.500000 0.100000 -0.048631
v -0.100000 0.500000 -0.048631
v -0.100000 0.100000 -0.148631
v -0.500000 0.100000 -0.148631
v -0.100000 -0.100000 -0.148631
v 0.700000 -0.100000 -0.048631
v 0.300000 -0.100000 -0.048631
v -0.300000 -0.100000 -0.048631
v -0.500000 -0.100000 -0.048631
v -0.100000 0.100000 -0.048631
v -0.100000 -0.100000 -0.048631
v -0.500000 -0.100000 -0.048631
v 0.300000 0.300000 -0.048631
v -0.500000 0.500000 -0.048631
v -0.300000 -0.300000 -0.248631
v 0.700000 -0.500000 -0.048631
v 0.700000 -0.300000 -0.048631
v 0.300000 0.500000 -0.048631
v -0.500000 0.100000 -0.048631
v -0.500000 0.500000 0.251369
v -0.100000 0.500000 0.251369
v 0.700000 -0.100000 0.151369
v 0.300000 -0.100000 0.251369
v -0.500000 -0.100000 0.251369
v -0.500000 0.500000 0.251369
v -0.500000 -0.500000 0.151369
v -0.500000 -0.100000 0.151369
v 0.700000 -0.500000 0.151369
v 0.700000 -0.300000 0.151369
v 0.300000 0.500000 0.251369
v 0.300000 0.300000 0.251369
v -0.500000 0.100000 0.251369
v -0.300000 -0.300000 -0.248631
v -0.300000 -0.100000 -0.248631
v -0.300000 -0.500000 -0.248631
v -0.500000 -0.300000 -0.248631
v -0.500000 -0.100000 -0.248631
v -0.500000 -0.300000 -0.248631
v -0.500000 -0.500000 -0.248631
v -0.300000 -0.100000 -0.068631
v -0.500000 -0.100000 -0.068631
v -0.500000 -0.300000 0.151369
v -0.500000 -0.100000 0.151369
v -0.500000 -0.300000 0.151369
v -0.500000 -0.500000 0.151369
v 0.700000 -0.100000 -0.048631
v 0.300000 -0.100000 -0.048631
v 0.700000 -0.100000 0.151369
v 0.300000 -0.100000 0.151369
v 0.300000 -0.100000 0.151369
v -0.500000 -0.100000 0.151369
vt 0.666667 0.428571
vt 0.666667 0.571429
vt 0.333333 0.571429
vt 0.333333 0.428571
vt 0.166667 0.946429
vt -0.000000 0.946429
vt -0.000000 0.857143
vt 0.166667 0.857143
vt 0.606510 0.428339
vt 0.606510 0.571661
vt 0.534849 0.571661
vt 0.534849 0.428339
vt 0.250000 0.428571
vt 0.250000 0.571429
vt 0.666667 0.500000
vt 0.333333 0.500000
vt 0.333333 0.714286
vt 0.000000 0.714286
vt -0.000000 0.642857
vt 0.333333 0.642857
vt 1.000000 0.714286
vt 0.666667 0.714286
vt 1.000000 0.500000
vt 1.000000 1.000000
vt 0.666667 1.000000
vt 0.666667 0.785714
vt 1.000000 0.785714
vt 0.416667 0.428571
vt 0.416667 0.571429
vt 0.000000 0.571429
vt 0.000000 0.428571
vt 1.000000 0.428571
vt 0.333333 1.000000
vt 0.333333 0.857143
vt 0.166667 0.714286
vt 0.333333 0.625000
vt 0.666667 0.625000
vt 0.500000 0.571429
vt 0.500000 0.714286
vt 0.166667 1.000000
vt -0.000000 1.000000
vt 0.250000 0.714286
vt 0.083333 0.571429
vt 0.083333 0.428571
vt 0.416667 0.714286
vt 0.416667 1.000000
vt 0.750000 1.000000
vt 0.750000 0.714286
vt 0.166667 0.428571
vt 0.166667 0.571429
vt 0.833333 0.142857
vt 0.833333 0.000000
vt 1.000000 -0.000000
vt 1.000000 0.071429
vt 1.000000 0.142857
vt 1.000000 0.089286
vt 0.833333 0.053571
vt 0.916667 0.285714
vt 0.916667 0.428571
vt 0.083333 0.142857
vt 0.916667 0.142857
vt 0.083333 0.339286
vt 0.916667 0.339286
vn 0.000000 0.000000 -1.000000
vn -1.000000 -0.000000 -0.000000
vn 1.000000 -0.000000 0.000000
vn 0.000000 -1.000000 0.000000
vn 0.000000 1.000000 0.000000
vn 0.000000 0.000000 1.000000
g Adaridge_R_B_Cube.007_Face1
s off
f 12/1/1 14/2/1 15/3/1 13/4/1
f 26/5/2 18/6/2 21/7/2 16/8/2
f 22/9/3 20/10/3 27/11/3 28/12/3
f 13/3/2 15/4/2 11/13/2 19/14/2
f 15/3/4 14/2/4 30/15/4 11/16/4
f 12/17/5 13/18/5 19/19/5 35/20/5
f 19/21/5 17/22/5 37/15/5 38/23/5
f 35/24/5 19/25/5 38/26/5 47/27/5
f 36/2/2 29/1/2 41/28/2 49/29/2
f 5/30/1 2/31/1 3/4/1 1/3/1
f 4/18/1 5/30/1 1/3/1 7/17/1
f 10/24/1 7/25/1 3/22/1 6/21/1
f 9/1/1 10/2/1 6/3/1 8/4/1
f 11/21/1 30/22/1 24/1/1 28/32/1
f 17/25/1 19/33/1 27/17/1 18/22/1
f 20/18/1 22/30/1 16/3/1 21/17/1
f 10/34/5 9/8/5 25/35/5 28/17/5
f 7/3/5 10/30/5 28/31/5 24/4/5
f 4/2/5 7/3/5 24/4/5 23/1/5
f 20/22/5 21/17/5 18/36/5 27/37/5
f 50/17/1 52/3/1 56/38/1 55/39/1
f 5/17/3 4/34/3 23/8/3 34/35/3
f 2/8/3 5/40/3 34/41/3 33/7/3
f 14/3/3 12/17/3 35/42/3 30/14/3
f 33/4/3 34/3/3 46/43/3 45/44/3
f 34/2/3 23/22/3 39/45/3 46/29/3
f 31/25/2 36/22/2 49/45/2 42/46/2
f 24/21/3 30/24/3 48/47/3 40/48/3
f 51/30/1 32/31/1 53/49/1 54/50/1
f 30/2/3 35/22/3 47/45/3 48/29/3
f 44/51/6 43/52/6 45/53/6 46/54/6 39/55/6
f 41/52/6 40/53/6 48/56/6 49/57/6
f 48/56/6 47/55/6 42/51/6 49/57/6
f 51/30/5 54/31/5 58/49/5 57/50/5
f 55/4/2 56/3/2 62/30/2 61/31/2
f 54/3/2 53/17/2 59/18/2 60/30/2
f 64/17/5 66/3/5 65/2/5 63/22/5
f 33/58/4 45/59/4 62/44/4 56/60/4 2/61/4
f 40/59/4 41/44/4 68/62/4 67/63/4
