# Blender v2.75 (sub 4) OBJ File: 'Retaining_wall.blend'
# www.blender.org
o Adaridge_M_T_Cube.001
v -0.500000 0.500000 0.513086
v -0.500000 0.600000 0.513086
v -0.500000 0.500000 0.015393
v -0.500000 0.600000 0.015393
v 0.493328 0.500000 0.513086
v 0.493328 0.600000 0.513086
v 0.493328 0.500000 0.015393
v 0.493328 0.600000 0.015393
v -0.700000 0.500000 0.051369
v 0.300000 -0.500000 -0.048631
v 0.700000 -0.500000 -0.048631
v 0.300000 -0.100000 -0.048631
v 0.700000 -0.100000 -0.048631
v -0.300000 -0.100000 0.151369
v -0.300000 0.300000 0.151369
v 0.100000 0.300000 0.151369
v -0.300000 -0.500000 -0.048631
v 0.100000 -0.500000 -0.048631
v -0.300000 -0.100000 -0.048631
v 0.100000 -0.100000 -0.048631
v -0.300000 0.300000 0.051369
v 0.100000 0.300000 0.051369
v -0.300000 0.500000 0.051369
v -0.700000 -0.100000 0.051369
v -0.300000 -0.100000 0.051369
v -0.700000 0.100000 0.051369
v -0.300000 0.100000 0.051369
v 0.100000 0.500000 0.051369
v 0.300000 0.500000 0.051369
v 0.300000 0.100000 0.051369
v 0.100000 0.100000 0.051369
v 0.100000 -0.100000 0.151369
v 0.300000 -0.100000 0.051369
v 0.100000 -0.100000 0.051369
v 0.300000 -0.100000 0.451369
v 0.700000 -0.100000 0.351369
v 0.100000 0.500000 0.151369
v 0.100000 0.100000 0.151369
v -0.300000 0.500000 0.151369
v -0.300000 0.100000 0.151369
v 0.700000 -0.500000 0.351369
v -0.300000 -0.500000 0.351369
v -0.300000 -0.100000 0.351369
v -0.700000 0.500000 0.451369
v -0.700000 -0.100000 0.451369
v -0.700000 0.100000 0.451369
v 0.300000 0.500000 0.451369
v 0.300000 0.100000 0.451369
v -0.300000 0.500000 0.451369
v 0.300000 -0.100000 0.351369
vt 1.000000 0.428571
vt 1.000000 0.142857
vt 0.916667 0.142857
vt 0.916667 0.428571
vt -0.000000 0.071429
vt 0.833333 0.071429
vt 0.833333 -0.000000
vt 0.000000 0.000000
vt 0.083333 0.142857
vt 0.083333 0.428571
vt 0.000000 0.428571
vt 0.000000 0.142857
vt 0.833333 0.142857
vt 0.666667 0.714286
vt 0.666667 1.000000
vt 0.333333 1.000000
vt 0.333333 0.714286
vt 1.000000 0.714286
vt 0.666667 0.428571
vt 0.333333 0.571429
vt 0.333333 0.428571
vt 0.666667 0.571429
vt 1.000000 1.000000
vt -0.000000 0.571429
vt -0.000000 0.714286
vt 0.000000 1.000000
vt 0.000000 0.857143
vt 0.166667 0.857143
vt 0.166667 1.000000
vt 0.166667 0.910714
vt 0.333333 0.910714
vt 0.333333 0.535714
vt 0.666667 0.535714
vt 0.333333 0.678571
vt 0.666667 0.678571
vt 0.333333 0.857143
vt 0.208333 0.857143
vt 0.208333 0.714286
vt 0.000000 0.464286
vt 0.333333 0.464286
vt 1.000000 0.000000
vt 0.833333 0.053571
vt 1.000000 0.053571
vn -1.000000 0.000000 0.000000
vn 0.000000 0.000000 -1.000000
vn 1.000000 0.000000 0.000000
vn 0.000000 0.000000 1.000000
vn 0.000000 -1.000000 0.000000
vn 0.000000 1.000000 0.000000
g Adaridge_M_T_Cube.001_Face1
s off
f 2/1/1 4/2/1 3/3/1 1/4/1
f 4/5/2 8/6/2 7/7/2 3/8/2
f 8/9/3 6/10/3 5/11/3 7/12/3
f 6/13/4 2/12/4 1/5/4 5/6/4
f 1/10/5 3/4/5 7/3/5 5/9/5
f 6/3/6 8/4/6 4/10/6 2/9/6
f 10/14/2 12/15/2 13/16/2 11/17/2
f 17/1/2 19/18/2 20/14/2 18/19/2
f 24/20/2 26/21/2 27/19/2 25/22/2
f 50/15/6 36/14/6 13/18/6 12/23/6
f 17/18/1 42/14/1 43/15/1 19/23/1
f 24/20/1 45/24/1 46/25/1 26/17/1
f 26/15/2 9/14/2 23/18/2 27/23/2
f 14/17/2 15/14/2 16/15/2 32/16/2
f 28/24/2 22/11/2 21/21/2 23/20/2
f 10/20/2 18/21/2 20/19/2 12/22/2
f 28/22/2 29/14/2 30/17/2 31/20/2
f 30/26/2 33/27/2 34/28/2 31/29/2
f 19/20/6 14/21/6 32/19/6 20/22/6
f 20/29/6 34/30/6 33/31/6 12/16/6
f 34/21/1 32/32/1 38/33/1 31/19/1
f 31/20/1 38/34/1 37/35/1 28/22/1
f 27/36/3 40/37/3 14/38/3 25/17/3
f 23/24/3 39/39/3 40/40/3 27/20/3
f 22/14/5 16/22/5 15/20/5 21/17/5
f 13/18/3 36/14/3 41/19/3 11/1/3
f 29/18/3 47/14/3 48/19/3 30/1/3
f 30/20/3 48/24/3 35/11/3 33/21/3
f 26/1/1 46/19/1 44/14/1 9/18/1
f 25/18/5 43/1/5 45/19/5 24/14/5
f 9/16/6 44/17/6 49/14/6 23/15/6
f 43/13/4 42/7/4 41/41/4 36/2/4
f 46/42/4 48/43/4 47/2/4 44/13/4
f 46/42/4 45/7/4 35/41/4 48/43/4
f 42/10/5 17/9/5 11/3/5 41/4/5
