# Blender v2.76 (sub 2) OBJ File: 'Deco_wall.blend'
# www.blender.org
o Deco_peaked_Cube.001_Cube.038_Smooth.001
v 0.500000 -0.100000 0.200000
v 0.500000 -0.100000 0.400000
v 0.500000 -0.500000 0.400000
v 0.500000 -0.500000 0.200000
v -0.500000 -0.100000 0.400000
v -0.500000 -0.500000 0.400000
v -0.500000 -0.100000 0.200000
v -0.500000 -0.500000 0.200000
v 0.333333 -0.500000 0.400000
v 0.166667 -0.500000 0.400000
v -0.000000 -0.500000 0.400000
v -0.166667 -0.500000 0.400000
v -0.333333 -0.500000 0.400000
v 0.333333 -0.500000 0.200000
v 0.166667 -0.500000 0.200000
v -0.000000 -0.500000 0.200000
v -0.166667 -0.500000 0.200000
v -0.333333 -0.500000 0.200000
v 0.333333 -0.000000 0.200000
v 0.166667 -0.100000 0.200000
v -0.000000 -0.000000 0.200000
v -0.166667 -0.100000 0.200000
v -0.333333 -0.000000 0.200000
v 0.333333 -0.000000 0.400000
v 0.166667 -0.100000 0.400000
v -0.000000 -0.000000 0.400000
v -0.166667 -0.100000 0.400000
v -0.333333 -0.000000 0.400000
vt 0.000045 0.700027
vt 0.000045 0.500045
vt 0.166696 0.500045
vt 0.333348 0.500045
vt 0.500000 0.500045
vt 0.666652 0.500045
vt 0.833304 0.500045
vt 0.999955 0.500045
vt 0.999955 0.700027
vt 0.833304 0.700027
vt 0.666652 0.700027
vt 0.500000 0.700027
vt 0.333348 0.700027
vt 0.166697 0.700027
vt 0.824659 0.695838
vt 0.824659 0.892508
vt 0.988551 0.892508
vt 0.988551 0.695838
vt 0.005199 0.695838
vt 0.005199 0.892508
vt 0.169091 0.892508
vt 0.169091 0.695838
vt 0.332983 0.892508
vt 0.332983 0.695838
vt 0.496875 0.892508
vt 0.496875 0.695838
vt 0.660767 0.892508
vt 0.660767 0.695838
vt 0.398540 0.695838
vt 0.398540 0.892508
vt 0.169091 0.499168
vt 0.005199 0.400832
vt 0.005199 0.007492
vt 0.169091 0.007492
vt 0.824659 0.499168
vt 0.988551 0.400832
vt 0.988551 0.007492
vt 0.824659 0.007492
vt 0.332983 0.400832
vt 0.332983 0.007492
vt 0.496875 0.499168
vt 0.496875 0.007492
vt 0.660767 0.400832
vt 0.660767 0.007492
vn 0.000000 -1.000000 -0.000000
vn 0.514500 0.857500 0.000000
vn -0.514500 0.857500 0.000000
vn 1.000000 0.000000 0.000000
vn 0.000000 -0.000000 1.000000
vn -1.000000 0.000000 0.000000
vn 0.000000 0.000000 -1.000000
g Deco_peaked_Cube.001_Cube.038_Smooth.001_Top
s off
f 6/1/1 8/2/1 18/3/1 17/4/1 16/5/1 15/6/1 14/7/1 4/8/1 3/9/1 9/10/1 10/11/1 11/12/1 12/13/1 13/14/1
g Deco_peaked_Cube.001_Cube.038_Smooth.001_Top_mylandscaping_block_smooth.png
f 19/15/2 24/16/2 2/17/2 1/18/2
f 7/19/3 5/20/3 28/21/3 23/22/3
f 23/22/2 28/21/2 27/23/2 22/24/2
f 22/24/3 27/23/3 26/25/3 21/26/3
f 21/26/2 26/25/2 25/27/2 20/28/2
f 20/28/3 25/27/3 24/16/3 19/15/3
g Deco_peaked_Cube.001_Cube.038_Smooth.001_Face
f 1/29/4 2/30/4 3/20/4 4/19/4
f 28/31/5 5/32/5 6/33/5 13/34/5
f 5/30/6 7/29/6 8/19/6 6/20/6
f 19/35/7 1/36/7 4/37/7 14/38/7
f 7/32/7 23/31/7 18/34/7 8/33/7
f 23/31/7 22/39/7 17/40/7 18/34/7
f 22/39/7 21/41/7 16/42/7 17/40/7
f 21/41/7 20/43/7 15/44/7 16/42/7
f 20/43/7 19/35/7 14/38/7 15/44/7
f 2/36/5 24/35/5 9/38/5 3/37/5
f 24/35/5 25/43/5 10/44/5 9/38/5
f 25/43/5 26/41/5 11/42/5 10/44/5
f 26/41/5 27/39/5 12/40/5 11/42/5
f 27/39/5 28/31/5 13/34/5 12/40/5
