# Blender v2.74 (sub 0) OBJ File: 'Walls.blend'
# www.blender.org
o Block1_C_T_Cube.019
v 0.493390 0.499740 0.045465
v 0.493390 0.499740 0.510975
v -0.037412 0.499740 0.510975
v -0.037412 0.499740 0.045465
v 0.493390 0.600283 0.045465
v 0.493390 0.600283 0.510975
v -0.037412 0.600283 0.510975
v -0.037412 0.600283 0.045465
v -0.502759 0.499740 0.510975
v -0.502759 0.499740 -0.511371
v -0.037412 0.499740 -0.511371
v -0.502759 0.600283 0.510975
v -0.502759 0.600283 -0.511371
v -0.037412 0.600283 -0.511371
v -0.502759 0.600283 0.045465
v -0.502759 0.499740 0.045465
v 0.001194 0.002126 -0.004531
v 0.001194 0.500000 -0.004531
v 0.001194 0.002126 0.495469
v 0.001194 0.500000 0.495469
v -0.498806 0.002126 -0.004531
v -0.498806 0.500000 -0.004531
v -0.498806 0.002126 0.495469
v -0.498806 0.500000 0.495469
v 0.502738 -0.500000 0.097716
v 0.502738 -0.500000 0.405806
v 0.502738 0.000000 0.097716
v 0.502738 0.000000 0.405806
v 0.319405 0.000000 0.405806
v -0.007219 0.000000 0.405806
v -0.007219 -0.500000 0.405806
v 0.319405 -0.500000 0.405806
v -0.007219 0.000000 -0.002284
v 0.319405 0.000000 -0.002284
v 0.319405 -0.500000 -0.002284
v -0.007219 -0.500000 -0.002284
v -0.408429 -0.500000 -0.506763
v -0.100339 -0.500000 -0.506763
v -0.408429 0.000000 -0.506763
v -0.100339 0.000000 -0.506763
v -0.408429 0.000000 0.212048
v -0.408429 0.000000 -0.323430
v -0.408429 -0.500000 -0.323430
v -0.408429 -0.500000 0.212048
v -0.000339 0.000000 -0.323430
v -0.000339 0.000000 0.212048
v -0.000339 -0.500000 0.212048
v -0.000339 -0.500000 -0.323430
v 1.002738 0.000000 0.193249
v 1.002738 0.000000 0.501339
v 0.002738 0.000000 0.501339
v 0.002738 0.000000 0.193249
v 1.002738 0.500000 0.193249
v 1.002738 0.500000 0.501339
v 0.002738 0.500000 0.501339
v 0.002738 0.500000 0.193249
v 0.819405 0.500000 0.501339
v 0.186072 0.500000 0.501339
v 0.186072 0.000000 0.501339
v 0.819405 0.000000 0.501339
v 0.186072 0.500000 0.093249
v 0.819405 0.500000 0.093249
v 0.819405 0.000000 0.093249
v 0.186072 0.000000 0.093249
vt 0.972351 0.357491
vt 0.972351 0.735220
vt 0.892281 0.735220
vt 0.892281 0.357491
vt 0.886500 0.921970
vt 0.886500 0.478205
vt 0.966570 0.478205
vt 0.966570 0.921970
vt 0.886500 0.089163
vt 0.966570 0.089163
vt 0.962110 0.068440
vt 0.962110 0.511554
vt 0.882040 0.511554
vt 0.882040 0.068440
vt 0.480572 0.846924
vt 0.020487 0.846924
vt 0.020487 0.296187
vt 0.480572 0.296187
vt 0.457097 0.510730
vt 0.038303 0.510730
vt 0.038303 0.009420
vt 0.457097 0.009420
vt 0.962367 0.442955
vt 0.962367 0.895931
vt 0.882297 0.895931
vt 0.882297 0.442955
vt 0.882040 0.900027
vt 0.962110 0.900027
vt 0.504788 0.768680
vt 0.082460 0.768680
vt 0.082460 0.266386
vt 0.504788 0.266385
vt 0.962367 0.064271
vt 0.882297 0.064271
vt 0.457097 0.950222
vt 0.038303 0.950222
vt 0.958053 0.510730
vt 0.958053 0.950222
vt 0.878625 0.761575
vt 0.878625 0.309742
vt 0.958695 0.309742
vt 0.958695 0.761575
vt 0.123790 0.758174
vt 0.123790 0.283031
vt 0.588136 0.283031
vt 0.588136 0.758174
vt 0.050668 0.993799
vt 0.050668 0.504252
vt 0.515013 0.504252
vt 0.515013 0.993799
vt 0.489283 0.083244
vt 0.489283 0.559589
vt 0.024938 0.559589
vt 0.024938 0.083244
vt 0.114741 0.757652
vt 0.114741 0.268823
vt 0.579086 0.268823
vt 0.579086 0.757652
vt 0.563811 0.760823
vt 0.097483 0.760823
vt 0.097483 0.271276
vt 0.563811 0.271276
vt 0.854923 0.818986
vt 0.959083 0.818986
vt 0.959083 0.992096
vt 0.854923 0.992096
vt 0.426347 0.451697
vt 0.054619 0.451697
vt 0.054619 0.276384
vt 0.335257 0.276384
vt 0.050247 0.844113
vt 0.050247 0.668805
vt 0.505683 0.668805
vt 0.505683 0.844113
vt 0.050247 0.356480
vt 0.505683 0.356480
vt 0.352547 0.808262
vt 0.042991 0.808262
vt 0.042991 0.614884
vt 0.453023 0.614884
vt 0.042991 0.270367
vt 0.453023 0.270367
vt 0.426347 0.764030
vt 0.054619 0.764030
vt 0.083900 0.377108
vt 0.083900 0.228393
vt 0.480959 0.228393
vt 0.480959 0.377108
vt 0.419144 0.811574
vt 0.131158 0.811574
vt 0.131158 0.346356
vt 0.419144 0.346356
vt 0.432035 0.343978
vt 0.063747 0.343978
vt 0.063747 0.179529
vt 0.341788 0.179529
vt 0.083900 0.811475
vt 0.480959 0.811474
vt 0.432035 0.824297
vt 0.063747 0.824297
vt 0.148755 0.102540
vt 0.437170 0.102540
vt 0.437170 0.273124
vt 0.055141 0.273124
vt 0.437170 0.771366
vt 0.055141 0.771366
vt 0.854923 0.645876
vt 0.959083 0.645876
vt 0.030410 0.193648
vt 0.030410 0.014148
vt 0.496738 0.014148
vt 0.496738 0.193648
vt 0.443273 0.182187
vt 0.062132 0.182187
vt 0.062132 0.002436
vt 0.349876 0.002436
vt 0.425305 0.265176
vt 0.058168 0.265176
vt 0.058168 0.092029
vt 0.335340 0.092029
vt 0.030410 0.993241
vt 0.030410 0.813741
vt 0.496739 0.813741
vt 0.496739 0.993241
vt 0.349876 0.982900
vt 0.062132 0.982900
vt 0.062132 0.803148
vt 0.443273 0.803148
vt 0.425305 0.863321
vt 0.058168 0.863321
vt 0.559394 0.367478
vt 0.559394 0.549015
vt 0.100291 0.549015
vt 0.100291 0.367478
vt 0.559394 0.053099
vt 0.100291 0.053099
vt 0.091825 0.696501
vt 0.091825 0.518140
vt 0.550928 0.518140
vt 0.550928 0.696501
vt 0.091825 0.017165
vt 0.550928 0.017165
vt 0.107045 0.192632
vt 0.107045 0.011096
vt 0.566148 0.011096
vt 0.566148 0.192632
vt 0.107045 0.973607
vt 0.107045 0.802222
vt 0.566148 0.802222
vt 0.566148 0.973607
vn 1.000000 0.000000 0.000000
vn -0.000000 0.000000 1.000000
vn 0.000000 0.000000 -1.000000
vn 0.000000 -1.000000 -0.000000
vn 0.000000 1.000000 0.000000
vn -1.000000 0.000000 -0.000000
vn 0.478900 0.000000 -0.877900
vn 0.877900 0.000000 -0.478900
vn -0.478900 0.000000 -0.877900
g Block1_C_T_Cube.019_Top
s off
f 5/1/1 6/2/1 2/3/1 1/4/1
f 6/5/2 7/6/2 3/7/2 2/8/2
f 7/6/2 12/9/2 9/10/2 3/7/2
f 8/11/3 5/12/3 1/13/3 4/14/3
f 1/15/4 2/16/4 3/17/4 4/18/4
f 8/19/5 7/20/5 6/21/5 5/22/5
f 15/23/6 13/24/6 10/25/6 16/26/6
f 13/27/3 14/13/3 11/12/3 10/28/3
f 4/29/4 16/30/4 10/31/4 11/32/4
f 12/33/6 15/23/6 16/26/6 9/34/6
f 8/19/5 15/35/5 12/36/5 7/20/5
f 14/37/5 13/38/5 15/35/5 8/19/5
f 14/39/1 8/40/1 4/41/1 11/42/1
f 18/43/1 20/44/1 19/45/1 17/46/1
f 20/47/2 24/48/2 23/49/2 19/50/2
f 24/51/6 22/52/6 21/53/6 23/54/6
f 22/55/3 18/56/3 17/57/3 21/58/3
f 22/59/5 24/60/5 20/61/5 18/62/5
f 27/63/1 28/64/1 26/65/1 25/66/1
f 34/67/5 29/68/5 28/69/5 27/70/5
f 28/71/2 29/72/2 32/73/2 26/74/2
f 29/72/2 30/75/2 31/76/2 32/73/2
f 25/77/4 26/78/4 32/79/4 35/80/4
f 35/80/4 32/79/4 31/81/4 36/82/4
f 33/83/5 30/84/5 29/68/5 34/67/5
f 42/85/6 39/86/6 37/87/6 43/88/6
f 39/89/3 40/90/3 38/91/3 37/92/3
f 48/93/4 43/94/4 37/95/4 38/96/4
f 41/97/6 42/85/6 43/88/6 44/98/6
f 47/99/4 44/100/4 43/94/4 48/93/4
f 40/101/5 39/102/5 42/103/5 45/104/5
f 45/104/5 42/103/5 41/105/5 46/106/5
f 53/107/1 54/108/1 50/64/1 49/63/1
f 58/109/2 55/110/2 51/111/2 59/112/2
f 64/113/4 59/114/4 51/115/4 52/116/4
f 62/117/5 57/118/5 54/119/5 53/120/5
f 54/121/2 57/122/2 60/123/2 50/124/2
f 57/122/2 58/109/2 59/112/2 60/123/2
f 49/125/4 50/126/4 60/127/4 63/128/4
f 63/128/4 60/127/4 59/114/4 64/113/4
f 61/129/5 58/130/5 57/118/5 62/117/5
g Block1_C_T_Cube.019_Face
f 34/131/7 27/132/7 25/133/7 35/134/7
f 33/135/3 34/131/3 35/134/3 36/136/3
f 40/137/8 45/138/8 48/139/8 38/140/8
f 45/138/1 46/141/1 47/142/1 48/139/1
f 62/143/7 53/144/7 49/145/7 63/146/7
f 56/147/9 61/148/9 64/149/9 52/150/9
f 61/148/3 62/143/3 63/146/3 64/149/3
