# Alias Wavefront OBJ File Exported from SketchUp
# with OBJexporter (c) 2010/2011 TIG
# Units = meters

mtllib AutoSave_Untitled.mtl

g AutoSave_Untitled_c_Component_1-Material1
usemtl Material1
v 0.006100 7.311069 -0.767201
v 0.002700 6.873573 2.947733
v 0.004374 7.336861 1.119065
v 0.007761 6.797954 -2.582518
v 0.001194 5.952776 4.594183
v 0.009244 5.832485 -4.203176
v -0.000044 4.637222 5.946212
v 0.010448 4.480455 -5.518730
v -0.000927 3.016563 6.911682
v 0.011290 2.834004 -6.439526
v -0.001397 1.201245 7.424796
v 0.011714 1.005335 -6.902814
v -0.001420 -0.685022 7.450588
v 0.011691 -0.880931 -6.877022
v -0.000996 -2.513691 6.987300
v 0.011221 -2.696249 -6.363908
v -0.000154 -4.160141 6.066504
v 0.010338 -4.316908 -5.398438
v 0.001050 -5.512171 4.750950
v 0.009100 -5.632462 -4.046409
v 0.002533 -6.477641 3.130292
v 0.007594 -6.553259 -2.399959
v 0.004194 -6.990756 1.314975
v 0.005920 -7.016548 -0.571291
vn -1.000000 -0.000000 -0.000915
vn -1.000000 -0.000000 -0.000915
vn -1.000000 -0.000000 -0.000915
vn -1.000000 -0.000000 -0.000915
vn -1.000000 -0.000000 -0.000915
vn -1.000000 -0.000000 -0.000915
vn -1.000000 -0.000000 -0.000915
vn -1.000000 -0.000000 -0.000915
vn -1.000000 -0.000000 -0.000915
vn -1.000000 -0.000000 -0.000915
vn -1.000000 -0.000000 -0.000915
vn -1.000000 -0.000000 -0.000915
vn -1.000000 -0.000000 -0.000915
vn -1.000000 -0.000000 -0.000915
vn -1.000000 -0.000000 -0.000915
vn -1.000000 -0.000000 -0.000915
vn -1.000000 -0.000000 -0.000915
vn -1.000000 -0.000000 -0.000915
vn -1.000000 -0.000000 -0.000915
vn -1.000000 -0.000000 -0.000915
vn -1.000000 -0.000000 -0.000915
vn -1.000000 -0.000000 -0.000915
vn -1.000000 -0.000000 -0.000915
vn -1.000000 -0.000000 -0.000915
vt 0.888527 0.556112
vt 0.864605 0.352976
vt 0.889938 0.452969
vt 0.860470 0.655374
vt 0.814255 0.262947
vt 0.807677 0.743993
vt 0.742320 0.189018
vt 0.733747 0.815928
vt 0.653701 0.136225
vt 0.643718 0.866278
vt 0.554438 0.108168
vt 0.543726 0.891611
vt 0.451296 0.106757
vt 0.440583 0.890201
vt 0.351303 0.132090
vt 0.341320 0.862143
vt 0.261274 0.182440
vt 0.252702 0.809351
vt 0.187344 0.254375
vt 0.180766 0.735421
vt 0.134551 0.342994
vt 0.130417 0.645392
vt 0.106494 0.442257
vt 0.105084 0.545399
f 1/1/1 2/2/2 3/3/3
f 2/2/2 1/1/1 4/4/4
f 2/2/2 4/4/4 5/5/5
f 5/5/5 4/4/4 6/6/6
f 5/5/5 6/6/6 7/7/7
f 7/7/7 6/6/6 8/8/8
f 7/7/7 8/8/8 9/9/9
f 9/9/9 8/8/8 10/10/10
f 9/9/9 10/10/10 11/11/11
f 11/11/11 10/10/10 12/12/12
f 11/11/11 12/12/12 13/13/13
f 13/13/13 12/12/12 14/14/14
f 13/13/13 14/14/14 15/15/15
f 15/15/15 14/14/14 16/16/16
f 15/15/15 16/16/16 17/17/17
f 17/17/17 16/16/16 18/18/18
f 17/17/17 18/18/18 19/19/19
f 19/19/19 18/18/18 20/20/20
f 19/19/19 20/20/20 21/21/21
f 21/21/21 20/20/20 22/22/22
f 21/21/21 22/22/22 23/23/23
f 23/23/23 22/22/22 24/24/24

