# Alias Wavefront OBJ File Exported from SketchUp
# with OBJexporter (c) 2010/2011 TIG
# Units = meters

mtllib Untitled.mtl

g Untitled_c_Component_1-Material1
usemtl Material1
v -7.095873 0.000000 -1.168380
v -6.658376 0.000000 2.546556
v -7.121665 0.000000 0.717887
v -6.582758 0.000000 -2.983698
v -5.737580 0.000000 4.193006
v -5.617288 0.000000 -4.604357
v -4.422025 0.000000 5.545036
v -4.265259 0.000000 -5.919911
v -2.801367 0.000000 6.510506
v -2.618808 0.000000 -6.840708
v -0.986049 0.000000 7.023620
v -0.790139 0.000000 -7.303996
v 0.900218 0.000000 7.049412
v 1.096127 0.000000 -7.278204
v 2.728887 0.000000 6.586124
v 2.911446 0.000000 -6.765089
v 4.375338 0.000000 5.665327
v 4.532104 0.000000 -5.799620
v 5.727367 0.000000 4.349773
v 5.847658 0.000000 -4.447590
v 6.692837 0.000000 2.729114
v 6.768455 0.000000 -2.801139
v 7.205952 0.000000 0.913796
v 7.231744 0.000000 -0.972470
vn 0.000000 -1.000000 -0.000000
vn 0.000000 -1.000000 -0.000000
vn 0.000000 -1.000000 -0.000000
vn 0.000000 -1.000000 -0.000000
vn 0.000000 -1.000000 -0.000000
vn 0.000000 -1.000000 -0.000000
vn 0.000000 -1.000000 -0.000000
vn 0.000000 -1.000000 -0.000000
vn 0.000000 -1.000000 -0.000000
vn 0.000000 -1.000000 -0.000000
vn 0.000000 -1.000000 -0.000000
vn 0.000000 -1.000000 -0.000000
vn 0.000000 -1.000000 -0.000000
vn 0.000000 -1.000000 -0.000000
vn 0.000000 -1.000000 -0.000000
vn 0.000000 -1.000000 -0.000000
vn 0.000000 -1.000000 -0.000000
vn 0.000000 -1.000000 -0.000000
vn 0.000000 -1.000000 -0.000000
vn 0.000000 -1.000000 -0.000000
vn 0.000000 -1.000000 -0.000000
vn 0.000000 -1.000000 -0.000000
vn 0.000000 -1.000000 -0.000000
vn 0.000000 -1.000000 -0.000000
vt 0.888527 0.556112
vt 0.864605 0.352976
vt 0.889938 0.452969
vt 0.860470 0.655374
vt 0.814255 0.262947
vt 0.807677 0.743993
vt 0.742320 0.189018
vt 0.733747 0.815928
vt 0.653701 0.136225
vt 0.643718 0.866278
vt 0.554438 0.108168
vt 0.543726 0.891611
vt 0.451296 0.106757
vt 0.440583 0.890201
vt 0.351303 0.132090
vt 0.341320 0.862143
vt 0.261274 0.182440
vt 0.252702 0.809351
vt 0.187344 0.254375
vt 0.180766 0.735421
vt 0.134551 0.342994
vt 0.130417 0.645392
vt 0.106494 0.442257
vt 0.105084 0.545399
f 1/1/1 2/2/2 3/3/3
f 2/2/2 1/1/1 4/4/4
f 2/2/2 4/4/4 5/5/5
f 5/5/5 4/4/4 6/6/6
f 5/5/5 6/6/6 7/7/7
f 7/7/7 6/6/6 8/8/8
f 7/7/7 8/8/8 9/9/9
f 9/9/9 8/8/8 10/10/10
f 9/9/9 10/10/10 11/11/11
f 11/11/11 10/10/10 12/12/12
f 11/11/11 12/12/12 13/13/13
f 13/13/13 12/12/12 14/14/14
f 13/13/13 14/14/14 15/15/15
f 15/15/15 14/14/14 16/16/16
f 15/15/15 16/16/16 17/17/17
f 17/17/17 16/16/16 18/18/18
f 17/17/17 18/18/18 19/19/19
f 19/19/19 18/18/18 20/20/20
f 19/19/19 20/20/20 21/21/21
f 21/21/21 20/20/20 22/22/22
f 21/21/21 22/22/22 23/23/23
f 23/23/23 22/22/22 24/24/24

