# Alias Wavefront OBJ File Exported from SketchUp
# with OBJexporter (c) 2010/2011 TIG
# Units = meters

mtllib portalgun_button.mtl

g portalgun_button_Main-Default_Material
usemtl Default_Material
v 0.196920 -0.501032 -0.195263
v -0.180905 -0.501032 0.182562
v -0.180905 -0.501032 -0.195263
v 0.196920 -0.501032 0.182562
v 0.196920 0.819768 0.182562
v -0.180905 -0.501032 0.182562
v 0.196920 -0.501032 0.182562
v -0.180905 0.819768 0.182562
v -0.180905 0.613818 -0.195263
v -0.180905 -0.501032 0.182562
v -0.180905 0.819768 0.182562
v -0.180905 -0.501032 -0.195263
v 0.196920 -0.501032 -0.195263
v 0.196920 0.819768 0.182562
v 0.196920 -0.501032 0.182562
v 0.196920 0.613818 -0.195263
v -0.180905 0.613818 -0.195263
v 0.196920 -0.501032 -0.195263
v -0.180905 -0.501032 -0.195263
v 0.196920 0.613818 -0.195263
v -0.180905 0.819768 0.182562
v -0.126559 0.795126 0.137355
v -0.180905 0.613818 -0.195263
v 0.196920 0.819768 0.182562
v 0.144903 0.795126 0.137355
v 0.144903 0.638609 -0.149782
v -0.126559 0.638609 -0.149782
v 0.196920 0.613818 -0.195263
vn 0.000000 -1.000000 -0.000000
vn 0.000000 -1.000000 -0.000000
vn 0.000000 -1.000000 -0.000000
vn 0.000000 -1.000000 -0.000000
vn 0.000000 0.000000 1.000000
vn 0.000000 0.000000 1.000000
vn 0.000000 0.000000 1.000000
vn 0.000000 0.000000 1.000000
vn -1.000000 0.000000 -0.000000
vn -1.000000 0.000000 -0.000000
vn -1.000000 0.000000 -0.000000
vn -1.000000 0.000000 -0.000000
vn 1.000000 -0.000000 0.000000
vn 1.000000 -0.000000 0.000000
vn 1.000000 -0.000000 0.000000
vn 1.000000 -0.000000 0.000000
vn -0.000000 -0.000000 -1.000000
vn -0.000000 -0.000000 -1.000000
vn -0.000000 -0.000000 -1.000000
vn -0.000000 -0.000000 -1.000000
vn -0.000000 0.878028 -0.478608
vn -0.000000 0.878028 -0.478608
vn -0.000000 0.878028 -0.478608
vn -0.000000 0.878028 -0.478608
vn -0.000000 0.878028 -0.478608
vn -0.000000 0.878028 -0.478608
vn -0.000000 0.878028 -0.478608
vn -0.000000 0.878028 -0.478608
vt -7.752738 7.687500
vt 7.122262 -7.187500
vt 7.122262 7.687500
vt -7.752738 -7.187500
vt 7.752738 32.274349
vt -7.122262 -19.725651
vt 7.752738 -19.725651
vt -7.122262 32.274349
vt -7.687500 24.166068
vt 7.187500 -19.725651
vt 7.187500 32.274349
vt -7.687500 -19.725651
vt 7.687500 -19.725651
vt -7.187500 32.274349
vt -7.187500 -19.725651
vt 7.687500 24.166068
vt 7.122262 24.166068
vt -7.752738 -19.725651
vt 7.122262 -19.725651
vt -7.752738 24.166068
vt 7.122262 21.757607
vt 4.982656 19.730531
vt 7.122262 4.816242
vt -7.752738 21.757607
vt -5.704844 19.730531
vt -5.704844 6.855531
vt 4.982656 6.855531
vt -7.752738 4.816242
f 1/1/1 2/2/2 3/3/3
f 2/2/2 1/1/1 4/4/4
f 5/5/5 6/6/6 7/7/7
f 6/6/6 5/5/5 8/8/8
f 9/9/9 10/10/10 11/11/11
f 10/10/10 9/9/9 12/12/12
f 13/13/13 14/14/14 15/15/15
f 14/14/14 13/13/13 16/16/16
f 17/17/17 18/18/18 19/19/19
f 18/18/18 17/17/17 20/20/20
f 21/21/21 22/22/22 23/23/23
f 22/22/22 21/21/21 24/24/24
f 22/22/22 24/24/24 25/25/25
f 25/25/25 24/24/24 26/26/26
f 23/23/23 27/27/27 28/28/28
f 27/27/27 23/23/23 22/22/22
f 28/28/28 27/27/27 26/26/26
f 28/28/28 26/26/26 24/24/24

g portalgun_button_Main-jean_blue
usemtl jean_blue
v 0.144903 0.835548 0.115321
v -0.126559 0.679031 -0.171816
v -0.126559 0.835548 0.115321
v 0.144903 0.679031 -0.171816
v -0.126559 0.679031 -0.171816
v 0.144903 0.638609 -0.149782
v -0.126559 0.638609 -0.149782
v 0.144903 0.679031 -0.171816
v -0.126559 0.835548 0.115321
v -0.126559 0.638609 -0.149782
v -0.126559 0.795126 0.137355
v -0.126559 0.679031 -0.171816
v 0.144903 0.835548 0.115321
v -0.126559 0.795126 0.137355
v 0.144903 0.795126 0.137355
v -0.126559 0.835548 0.115321
v 0.144903 0.638609 -0.149782
v 0.144903 0.835548 0.115321
v 0.144903 0.795126 0.137355
v 0.144903 0.679031 -0.171816
vn -0.000000 0.878028 -0.478608
vn -0.000000 0.878028 -0.478608
vn -0.000000 0.878028 -0.478608
vn -0.000000 0.878028 -0.478608
vn -0.000000 -0.478608 -0.878028
vn -0.000000 -0.478608 -0.878028
vn -0.000000 -0.478608 -0.878028
vn -0.000000 -0.478608 -0.878028
vn -1.000000 0.000000 -0.000000
vn -1.000000 0.000000 -0.000000
vn -1.000000 0.000000 -0.000000
vn -1.000000 0.000000 -0.000000
vn 0.000000 0.478608 0.878028
vn 0.000000 0.478608 0.878028
vn 0.000000 0.478608 0.878028
vn 0.000000 0.478608 0.878028
vn 1.000000 -0.000000 0.000000
vn 1.000000 -0.000000 0.000000
vn 1.000000 -0.000000 0.000000
vn 1.000000 -0.000000 0.000000
vt -5.704844 19.730531
vt 4.982656 6.855531
vt 4.982656 19.730531
vt -5.704844 6.855531
vt 4.982656 26.710297
vt -5.704844 24.897797
vt 4.982656 24.897797
vt -5.704844 26.710297
vt 4.540192 32.895600
vt -5.896946 25.142089
vt 5.407670 31.304174
vt -6.764424 26.733516
vt 5.704844 26.710297
vt -4.982656 24.897797
vt 5.704844 24.897797
vt -4.982656 26.710297
vt 5.896946 25.142089
vt -4.540192 32.895600
vt -5.407670 31.304174
vt 6.764424 26.733516
f 29/29/29 30/30/30 31/31/31
f 30/30/30 29/29/29 32/32/32
f 33/33/33 34/34/34 35/35/35
f 34/34/34 33/33/33 36/36/36
f 37/37/37 38/38/38 39/39/39
f 38/38/38 37/37/37 40/40/40
f 41/41/41 42/42/42 43/43/43
f 42/42/42 41/41/41 44/44/44
f 45/45/45 46/46/46 47/47/47
f 46/46/46 45/45/45 48/48/48

